# Made in Blockbench 5.2.1
mtllib item_god_thunder_staff.mtl

o cylinder
v 0 0 0
v 0.0090210979560879 0 0.015625
v 0.0090210979560879 0.75 0.015625
v 0.018042195912175804 0 1.104765873671778e-18
v 0.018042195912175804 0.75 1.104765873671778e-18
v 0.0090210979560879 0 -0.015625
v 0.0090210979560879 0.75 -0.015625
v -0.009021097956087904 0 -0.015624999999999998
v -0.009021097956087904 0.75 -0.015624999999999998
v -0.018042195912175804 0 -3.3142976210153337e-18
v -0.018042195912175804 0.75 -3.3142976210153337e-18
v -0.00902109795608791 0 0.015624999999999995
v -0.00902109795608791 0.75 0.015624999999999995
v 0 0.75 0
v -0.01804219591217578 0.9832531754730547 -0.018124999999999995
v -0.009021097956087876 0.9988781754730547 -0.018124999999999995
v 0.009021097956087926 0.9988781754730547 -0.018124999999999995
v 0.01804219591217583 0.9832531754730547 -0.018124999999999995
v 0.009021097956087932 0.9676281754730547 -0.018124999999999995
v -0.009021097956087883 0.9676281754730547 -0.018124999999999995
v -0.018042195912175794 0.9291265877365275 -0.111875
v -0.00902109795608789 0.9369390877365275 -0.12540664693413184
v 0.009021097956087912 0.9369390877365275 -0.12540664693413184
v 0.018042195912175815 0.9291265877365273 -0.111875
v 0.009021097956087921 0.9213140877365275 -0.09834335306586815
v -0.009021097956087893 0.9213140877365275 -0.09834335306586815
v -0.018042195912175815 0.8208734122634725 -0.11187499999999999
v -0.009021097956087918 0.8130609122634725 -0.12540664693413184
v 0.009021097956087885 0.8130609122634725 -0.12540664693413184
v 0.018042195912175794 0.8208734122634725 -0.11187499999999999
v 0.0090210979560879 0.8286859122634725 -0.09834335306586814
v -0.009021097956087914 0.8286859122634725 -0.09834335306586814
v -0.01804219591217583 0.7667468245269452 -0.018125000000000023
v -0.009021097956087932 0.7511218245269452 -0.018125000000000023
v 0.00902109795608787 0.7511218245269452 -0.018125000000000023
v 0.01804219591217578 0.7667468245269452 -0.018125000000000023
v 0.00902109795608789 0.7823718245269452 -0.018125000000000016
v -0.009021097956087925 0.7823718245269452 -0.018125000000000016
v -0.009021097956087876 0.9988781754730547 0.013125000000000005
v 0.009021097956087926 0.9988781754730547 0.013125000000000005
v -0.01804219591217578 0.9832531754730547 0.013125000000000005
v -0.009021097956087883 0.9676281754730547 0.013125000000000005
v 0.009021097956087932 0.9676281754730547 0.013125000000000005
v 0.01804219591217583 0.9832531754730547 0.013125000000000005
vt 0.118396875 0.9765625
vt 0.11388437500000001 0.984375
vt 0.109375 0.9765625
vt 0.21232861425717586 0.4689799936847835
vt 0.2213444311623409 0.46875
vt 0.23090757813878635 0.8436280417948041
vt 0.2218917612336213 0.8438580354795876
vt 0.270134375 0.984375
vt 0.274646875 0.9921875
vt 0.265625 0.9921875
vt 0.11388437500000001 0.96875
vt 0.118396875 0.9765625
vt 0.109375 0.9765625
vt 0 0.46904229217682225
vt 0.00901401225015079 0.46875
vt 0.021167533115939413 0.8435530041642741
vt 0.012153520865788622 0.8438452963410963
vt 0.274646875 0.9921875
vt 0.270134375 1
vt 0.265625 0.9921875
vt 0.104865625 0.96875
vt 0.11388437500000001 0.96875
vt 0.109375 0.9765625
vt 0.03125 0.46875
vt 0.0625 0.46875
vt 0.0625 0.84375
vt 0.03125 0.84375
vt 0.270134375 1
vt 0.261115625 1
vt 0.265625 0.9921875
vt 0.100353125 0.9765625
vt 0.104865625 0.96875
vt 0.109375 0.9765625
vt 0.17848408942694044 0.48146228754141585
vt 0.1875 0.48168857961174183
vt 0.1780907663066093 0.8565705161214957
vt 0.16907485573354972 0.8563442240511696
vt 0.261115625 1
vt 0.256603125 0.9921875
vt 0.265625 0.9921875
vt 0.104865625 0.984375
vt 0.100353125 0.9765625
vt 0.109375 0.9765625
vt 0.1224844584002024 0.36550850001108315
vt 0.13150022759349017 0.36574035646638126
vt 0.12185962654159199 0.7406164143993441
vt 0.11284385734830424 0.740384557944046
vt 0.256603125 0.9921875
vt 0.261115625 0.984375
vt 0.265625 0.9921875
vt 0.11388437500000001 0.984375
vt 0.104865625 0.984375
vt 0.109375 0.9765625
vt 0.0625 0.375
vt 0.09375 0.375
vt 0.09375 0.75
vt 0.0625 0.75
vt 0.261115625 0.984375
vt 0.270134375 0.984375
vt 0.265625 0.9921875
vt 0.17000566076630724 0.987685159270729
vt 0.16796968095595716 0.9964755682554177
vt 0.11962465549149706 0.9577551753681974
vt 0.12775542790434585 0.9538506553850775
vt 0.323615625 0.875559375
vt 0.332634375 0.875559375
vt 0.332634375 0.9375
vt 0.323615625 0.9375
vt 0.022308679919419826 0.9836910594407657
vt 0.02027270010906974 0.9749006504560769
vt 0.0625229329710311 0.9410661465704253
vt 0.0706537053838799 0.9449706665535452
vt 0.23899781142993817 0.9747250865735517
vt 0.23696648144987212 0.9659372761195999
vt 0.27311981320390744 0.9369913936343778
vt 0.28125 0.9408971328715475
vt 0.301384375 0.671315625
vt 0.292365625 0.671315625
vt 0.292365625 0.625
vt 0.301384375 0.625
vt 0.10678458175403532 0.8626909258687723
vt 0.10475325177396927 0.8714787363227241
vt 0.06250106320390744 0.8376507826207199
vt 0.07063125 0.8337450433835502
vt 0.12775542790434585 0.9538506553850775
vt 0.11962105290434585 0.9577569053850775
vt 0.11962105290434585 0.8958194053850775
vt 0.12775542790434585 0.8997256553850775
vt 0.03125 0.9375
vt 0 0.9375
vt 0 0.875
vt 0.03125 0.875
vt 0.0706537053838799 0.9449706665535452
vt 0.0625193303838799 0.9410644165535452
vt 0.0625193303838799 0.8869394165535452
vt 0.0706537053838799 0.8830331665535452
vt 0.28125 0.9408971328715475
vt 0.27311875 0.9369908828715475
vt 0.27311875 0.8906783828715475
vt 0.28125 0.8867721328715475
vt 0.09375 1
vt 0.0625 1
vt 0.0625 0.96875
vt 0.09375 0.96875
vt 0.07063125 0.8337450433835502
vt 0.0625 0.8376512933835502
vt 0.0625 0.7835262933835502
vt 0.07063125 0.7874325433835502
vt 0.12775182531719464 0.8997239253681975
vt 0.11962105290434585 0.8958194053850775
vt 0.167966292756573 0.8571021301352455
vt 0.170002058179156 0.8658894214825459
vt 0.270134375 0.657059375
vt 0.261115625 0.657059375
vt 0.261115625 0.59511875
vt 0.270134375 0.59511875
vt 0.07065010279672868 0.8830348965704253
vt 0.0625193303838799 0.8869394165535452
vt 0.020269097521918533 0.8531049126678938
vt 0.02230486294450155 0.8443176213205934
vt 0.28124893679609253 0.8867726436343778
vt 0.27311875 0.8906783828715475
vt 0.23696541824596468 0.8617325003863254
vt 0.23899674822603073 0.8529446899323736
vt 0.332634375 0.84375
vt 0.323615625 0.84375
vt 0.323615625 0.7974343749999999
vt 0.332634375 0.7974343749999999
vt 0.07063018679609256 0.7874320326207199
vt 0.0625 0.7835262933835502
vt 0.10475218857006183 0.749698339681546
vt 0.10678351855012788 0.7584861501354978
vt 0.261115625 0.59511875
vt 0.261115625 0.59375
vt 0.270134375 0.59375
vt 0.270134375 0.59511875
vt 0.1780907663066093 0.8565705161214957
vt 0.1700017792344799 0.865888217430197
vt 0.167966292756573 0.8571021301352455
vt 0.16907693161388432 0.8563442761540887
vt 0.021167533115939413 0.8435530041642741
vt 0.02230513061236842 0.8443164659440925
vt 0.020269097521918533 0.8531049126678938
vt 0.012399347688341002 0.8438373250564907
vt 0.23090757813878635 0.8436280417948041
vt 0.23899726523223985 0.8529424532930222
vt 0.23696541824596468 0.8617325003863254
vt 0.22189383709238922 0.8438579825243855
vt 0.12185962654159199 0.7406164143993441
vt 0.10678397765720846 0.7584881362953251
vt 0.10475218857006183 0.749698339681546
vt 0.11284354560645232 0.7403845499270527
vt 0.332634375 0.774053125
vt 0.332634375 0.7974343749999999
vt 0.323615625 0.7974343749999999
vt 0.323615625 0.774053125
vt 0.323615625 0.875559375
vt 0.323615625 0.859934375
vt 0.332634375 0.859934375
vt 0.332634375 0.875559375
vt 0.17000566076630724 0.987685159270729
vt 0.18522770161039392 0.9912107936166242
vt 0.183192000339074 1
vt 0.1679699594949873 0.9964743656541047
vt 0.10678458175403532 0.8626909258687723
vt 0.1220081626449378 0.8662099043935929
vt 0.11997630444470636 0.875
vt 0.10475272355380388 0.8714810214751794
vt 0.301384375 0.671315625
vt 0.301384375 0.686940625
vt 0.292365625 0.686940625
vt 0.292365625 0.671315625
vt 0.23899781142993817 0.9747250865735517
vt 0.2237742305390357 0.9782440650983724
vt 0.22174237233880426 0.9694539694919653
vt 0.23696595322970673 0.9659349909671446
vt 0.022308679919419826 0.9836910594407657
vt 0.007086639075333112 0.9872166937866609
vt 0.005050937804013226 0.9784274874032852
vt 0.020272978648099942 0.9749018530573901
vt 0.042365625 0.9375
vt 0.037853125 0.9296875
vt 0.042365625 0.921875
vt 0.051384374999999996 0.921875
vt 0.051384374999999996 0.921875
vt 0.055896875 0.9296875
vt 0.051384374999999996 0.9375
vt 0.042365625 0.9375
vn 0 -1 0
vn 0.8660254037844386 0 0.5000000000000001
vn 0 1 0
vn 0 -1 0
vn 0.8660254037844386 0 -0.5000000000000001
vn 0 1 0
vn 0 -1 0
vn -9.61481343191782e-17 0 -1
vn 0 1 0
vn 0 -1 0
vn -0.8660254037844387 0 -0.5
vn 0 1 0
vn 0 -1 0
vn -0.8660254037844388 0 0.4999999999999996
vn 0 1 0
vn 0 -1 0
vn -2.884444029575345e-16 0 1
vn 0 1 0
vn -0.8320502943378438 0.4803844614152616 -0.2773500981126138
vn 0 0.8660254037844394 -0.49999999999999906
vn 0.8320502943378439 0.48038446141526153 -0.2773500981126144
vn 0.8320502943378442 -0.48038446141526137 0.27735009811261324
vn 0 -0.8660254037844396 0.49999999999999845
vn -0.832050294337844 -0.4803844614152613 0.2773500981126137
vn -0.8320502943378434 1.8835729204776777e-16 -0.5547001962252297
vn 0 0 -1
vn 0.8320502943378434 -2.309403486050034e-16 -0.5547001962252297
vn 0.8320502943378439 -9.896207264163768e-17 0.5547001962252288
vn 0 1.4982253225803242e-16 1
vn -0.8320502943378436 2.3094034860500302e-16 0.5547001962252293
vn -0.8320502943378437 -0.48038446141526137 -0.2773500981126144
vn 0 -0.8660254037844388 -0.4999999999999997
vn 0.8320502943378434 -0.4803844614152619 -0.2773500981126145
vn 0.832050294337844 0.48038446141526137 0.2773500981126143
vn 0 0.866025403784439 0.4999999999999996
vn -0.8320502943378438 0.48038446141526175 0.27735009811261435
vn -4.2832616691948803e-17 -0.9123546661228833 -0.40940073669181715
vn -0.7861833526876957 -0.45390317030664323 -0.41938961353652143
vn 0.8450176100236245 -0.48787114461711417 -0.21892232640813156
vn 0.7861833526876961 0.45390317030664296 0.41938961353652116
vn -0.7808689819973844 0.45083491695801886 0.43242515029288614
vn 0 0.7216882451462797 0.6922182291862035
vn 0 1 0
vn -0.8660254037844387 0.5000000000000001 0
vn -0.8660254037844389 -0.49999999999999983 0
vn 0 -1 0
vn 0.8660254037844389 -0.49999999999999983 0
vn 0.8660254037844387 0.5 0
vn 0 0 1
vn 0 0 1
usemtl m_5d5f593a-32ff-4e1c-1e85-3dd4ee60738a
f 4/1/1 2/2/1 1/3/1
f 2/4/2 4/5/2 5/6/2 3/7/2
f 3/8/3 5/9/3 14/10/3
f 6/11/4 4/12/4 1/13/4
f 4/14/5 6/15/5 7/16/5 5/17/5
f 5/18/6 7/19/6 14/20/6
f 8/21/7 6/22/7 1/23/7
f 6/24/8 8/25/8 9/26/8 7/27/8
f 7/28/9 9/29/9 14/30/9
f 10/31/10 8/32/10 1/33/10
f 8/34/11 10/35/11 11/36/11 9/37/11
f 9/38/12 11/39/12 14/40/12
f 12/41/13 10/42/13 1/43/13
f 10/44/14 12/45/14 13/46/14 11/47/14
f 11/48/15 13/49/15 14/50/15
f 2/51/16 12/52/16 1/53/16
f 12/54/17 2/55/17 3/56/17 13/57/17
f 13/58/18 3/59/18 14/60/18
f 15/61/19 16/62/19 22/63/19 21/64/19
f 16/65/20 17/66/20 23/67/20 22/68/20
f 17/69/21 18/70/21 24/71/21 23/72/21
f 18/73/22 19/74/22 25/75/22 24/76/22
f 19/77/23 20/78/23 26/79/23 25/80/23
f 20/81/24 15/82/24 21/83/24 26/84/24
f 21/85/25 22/86/25 28/87/25 27/88/25
f 22/89/26 23/90/26 29/91/26 28/92/26
f 23/93/27 24/94/27 30/95/27 29/96/27
f 24/97/28 25/98/28 31/99/28 30/100/28
f 25/101/29 26/102/29 32/103/29 31/104/29
f 26/105/30 21/106/30 27/107/30 32/108/30
f 27/109/31 28/110/31 34/111/31 33/112/31
f 28/113/32 29/114/32 35/115/32 34/116/32
f 29/117/33 30/118/33 36/119/33 35/120/33
f 30/121/34 31/122/34 37/123/34 36/124/34
f 31/125/35 32/126/35 38/127/35 37/128/35
f 32/129/36 27/130/36 33/131/36 38/132/36
f 35/133/37 7/134/37 9/135/37 34/136/37
f 11/137/38 33/138/38 34/139/38 9/140/38
f 7/141/39 35/142/39 36/143/39 5/144/39
f 5/145/40 36/146/40 37/147/40 3/148/40
f 13/149/41 38/150/41 33/151/41 11/152/41
f 3/153/42 37/154/42 38/155/42 13/156/42
f 16/157/43 39/158/43 40/159/43 17/160/43
f 15/161/44 41/162/44 39/163/44 16/164/44
f 20/165/45 42/166/45 41/167/45 15/168/45
f 19/169/46 43/170/46 42/171/46 20/172/46
f 18/173/47 44/174/47 43/175/47 19/176/47
f 17/177/48 40/178/48 44/179/48 18/180/48
f 39/181/49 41/182/49 42/183/49 43/184/49
f 43/185/50 44/186/50 40/187/50 39/188/50
o icosphere
v 0.01599755127280415 0.875 -0.06041794526006084
v -0.03656451411837678 0.9078581929206848 -0.03859566324663679
v 0.02385343114168406 0.9281656742095947 -0.02259811197383264
v -0.02385343114168406 0.9281656742095947 0.02259811197383264
v 0.03656451411837678 0.9078581929206848 0.03859566324663679
v 0.061193775220469426 0.875 -0.012711082976692718
v -0.061193775220469426 0.875 0.012711082976692718
v -0.03656451411837678 0.8421418070793152 -0.03859566324663679
v 0.02385343114168406 0.8218343257904053 -0.02259811197383264
v 0.03656451411837678 0.8421418070793152 0.03859566324663679
v -0.01599755127280415 0.875 0.06041794526006084
v -0.02385343114168406 0.8218343257904053 0.02259811197383264
vt 0.15625 0.9358931423337057
vt 0.18470610742756777 0.9523249037153096
vt 0.15625 0.96875
vt 0.12639758857798344 0.7483921020897848
vt 0.15485241142201656 0.7648226989137841
vt 0.12639758857798344 0.78125
vt 0.25139758857798344 0.84375
vt 0.25139758857798344 0.8108921020897848
vt 0.27985241142201656 0.8273226989137841
vt 0.1233937397458167 0.84375
vt 0.1398246050644173 0.815293375166523
vt 0.15625 0.84375
vt 0.28264758857798344 0.9210694031760007
vt 0.31110241142201656 0.9046421020897848
vt 0.31110241142201656 0.9375
vt 0.2171437397458167 0.9375
vt 0.2335746050644173 0.909043375166523
vt 0.25 0.9375
vt 0.25 0.71875
vt 0.2664305968239993 0.6902951771559669
vt 0.2828578979102152 0.71875
vt 0.12639758857798344 0.6891078979102152
vt 0.12639758857798344 0.65625
vt 0.15485241142201656 0.6726805968239993
vt 0.3273194031760007 0.75
vt 0.3108921020897848 0.7215451771559669
vt 0.34375 0.7215451771559669
vt 0.1875 1
vt 0.1875 0.9671431423337057
vt 0.21595610742756777 0.9835749037153096
vt 0.21875 0.8453568576662943
vt 0.19029389257243223 0.8289250962846904
vt 0.21875 0.8125
vt 0.27985241142201656 0.7516078979102152
vt 0.25139758857798344 0.7351773010862159
vt 0.27985241142201656 0.71875
vt 0.31110241142201656 0.9375
vt 0.31110241142201656 0.9703578979102152
vt 0.28264758857798344 0.9539273010862159
vt 0.1266062602541833 0.78125
vt 0.11017539493558272 0.809706624833477
vt 0.09375 0.78125
vt 0.31110241142201656 0.8289305968239993
vt 0.28264758857798344 0.8453578979102152
vt 0.28264758857798344 0.8125
vt 0.375 0.9715451771559669
vt 0.3585694031760007 1
vt 0.3421421020897848 0.9715451771559669
vt 0.2203562602541833 0.875
vt 0.2039253949355827 0.903456624833477
vt 0.1875 0.875
vt 0.21875 0.75
vt 0.21875 0.7828568576662943
vt 0.19029389257243223 0.7664250962846904
vt 0.3289305968239993 0.9402951771559669
vt 0.3453578979102152 0.96875
vt 0.3125 0.96875
vt 0.31110241142201656 0.7796421020897848
vt 0.31110241142201656 0.8125
vt 0.28264758857798344 0.7960694031760007
vn 0.02205717341873864 0.5773502691896257 -0.8161985957886981
vn -0.24540320362921847 0.9341723544197511 -0.25903528695213585
vn 0.24540320362921847 0.9341723544197511 0.25903528695213585
vn 0.8161985957886981 0.5773502691896257 0.02205717341873864
vn 0.6781631596236913 0.3568221016667254 -0.6424739035099816
vn -0.8161985957886981 0.5773502691896257 -0.02205717341873864
vn -0.3834386165578457 0 -0.9235663632529096
vn 0.6781631596236913 -0.3568221016667254 -0.6424739035099816
vn 0.9015091904621173 0 0.43275995599447287
vn -0.02205717341873864 0.5773502691896257 0.8161985957886981
vn -0.8161985957886981 -0.5773502691896257 -0.02205717341873864
vn -0.24540320362921847 -0.9341723544197511 -0.25903528695213585
vn 0.24540320362921847 -0.9341723544197511 0.25903528695213585
vn -0.02205717341873864 -0.5773502691896257 0.8161985957886981
vn -0.6781631596236913 -0.3568221016667254 0.6424739035099816
vn -0.9015091904621173 0 -0.43275995599447287
vn 0.02205717341873864 -0.5773502691896257 -0.8161985957886981
vn 0.8161985957886981 -0.5773502691896257 0.02205717341873864
vn 0.3834386165578457 0 0.9235663632529096
vn -0.6781631596236913 0.3568221016667254 0.6424739035099816
usemtl m_5d5f593a-32ff-4e1c-1e85-3dd4ee60738a
f 45/189/51 46/190/51 47/191/51
f 46/192/52 48/193/52 47/194/52
f 48/195/53 49/196/53 47/197/53
f 49/198/54 50/199/54 47/200/54
f 50/201/55 45/202/55 47/203/55
f 46/204/56 51/205/56 48/206/56
f 45/207/57 52/208/57 46/209/57
f 50/210/58 53/211/58 45/212/58
f 49/213/59 54/214/59 50/215/59
f 48/216/60 55/217/60 49/218/60
f 51/219/61 52/220/61 56/221/61
f 52/222/62 53/223/62 56/224/62
f 53/225/63 54/226/63 56/227/63
f 54/228/64 55/229/64 56/230/64
f 55/231/65 51/232/65 56/233/65
f 51/234/66 46/235/66 52/236/66
f 52/237/67 45/238/67 53/239/67
f 53/240/68 50/241/68 54/242/68
f 54/243/69 49/244/69 55/245/69
f 55/246/70 48/247/70 51/248/70