# Made in Blockbench 5.2.1
mtllib glyph_stone_1.mtl

o mesh
v 0.5 0 0.125
v 0.5 0 -0.125
v -0.5 1.5 0.125
v -0.5 1.5 -0.125
v -0.5 0 0.125
v -0.5 0 -0.125
v 0.5 0 0
v -0.5 0 0
v -0.5 1.5 0
v 0.375 1.5 -0.125
v 0.375 0 -0.125
v 0.375 0 0
v 0.375 0 0.125
v 0.375 1.5 0.125
v 0.375 1.5 0
v 0.5 1.375 -0.125
v 0.375 1.375 -0.125
v -0.5 1.375 -0.125
v -0.5 1.375 0
v -0.5 1.375 0.125
v 0.375 1.375 0.125
v 0.5 1.375 0.125
v 0.5 1.375 0
vt 0.109375 0.265625
vt 0.109375 0.609375
vt 0.078125 0.609375
vt 0.078125 0.265625
vt 0.0625 0.234375
vt 0.0625 0.578125
vt 0.03125 0.578125
vt 0.03125 0.234375
vt 0.40625 0.609375
vt 0.375 0.609375
vt 0.375 0.578125
vt 0.40625 0.578125
vt 0.25 0.625
vt 0.25 0.96875
vt 0.21875 0.96875
vt 0.21875 0.625
vt 0.296875 0.625
vt 0.296875 0.96875
vt 0.265625 0.96875
vt 0.265625 0.625
vt 0.140625 0.265625
vt 0.140625 0.609375
vt 0.109375 0.609375
vt 0.109375 0.265625
vt 0.40625 0.578125
vt 0.375 0.578125
vt 0.375 0.546875
vt 0.40625 0.546875
vt 0.03125 0.234375
vt 0.03125 0.578125
vt 0 0.578125
vt 0 0.234375
vt 0.515625 0.625
vt 0.515625 0.96875
vt 0.296875 0.96875
vt 0.296875 0.625
vt 0.15625 0.546875
vt 0.375 0.546875
vt 0.375 0.578125
vt 0.15625 0.578125
vt 0.15625 0.578125
vt 0.375 0.578125
vt 0.375 0.609375
vt 0.15625 0.609375
vt 0.21875 0.625
vt 0.21875 0.96875
vt 0 0.96875
vt 0 0.625
vt 0.421875 0.546875
vt 0.640625 0.546875
vt 0.640625 0.578125
vt 0.421875 0.578125
vt 0.421875 0.578125
vt 0.640625 0.578125
vt 0.640625 0.609375
vt 0.421875 0.609375
vt 0.296875 1
vt 0.296875 0.96875
vt 0.515625 0.96875
vt 0.515625 1
vt 0 0.609375
vt 0 0.578125
vt 0.03125 0.578125
vt 0.03125 0.609375
vt 0.03125 0.609375
vt 0.03125 0.578125
vt 0.0625 0.578125
vt 0.0625 0.609375
vt 0 1
vt 0 0.96875
vt 0.21875 0.96875
vt 0.21875 1
vt 0.1875 0.48705624999999997
vt 0.1875 0.53125
vt 0.15625 0.53125
vt 0.15625 0.48705624999999997
vt 0.21875 0.48705624999999997
vt 0.21875 0.53125
vt 0.1875 0.53125
vt 0.1875 0.48705624999999997
vt 0.296875 0.96875
vt 0.296875 1
vt 0.265625 0.96875
vt 0.25 0.96875
vt 0.21875 1
vt 0.21875 0.96875
vn 1 0 0
vn -1 0 0
vn 0 -1 0
vn 0 0 1
vn 0 0 -1
vn 1 0 0
vn 0 -1 0
vn -1 0 0
vn 0 0 -1
vn 0 -1 0
vn 0 -1 0
vn 0 0 1
vn 0 1 0
vn 0 1 0
vn 0 0 -1
vn -1 0 0
vn -1 0 0
vn 0 0 1
vn 0.7071067811865476 0.7071067811865476 0
vn 0.7071067811865476 0.7071067811865476 0
vn 0 0 -1
vn 0 0 1
usemtl m_3e573729-e9ec-a4a5-5723-f3481933d5b0
f 7/1/1 23/2/1 22/3/1 1/4/1
f 5/5/2 20/6/2 19/7/2 8/8/2
f 1/9/3 13/10/3 12/11/3 7/12/3
f 1/13/4 22/14/4 21/15/4 13/16/4
f 11/17/5 17/18/5 16/19/5 2/20/5
f 2/21/6 16/22/6 23/23/6 7/24/6
f 7/25/7 12/26/7 11/27/7 2/28/7
f 8/29/8 19/30/8 18/31/8 6/32/8
f 6/33/9 18/34/9 17/35/9 11/36/9
f 6/37/10 11/38/10 12/39/10 8/40/10
f 8/41/11 12/42/11 13/43/11 5/44/11
f 13/45/12 21/46/12 20/47/12 5/48/12
f 3/49/13 14/50/13 15/51/13 9/52/13
f 9/53/14 15/54/14 10/55/14 4/56/14
f 10/57/15 17/58/15 18/59/15 4/60/15
f 4/61/16 18/62/16 19/63/16 9/64/16
f 9/65/17 19/66/17 20/67/17 3/68/17
f 3/69/18 20/70/18 21/71/18 14/72/18
f 23/73/19 15/74/19 14/75/19 22/76/19
f 16/77/20 10/78/20 15/79/20 23/80/20
f 17/81/21 10/82/21 16/83/21
f 22/84/22 14/85/22 21/86/22