# Made in Blockbench 5.2.1
mtllib rock1.mtl

o beveled_cuboid
v 0.375 0.5 0.375
v 0.375 0.5 -0.375
v -0.25 0.49998750000006253 0.25000000062500005
v -0.375 0.5 -0.375
v 0.375 0 0.375
v 0.375 0 -0.375
v -0.25 -0.000012499999937493067 0.25000000062500005
v -0.375 0 -0.375
v -0.36741747852752227 0.125 0.2424174785275223
v -0.36741747852752227 0.375 0.2424174785275223
v -0.5 0.125 -0.375
v -0.5 0.375 -0.375
v 0.5 0.125 0.375
v 0.5 0.375 0.375
v 0.5 0.125 -0.375
v 0.5 0.375 -0.375
v 0.375 0.125 -0.5
v 0.375 0.375 -0.5
v -0.375 0.125 -0.5
v -0.375 0.375 -0.5
v 0.375 0.125 0.5
v 0.375 0.375 0.5
v -0.2424174785275223 0.125 0.36741747852752227
v -0.2424174785275223 0.375 0.36741747852752227
vt 0.1875 0.734375
vt 0 0.734375
vt 0 0.671875
vt 0.1875 0.671875
vt 0.1578734375 0.844207706744522
vt 0.1578734375 0.906707706744522
vt 0 0.906707706744522
vt 0 0.844207706744522
vt 0.390625 0.609375
vt 0.390625 0.796875
vt 0.203125 0.796875
vt 0.234375 0.640625
vt 0.21875 0.8125
vt 0.40625 0.8125
vt 0.40625 1
vt 0.25 0.96875
vt 0.359375 0.53125
vt 0.359375 0.59375
vt 0.203125 0.59375
vt 0.203125 0.53125
vt 0.1875 0.65625
vt 0 0.65625
vt 0 0.59375
vt 0.1875 0.59375
vt 0.6363240210071653 0.671875
vt 0.44882402100716534 0.671875
vt 0.44882402100716534 0.62768125
vt 0.6363240210071653 0.62768125
vt 0.15787319778915815 0.9067073076671595
vt 0.1799703125 0.9434952067445219
vt 0.030979920269994146 1
vt 0.009742142426175174 0.9612786501103574
vt 0.5873475792200737 0.9562342548267159
vt 0.581220312530643 1
vt 0.421875 1
vt 0.4294913598321073 0.9577967256236718
vt 0.6328125 0.796875
vt 0.4453125 0.796875
vt 0.4453125 0.75268125
vt 0.6328125 0.75268125
vt 0.44882402100716534 0.7316953125
vt 0.44882402100716534 0.6875
vt 0.6363240210071653 0.6875
vt 0.6363240210071653 0.7316953125
vt 0.030978964394353145 0.7509160906282064
vt 0.1799703125 0.807413956744522
vt 0.1578738667725956 0.8442069919579938
vt 0.009740564700701712 0.7896370994408941
vt 0 0.53125
vt 0.15934375006894735 0.53125
vt 0.16547316258897118 0.578125
vt 0.007615304146415633 0.5765655812880596
vt 0.4296875 0.6066953125
vt 0.4296875 0.5625
vt 0.6171875 0.5625
vt 0.6171875 0.6066953125
vt 0.421875 0.875
vt 0.46875 0.875
vt 0.46875 0.9375
vt 0.421875 0.9375
vt 0.375 0.546875
vt 0.375 0.484375
vt 0.421875 0.484375
vt 0.421875 0.546875
vt 0.4375 0.546875
vt 0.4375 0.484375
vt 0.484375 0.484375
vt 0.484375 0.546875
vt 0.1578734375 0.844207706744522
vt 0.2020671875 0.844207706744522
vt 0.2020671875 0.906707706744522
vt 0.1578734375 0.906707706744522
vt 0.44882402100716534 0.6875
vt 0.44882402100716534 0.7316942066659424
vt 0.41055097899283466 0.7095975599965543
vt 0.1799703125 0.807413956744522
vt 0.2020671875 0.844207706744522
vt 0.1578734375 0.844207706744522
vt 0.4296875 0.5625
vt 0.4296875 0.6066942066659424
vt 0.3914144579856694 0.5845975599965543
vt 0.6171875 0.5625
vt 0.6554605420143307 0.5845975599965543
vt 0.6171875 0.6066942066659424
vt 0.44882402100716534 0.671875
vt 0.41055097899283466 0.6497774400034457
vt 0.4488240210071653 0.6276807933340576
vt 0.1799703125 0.9434952067445219
vt 0.1578734375 0.906707706744522
vt 0.2020671875 0.906707706744522
vt 0.4453125 0.796875
vt 0.4070394579856694 0.7747774400034457
vt 0.4453125 0.7526807933340576
vt 0.6328125 0.796875
vt 0.6328125 0.7526807933340576
vt 0.6710855420143307 0.7747774400034457
vn 1 0 0
vn -0.9777118783283416 0 0.20995114425900652
vn 0 1 0
vn 0 -1 0
vn -0.20995114425900652 0 0.9777118783283416
vn 0 0 -1
vn 0.7071067811865476 0.7071067811865476 0
vn -0.7254969477176237 0.6727528827335493 0.14511284445599928
vn -0.140041735912064 0.7001386691944446 0.7001386691944446
vn 0 0.7071067811865476 -0.7071067811865476
vn 0.7071067811865476 -0.7071067811865476 0
vn -0.725564651642063 -0.6726827470648439 0.14509947652843908
vn -0.14001427943995987 -0.7001414148416407 0.7001414148416407
vn 0 -0.7071067811865476 -0.7071067811865476
vn 0.7071067811865476 0 -0.7071067811865476
vn 0.7071067811865476 0 0.7071067811865476
vn -0.7071067811865476 0 -0.7071067811865476
vn -0.7071067811865476 0 0.7071067811865476
vn 0.5773502691896258 -0.5773502691896258 0.5773502691896258
vn -0.6006332590913555 -0.5277114515969815 0.6006332590913555
vn 0.5773502691896258 -0.5773502691896258 -0.5773502691896258
vn -0.5773502691896258 -0.5773502691896258 -0.5773502691896258
vn 0.5773502691896258 0.5773502691896258 0.5773502691896258
vn -0.6005998024005359 0.5277876037885644 0.6005998024005359
vn 0.5773502691896258 0.5773502691896258 -0.5773502691896258
vn -0.5773502691896258 0.5773502691896258 -0.5773502691896258
usemtl m_2ceb537b-09c2-27aa-1366-0a91ecbef661
f 16/1/1 14/2/1 13/3/1 15/4/1
f 9/5/2 10/6/2 12/7/2 11/8/2
f 1/9/3 2/10/3 4/11/3 3/12/3
f 8/13/4 6/14/4 5/15/4 7/16/4
f 21/17/5 22/18/5 24/19/5 23/20/5
f 20/21/6 18/22/6 17/23/6 19/24/6
f 2/25/7 1/26/7 14/27/7 16/28/7
f 10/29/8 3/30/8 4/31/8 12/32/8
f 22/33/9 1/34/9 3/35/9 24/36/9
f 4/37/10 2/38/10 18/39/10 20/40/10
f 13/41/11 5/42/11 6/43/11 15/44/11
f 8/45/12 7/46/12 9/47/12 11/48/12
f 7/49/13 5/50/13 21/51/13 23/52/13
f 17/53/14 6/54/14 8/55/14 19/56/14
f 15/57/15 17/58/15 18/59/15 16/60/15
f 22/61/16 21/62/16 13/63/16 14/64/16
f 20/65/17 19/66/17 11/67/17 12/68/17
f 9/69/18 23/70/18 24/71/18 10/72/18
f 5/73/19 13/74/19 21/75/19
f 7/76/20 23/77/20 9/78/20
f 6/79/21 17/80/21 15/81/21
f 8/82/22 11/83/22 19/84/22
f 1/85/23 22/86/23 14/87/23
f 3/88/24 10/89/24 24/90/24
f 2/91/25 16/92/25 18/93/25
f 4/94/26 20/95/26 12/96/26