# Made in Blockbench 5.2.1
mtllib standing_stone_1.mtl

o beveled_cuboid
v 0.4375 2 0.4375
v 0.4375 2 -0.4375
v -0.4375 2 0.4375
v -0.4375 2 -0.4375
v 0.4375 0 0.4375
v 0.4375 0 -0.4375
v -0.4375 0 0.4375
v -0.4375 0 -0.4375
v -0.5 0.0625 0.4375
v -0.5 1.9375 0.4375
v -0.5 0.0625 -0.4375
v -0.5 1.9375 -0.4375
v 0.5 0.0625 0.4375
v 0.5 1.9375 0.4375
v 0.5 0.0625 -0.4375
v 0.5 1.9375 -0.4375
v 0.4375 0.0625 -0.5
v 0.4375 1.9375 -0.5
v -0.4375 0.0625 -0.5
v -0.4375 1.9375 -0.5
v 0.4375 0.0625 0.5
v 0.4375 1.9375 0.5
v -0.4375 0.0625 0.5
v -0.4375 1.9375 0.5
vt 0.109375 1
vt 0 1
vt 0 0.765625
vt 0.109375 0.765625
vt 0.2265625 0.6484375
vt 0.2265625 0.7578125
vt 0.1171875 0.7578125
vt 0.1171875 0.6484375
vt 0.234375 0.6484375
vt 0.34375 0.6484375
vt 0.34375 0.7578125
vt 0.234375 0.7578125
vt 0.2265625 0.765625
vt 0.2265625 1
vt 0.1171875 1
vt 0.1171875 0.765625
vt 0.4765625 0.9296875
vt 0.3671875 0.9296875
vt 0.3671875 0.921875
vt 0.4765625 0.921875
vt 0.4765625 0.90625
vt 0.4765625 0.9140625
vt 0.3671875 0.9140625
vt 0.3671875 0.90625
vt 0.48828125 0.9655140625
vt 0.48828125 0.9765625
vt 0.37890625 0.9765625
vt 0.37890625 0.9655140625
vt 0.48828125 0.953125
vt 0.37890625 0.953125
vt 0.37890625 0.9420765625
vt 0.48828125 0.9420765625
vt 0.3671875 0.8984375
vt 0.3671875 0.890625
vt 0.4765625 0.890625
vt 0.4765625 0.8984375
vt 0.3671875 0.875
vt 0.4765625 0.875
vt 0.4765625 0.8828125
vt 0.3671875 0.8828125
vt 0.16015625 0.625
vt 0.26953125 0.625
vt 0.26953125 0.63604921875
vt 0.16015625 0.63604921875
vt 0.37890625 0.99542421875
vt 0.37890625 0.984375
vt 0.48828125 0.984375
vt 0.48828125 0.99542421875
vt 0.3515625 0.765625
vt 0.359375 0.765625
vt 0.359375 1
vt 0.3515625 1
vt 0.3515625 0.7578125
vt 0.3515625 0.5234375
vt 0.359375 0.5234375
vt 0.359375 0.7578125
vt 0.1171875 0.40625
vt 0.125 0.40625
vt 0.125 0.640625
vt 0.1171875 0.640625
vt 0.26953125 0.625
vt 0.2790994128458747 0.6305238825615369
vt 0.26953125 0.6360482133758734
vt 0.16015625 0.625
vt 0.16015625 0.6360482133758734
vt 0.15058808715412528 0.6305238825615369
vt 0.37890625 0.984375
vt 0.37890625 0.9954232133758734
vt 0.3693380871541253 0.9898988825615368
vt 0.48828125 0.984375
vt 0.4978494128458747 0.9898988825615368
vt 0.48828125 0.9954232133758734
vt 0.48828125 0.9765625
vt 0.48828125 0.9655142866241266
vt 0.4978494128458747 0.9710386174384631
vt 0.37890625 0.9765625
vt 0.3693380871541253 0.9710386174384631
vt 0.37890625 0.9655142866241266
vt 0.37890625 0.953125
vt 0.3693380871541253 0.9476011174384631
vt 0.37890625 0.9420767866241266
vt 0.48828125 0.953125
vt 0.48828125 0.9420767866241266
vt 0.4978494128458747 0.9476011174384631
vt 0.34375 0.765625
vt 0.34375 1
vt 0.234375 1
vt 0.234375 0.765625
vt 0.109375 0.7578125
vt 0 0.7578125
vt 0 0.5234375
vt 0.109375 0.5234375
vt 0.1328125 0.640625
vt 0.1328125 0.40625
vt 0.140625 0.40625
vt 0.140625 0.640625
vn 1 0 0
vn 0 1 0
vn 0 -1 0
vn 0 0 1
vn 0.7071067811865476 0.7071067811865476 0
vn -0.7071067811865476 0.7071067811865476 0
vn 0 0.7071067811865476 0.7071067811865476
vn 0 0.7071067811865476 -0.7071067811865476
vn 0.7071067811865476 -0.7071067811865476 0
vn -0.7071067811865476 -0.7071067811865476 0
vn 0 -0.7071067811865476 0.7071067811865476
vn 0 -0.7071067811865476 -0.7071067811865476
vn 0.7071067811865476 0 -0.7071067811865476
vn 0.7071067811865476 0 0.7071067811865476
vn -0.7071067811865476 0 0.7071067811865476
vn 0.5773502691896258 -0.5773502691896258 0.5773502691896258
vn -0.5773502691896258 -0.5773502691896258 0.5773502691896258
vn 0.5773502691896258 -0.5773502691896258 -0.5773502691896258
vn -0.5773502691896258 -0.5773502691896258 -0.5773502691896258
vn 0.5773502691896258 0.5773502691896258 0.5773502691896258
vn -0.5773502691896258 0.5773502691896258 0.5773502691896258
vn 0.5773502691896258 0.5773502691896258 -0.5773502691896258
vn -0.5773502691896258 0.5773502691896258 -0.5773502691896258
vn -1 0 0
vn 0 0 -1
vn -0.7071067811865476 0 -0.7071067811865476
usemtl m_45f9ebe1-7e81-3faf-b1f8-44a341792ef4
f 16/1/1 14/2/1 13/3/1 15/4/1
f 1/5/2 2/6/2 4/7/2 3/8/2
f 8/9/3 6/10/3 5/11/3 7/12/3
f 21/13/4 22/14/4 24/15/4 23/16/4
f 2/17/5 1/18/5 14/19/5 16/20/5
f 10/21/6 3/22/6 4/23/6 12/24/6
f 22/25/7 1/26/7 3/27/7 24/28/7
f 4/29/8 2/30/8 18/31/8 20/32/8
f 13/33/9 5/34/9 6/35/9 15/36/9
f 8/37/10 7/38/10 9/39/10 11/40/10
f 7/41/11 5/42/11 21/43/11 23/44/11
f 17/45/12 6/46/12 8/47/12 19/48/12
f 15/49/13 17/50/13 18/51/13 16/52/13
f 22/53/14 21/54/14 13/55/14 14/56/14
f 9/57/15 23/58/15 24/59/15 10/60/15
f 5/61/16 13/62/16 21/63/16
f 7/64/17 23/65/17 9/66/17
f 6/67/18 17/68/18 15/69/18
f 8/70/19 11/71/19 19/72/19
f 1/73/20 22/74/20 14/75/20
f 3/76/21 10/77/21 24/78/21
f 2/79/22 16/80/22 18/81/22
f 4/82/23 20/83/23 12/84/23
f 9/85/24 10/86/24 12/87/24 11/88/24
f 20/89/25 18/90/25 17/91/25 19/92/25
f 20/93/26 19/94/26 11/95/26 12/96/26