# Made in Blockbench 5.2.1
mtllib stone_block_1.mtl

o beveled_cuboid
v 0.375 1 0.375
v 0.375 1 -0.375
v -0.375 1 0.375
v -0.375 1 -0.375
v 0.375 0 0.375
v 0.375 0 -0.375
v -0.375 0 0.375
v -0.375 0 -0.375
v -0.5 0.125 0.375
v -0.5 0.875 0.375
v -0.5 0.125 -0.375
v -0.5 0.875 -0.375
v 0.5 0.125 0.375
v 0.5 0.875 0.375
v 0.5 0.125 -0.375
v 0.5 0.875 -0.375
v 0.375 0.125 -0.5
v 0.375 0.875 -0.5
v -0.375 0.125 -0.5
v -0.375 0.875 -0.5
v 0.375 0.125 0.5
v 0.375 0.875 0.5
v -0.375 0.125 0.5
v -0.375 0.875 0.5
vt 0.1875 1
vt 0 1
vt 0 0.8125
vt 0.1875 0.8125
vt 0.1875 0.609375
vt 0.1875 0.796875
vt 0 0.796875
vt 0 0.609375
vt 0.390625 0.8125
vt 0.390625 1
vt 0.203125 1
vt 0.203125 0.8125
vt 0.203125 0.609375
vt 0.390625 0.609375
vt 0.390625 0.796875
vt 0.203125 0.796875
vt 0.1875 0.40625
vt 0.1875 0.59375
vt 0 0.59375
vt 0 0.40625
vt 0.59375 1
vt 0.40625 1
vt 0.40625 0.8125
vt 0.59375 0.8125
vt 0.390625 0.53125
vt 0.203125 0.53125
vt 0.203125 0.484375
vt 0.390625 0.484375
vt 0.59375 0.484375
vt 0.59375 0.53125
vt 0.40625 0.53125
vt 0.40625 0.484375
vt 0.4296875 0.5495546875
vt 0.4296875 0.59375
vt 0.2421875 0.59375
vt 0.2421875 0.5495546875
vt 0.6328125 0.796875
vt 0.4453125 0.796875
vt 0.4453125 0.7526796875
vt 0.6328125 0.7526796875
vt 0.484375 0.609375
vt 0.484375 0.5625
vt 0.671875 0.5625
vt 0.671875 0.609375
vt 0.203125 0.421875
vt 0.390625 0.421875
vt 0.390625 0.46875
vt 0.203125 0.46875
vt 0.4453125 0.6875
vt 0.6328125 0.6875
vt 0.6328125 0.7316953125
vt 0.4453125 0.7316953125
vt 0.4453125 0.6691953125
vt 0.4453125 0.625
vt 0.6328125 0.625
vt 0.6328125 0.6691953125
vt 0.40625 0.28125
vt 0.453125 0.28125
vt 0.453125 0.46875
vt 0.40625 0.46875
vt 0.46875 0.46875
vt 0.46875 0.28125
vt 0.515625 0.28125
vt 0.515625 0.46875
vt 0.53125 0.46875
vt 0.53125 0.28125
vt 0.578125 0.28125
vt 0.578125 0.46875
vt 0.203125 0.21875
vt 0.25 0.21875
vt 0.25 0.40625
vt 0.203125 0.40625
vt 0.6328125 0.6875
vt 0.6710855420143307 0.7095975599965543
vt 0.6328125 0.7316942066659424
vt 0.4453125 0.6875
vt 0.4453125 0.7316942066659424
vt 0.4070394579856694 0.7095975599965543
vt 0.4453125 0.625
vt 0.4453125 0.6691942066659424
vt 0.4070394579856694 0.6470975599965543
vt 0.6328125 0.625
vt 0.6710855420143307 0.6470975599965543
vt 0.6328125 0.6691942066659424
vt 0.4296875 0.59375
vt 0.4296875 0.5495557933340576
vt 0.4679605420143306 0.5716524400034457
vt 0.2421875 0.59375
vt 0.20391445798566937 0.5716524400034457
vt 0.24218749999999997 0.5495557933340576
vt 0.4453125 0.796875
vt 0.4070394579856694 0.7747774400034457
vt 0.4453125 0.7526807933340576
vt 0.6328125 0.796875
vt 0.6328125 0.7526807933340576
vt 0.6710855420143307 0.7747774400034457
vn 1 0 0
vn -1 0 0
vn 0 1 0
vn 0 -1 0
vn 0 0 1
vn 0 0 -1
vn 0.7071067811865476 0.7071067811865476 0
vn -0.7071067811865476 0.7071067811865476 0
vn 0 0.7071067811865476 0.7071067811865476
vn 0 0.7071067811865476 -0.7071067811865476
vn 0.7071067811865476 -0.7071067811865476 0
vn -0.7071067811865476 -0.7071067811865476 0
vn 0 -0.7071067811865476 0.7071067811865476
vn 0 -0.7071067811865476 -0.7071067811865476
vn 0.7071067811865476 0 -0.7071067811865476
vn 0.7071067811865476 0 0.7071067811865476
vn -0.7071067811865476 0 -0.7071067811865476
vn -0.7071067811865476 0 0.7071067811865476
vn 0.5773502691896258 -0.5773502691896258 0.5773502691896258
vn -0.5773502691896258 -0.5773502691896258 0.5773502691896258
vn 0.5773502691896258 -0.5773502691896258 -0.5773502691896258
vn -0.5773502691896258 -0.5773502691896258 -0.5773502691896258
vn 0.5773502691896258 0.5773502691896258 0.5773502691896258
vn -0.5773502691896258 0.5773502691896258 0.5773502691896258
vn 0.5773502691896258 0.5773502691896258 -0.5773502691896258
vn -0.5773502691896258 0.5773502691896258 -0.5773502691896258
usemtl m_f2914e12-58aa-ca51-38ce-2b3826353c31
f 16/1/1 14/2/1 13/3/1 15/4/1
f 9/5/2 10/6/2 12/7/2 11/8/2
f 1/9/3 2/10/3 4/11/3 3/12/3
f 8/13/4 6/14/4 5/15/4 7/16/4
f 21/17/5 22/18/5 24/19/5 23/20/5
f 20/21/6 18/22/6 17/23/6 19/24/6
f 2/25/7 1/26/7 14/27/7 16/28/7
f 10/29/8 3/30/8 4/31/8 12/32/8
f 22/33/9 1/34/9 3/35/9 24/36/9
f 4/37/10 2/38/10 18/39/10 20/40/10
f 13/41/11 5/42/11 6/43/11 15/44/11
f 8/45/12 7/46/12 9/47/12 11/48/12
f 7/49/13 5/50/13 21/51/13 23/52/13
f 17/53/14 6/54/14 8/55/14 19/56/14
f 15/57/15 17/58/15 18/59/15 16/60/15
f 22/61/16 21/62/16 13/63/16 14/64/16
f 20/65/17 19/66/17 11/67/17 12/68/17
f 9/69/18 23/70/18 24/71/18 10/72/18
f 5/73/19 13/74/19 21/75/19
f 7/76/20 23/77/20 9/78/20
f 6/79/21 17/80/21 15/81/21
f 8/82/22 11/83/22 19/84/22
f 1/85/23 22/86/23 14/87/23
f 3/88/24 10/89/24 24/90/24
f 2/91/25 16/92/25 18/93/25
f 4/94/26 20/95/26 12/96/26