# Made in Blockbench 5.2.1
mtllib buildable_wood_wall.mtl

o mesh
v 0.0625 2 1
v 0.0625 2 -1
v 0.0625 0 1
v 0.0625 0 -1
v -0.0625 2 1
v -0.0625 2 -1
v -0.0625 0 1
v -0.0625 0 -1
v 0.1875 1.125 1
v 0.1875 1.125 -1
v 0.1875 0.875 1
v 0.1875 0.875 -1
v 0.0625 1.125 -1
v 0.0625 1.125 1
v 0.0625 0.875 1
v 0.0625 0.875 -1
vt 0.25 1
vt 0 1
vt 0 0.75
vt 0.25 0.75
vt 0.25 0.4921875
vt 0.25 0.7421875
vt 0 0.7421875
vt 0 0.4921875
vt 0.2578125 0.7109375
vt 0.2734375 0.7109375
vt 0.2734375 0.9609375
vt 0.2578125 0.9609375
vt 0.296875 0.7109375
vt 0.296875 0.9609375
vt 0.28125 0.9609375
vt 0.28125 0.7109375
vt 0.2734375 0.453125
vt 0.2734375 0.703125
vt 0.2578125 0.703125
vt 0.2578125 0.453125
vt 0.296875 0.703125
vt 0.28125 0.703125
vt 0.28125 0.453125
vt 0.296875 0.453125
vt 0.5078125 1
vt 0.2578125 1
vt 0.2578125 0.96875
vt 0.5078125 0.96875
vt 0.3203125 0.9609375
vt 0.3046875 0.9609375
vt 0.3046875 0.7109375
vt 0.3203125 0.7109375
vt 0.34375 0.9609375
vt 0.328125 0.9609375
vt 0.328125 0.9296875
vt 0.34375 0.9296875
vt 0.3203125 0.703125
vt 0.3046875 0.703125
vt 0.3046875 0.453125
vt 0.3203125 0.453125
vt 0.328125 0.890625
vt 0.34375 0.890625
vt 0.34375 0.921875
vt 0.328125 0.921875
vn 1 0 0
vn -1 0 0
vn 0 1 0
vn 0 -1 0
vn 0 0 1
vn 0 0 -1
vn 1 0 0
vn 0 1 0
vn 0 0 1
vn 0 -1 0
vn 0 0 -1
usemtl m_35ce8d83-36fd-57ae-a06c-447b1d63e1e0
f 2/1/1 1/2/1 3/3/1 4/4/1
f 7/5/2 5/6/2 6/7/2 8/8/2
f 5/9/3 1/10/3 2/11/3 6/12/3
f 4/13/4 3/14/4 7/15/4 8/16/4
f 3/17/5 1/18/5 5/19/5 7/20/5
f 6/21/6 2/22/6 4/23/6 8/24/6
f 10/25/7 9/26/7 11/27/7 12/28/7
f 10/29/8 13/30/8 14/31/8 9/32/8
f 9/33/9 14/34/9 15/35/9 11/36/9
f 11/37/10 15/38/10 16/39/10 12/40/10
f 12/41/11 16/42/11 13/43/11 10/44/11