# Blender 4.5.3 LTS
# www.blender.org
mtllib rock.mtl
o Cube
v -0.674546 -0.609752 0.889972
v -0.523901 0.666045 0.881385
v -0.824025 -0.788999 -0.865177
v -0.621917 0.541763 -0.612597
v 1.149453 -0.928404 0.667205
v 0.712015 0.641198 0.222515
v 0.706335 0.628788 -0.668334
v -0.831558 -0.947686 -0.049153
v -0.826898 0.124060 0.853447
v -0.027177 0.762338 -0.818306
v 0.815568 -0.452340 -1.147922
v 0.743230 -1.371364 0.077252
v 0.133775 -0.979737 1.245340
v -0.221301 -0.281741 -1.133812
v 0.990588 -0.130640 -0.184975
v -0.330221 -1.475590 0.405678
v 0.017156 0.982477 -0.157112
v -0.871531 -0.879979 -0.491076
v -0.694762 0.441736 0.918570
v -0.607836 0.764369 0.622831
v -0.667633 0.714693 -0.195862
v -0.834540 -0.542494 -1.015636
v 0.583034 -1.008165 -0.908245
v -0.513868 -0.926571 -0.898265
v -0.320856 0.700702 -0.767525
v 0.307739 0.768709 -0.772999
v 0.894889 -0.714712 -1.052915
v 1.055566 -1.185525 0.472106
v 0.837833 -1.132787 -0.479796
v 0.798779 0.764927 -0.417205
v 0.783611 0.728337 -0.044663
v 1.065027 -0.603227 0.716445
v -0.345026 -0.826701 1.189993
v 0.790813 -1.031172 1.003790
v 0.394408 0.722577 0.423433
v -0.331884 0.770207 0.788403
v -0.923391 0.036296 0.500724
v -0.607752 -0.311228 -1.146117
v -0.102657 0.367299 -0.989726
v 0.381356 -0.392184 -1.196872
v 0.993115 -0.121289 0.304077
v 0.997622 -0.875568 -0.069773
v -0.039533 -0.434697 1.286157
v 0.172769 -1.543415 0.264328
v -0.157587 -1.345088 0.910313
v -0.634196 -1.261791 0.178634
v -0.011164 0.947375 -0.561333
v -0.381816 0.926336 0.019730
v -0.032323 0.924378 0.251607
v 0.509987 0.916827 -0.214179
v -0.957558 -0.516928 -0.525159
v 0.480917 -0.758298 -1.159685
v 1.178623 -0.644673 0.311026
v -0.389739 0.471341 1.046735
v -0.529650 -1.076188 -0.443816
v -0.561877 -1.149530 0.733800
v -0.896656 -0.550928 0.323116
v -0.884646 0.300562 0.385306
v -0.967784 -0.659457 -0.336533
v -0.421726 -0.792742 -1.055375
v 0.674273 -0.842180 -1.101220
v 0.909411 0.180204 0.262559
v 1.129075 -0.926473 0.228896
v 0.819377 -0.759679 0.990916
v -0.562815 0.337914 1.055905
v -0.289388 -0.507522 1.261471
v -0.653136 -0.982679 -0.642730
v 0.139592 -1.453402 -0.145186
v 0.147029 -1.466658 0.686761
v -0.705025 -1.115276 0.473142
v 0.580084 0.906004 -0.362530
v -0.254468 0.878903 -0.577574
v -0.274078 0.932191 0.228807
v 0.566721 0.871756 -0.055602
v -0.887877 -0.188967 0.652875
v -0.736580 0.572499 0.710683
v -0.796827 0.503960 -0.156726
v -0.915618 -0.422503 -0.759780
v -0.691106 -0.548121 -1.141443
v 0.190068 0.462894 -0.932556
v 0.252476 -0.645764 -1.191595
v 0.986836 -0.539243 -0.845178
v 0.913465 0.538560 -0.384569
v 0.898980 0.512121 -0.071409
v 1.134226 -0.449834 0.432722
v 0.253213 -0.341121 1.156118
v -0.258595 0.604029 0.947394
v -0.613053 -0.141590 1.069788
v -0.471785 -1.259858 -0.169749
v 0.623164 -1.184302 -0.629894
v 0.807787 -1.239887 0.794149
v -0.384916 -1.140742 0.997922
v 0.258964 0.934875 -0.586127
v -0.491171 0.860702 -0.193451
v -0.442620 0.846925 0.605479
v 0.244246 0.872196 0.267775
vn 0.2608 -0.9266 -0.2709
vn 0.0974 0.9940 -0.0506
vn -0.9964 -0.0316 0.0782
vn -0.2334 0.9661 -0.1100
vn -0.6975 -0.0678 0.7134
vn 0.4007 0.7487 -0.5281
vn -0.0662 -0.6861 -0.7245
vn -0.5178 0.8546 0.0380
vn -0.0892 0.3074 -0.9474
vn -0.4886 -0.8496 -0.1988
vn -0.2307 0.1630 0.9593
vn 0.2648 -0.2088 -0.9414
vn -0.9027 -0.2143 0.3731
vn -0.9539 -0.2103 -0.2141
vn -0.9821 0.1717 -0.0770
vn 0.4871 -0.7295 -0.4802
vn 0.1714 0.9398 0.2956
vn 0.9958 0.0920 -0.0035
vn 0.9136 -0.0508 -0.4034
vn 0.9710 -0.2347 -0.0462
vn 0.7585 -0.5274 -0.3828
vn 0.4490 0.7978 0.4025
vn 0.7060 0.0229 0.7079
vn 0.8840 0.4606 0.0806
vn -0.3804 0.4690 0.7970
vn -0.1237 -0.1444 0.9818
vn -0.0934 0.7871 -0.6097
vn 0.4903 0.4423 0.7510
vn -0.9349 0.2580 0.2436
vn 0.3465 0.0524 0.9366
vn -0.1202 -0.9646 0.2347
vn -0.3966 -0.5848 -0.7076
vn -0.8589 0.5117 0.0232
vn -0.9302 -0.3510 0.1072
vn 0.3276 -0.9321 0.1546
vn 0.8452 0.2638 -0.4649
vn -0.0536 0.9946 0.0892
vn 0.5350 0.8376 0.1106
vn -0.6464 0.3859 -0.6582
vn -0.6432 0.6043 0.4702
vn 0.1687 -0.7307 0.6615
vn 0.2349 0.3802 -0.8946
vn -0.0239 -0.0795 -0.9965
vn -0.5916 -0.7440 0.3105
vn -0.6030 0.7054 -0.3724
vn 0.9417 0.3332 -0.0468
vn 0.9554 0.1539 0.2520
vn 0.9196 -0.3744 -0.1186
vn -0.0337 0.6573 0.7529
vn -0.1506 -0.8635 -0.4813
vn -0.6802 -0.6633 -0.3120
vn 0.6785 -0.5424 0.4953
vn -0.2282 -0.5249 0.8200
vn -0.7623 -0.2991 0.5740
vn -0.8749 0.3400 -0.3448
vn -0.2947 0.8367 0.4617
vn 0.8483 0.3937 0.3540
vn -0.2910 -0.9258 -0.2412
vt 0.289101 0.585417
vt 0.332851 0.541667
vt 0.373425 0.562500
vt 0.357323 0.625000
vt 0.297557 0.626215
vt 0.664753 0.584892
vt 0.708156 0.539753
vt 0.749528 0.549296
vt 0.743056 0.618056
vt 0.674296 0.624528
vt 0.499528 0.062972
vt 0.437028 0.188262
vt 0.414753 0.166844
vt 0.414753 0.083510
vt 0.458156 0.041844
vt 0.791490 0.539753
vt 0.833156 0.583156
vt 0.812028 0.624528
vt 0.416667 0.917149
vt 0.458333 0.960552
vt 0.541667 0.960552
vt 0.562500 1.000000
vt 0.500000 1.000000
vt 0.375000 1.000000
vt 0.375000 0.937500
vt 0.625000 0.500000
vt 0.687500 0.500000
vt 0.625000 0.575232
vt 0.416844 0.333156
vt 0.458163 0.416142
vt 0.436574 0.436574
vt 0.416319 0.457986
vt 0.375000 0.437500
vt 0.375000 0.312500
vt 0.875000 0.687500
vt 0.833333 0.708333
vt 0.791490 0.666490
vt 0.875000 0.562500
vt 0.500472 0.299296
vt 0.625000 0.312500
vt 0.625000 0.375000
vt 0.575704 0.374528
vt 0.585247 0.416490
vt 0.499257 0.436102
vt 0.506945 0.368056
vt 0.125000 0.500000
vt 0.187500 0.500000
vt 0.166667 0.541667
vt 0.187500 0.562789
vt 0.125000 0.625000
vt 0.125000 0.562500
vt 0.437500 0.876576
vt 0.562500 0.939076
vt 0.488333 0.488333
vt 0.436574 0.498785
vt 0.375000 0.000000
vt 0.500000 0.000000
vt 0.166319 0.667014
vt 0.186574 0.688426
vt 0.459892 0.210247
vt 0.450232 0.250000
vt 0.375000 0.250000
vt 0.375000 0.187500
vt 0.583156 0.166844
vt 0.541490 0.083510
vt 0.812500 0.750000
vt 0.687500 0.750000
vt 0.708156 0.708156
vt 0.664753 0.664753
vt 0.749528 0.687028
vt 0.585070 0.585069
vt 0.585070 0.664931
vt 0.541667 0.710552
vt 0.500000 0.701518
vt 0.500000 0.625000
vt 0.423483 0.625000
vt 0.457986 0.539583
vt 0.437211 0.687789
vt 0.414448 0.666667
vt 0.375000 0.750000
vt 0.373425 0.687500
vt 0.625000 0.750000
vt 0.625000 0.674769
vt 0.437500 0.751575
vt 0.416667 0.792149
vt 0.375000 0.812500
vt 0.625000 1.000000
vt 0.375000 0.875000
vt 0.750000 0.500000
vt 0.812500 0.500000
vt 0.583333 0.917149
vt 0.458333 0.836034
vt 0.625000 0.812500
vt 0.625000 0.937500
vt 0.562500 0.000000
vt 0.583333 0.041667
vt 0.238333 0.636667
vt 0.289101 0.667014
vt 0.248785 0.688426
vt 0.460247 0.289753
vt 0.625000 0.062500
vt 0.625000 0.187500
vt 0.186574 0.626215
vt 0.332851 0.708333
vt 0.625000 0.250000
vt 0.625000 0.000000
vt 0.312500 0.750000
vt 0.250000 0.750000
vt 0.625000 0.437500
vt 0.207986 0.708681
vt 0.875000 0.500000
vt 0.458333 0.710552
vt 0.312500 0.500000
vt 0.207986 0.585417
vt 0.187500 0.750000
vt 0.125000 0.750000
vt 0.875000 0.750000
s 0
f 68/1/1 90/2/1 29/3/1 12/4/1 44/5/1
f 71/6/2 93/7/2 47/8/2 17/9/2 50/10/2
f 37/11/3 51/12/3 59/13/3 57/14/3 75/15/3
f 72/16/4 94/17/4 48/18/4 17/9/4 47/8/4
f 66/19/5 88/20/5 65/21/5 19/22/5 9/23/5 1/24/5 33/25/5
f 7/26/6 26/27/6 93/7/6 71/6/6 30/28/6
f 60/29/7 81/30/7 52/31/7 61/32/7 23/33/7 24/34/7
f 20/35/8 95/36/8 73/37/8 48/18/8 94/17/8 21/38/8
f 38/39/9 25/40/9 10/41/9 39/42/9 80/43/9 40/44/9 14/45/9
f 3/46/10 24/47/10 67/48/10 55/49/10 8/50/10 18/51/10
f 65/21/11 88/20/11 66/19/11 43/52/11 54/53/11
f 11/54/12 27/55/12 61/32/12 52/31/12
f 1/56/13 9/57/13 37/11/13 75/15/13 57/14/13 70/58/13 56/59/13
f 51/12/14 78/60/14 22/61/14 3/62/14 18/63/14 59/13/14
f 77/64/15 78/60/15 51/12/15 37/11/15 58/65/15
f 27/55/16 29/3/16 90/2/16 23/33/16 61/32/16
f 73/37/17 95/36/17 36/66/17 35/67/17 96/68/17 74/69/17 50/10/17 17/9/17 49/70/17
f 83/71/18 84/72/18 62/73/18 41/74/18 15/75/18 42/76/18 82/77/18
f 15/75/19 53/78/19 63/79/19 42/76/19
f 5/80/20 28/81/20 63/79/20 53/78/20
f 12/4/21 42/76/21 63/79/21 28/81/21
f 74/69/22 96/68/22 35/67/22 6/82/22 31/83/22
f 5/80/23 32/84/23 64/85/23 34/86/23
f 30/28/24 31/83/24 84/72/24 83/71/24
f 2/87/25 19/22/25 65/21/25 54/53/25
f 13/88/26 43/52/26 66/19/26 33/25/26
f 47/8/27 93/7/27 26/27/27 10/89/27 25/90/27 72/16/27
f 87/91/28 54/53/28 43/52/28 86/92/28 64/85/28 32/84/28 6/82/28 35/93/28 36/94/28
f 9/57/29 19/95/29 76/96/29 58/65/29 37/11/29
f 64/85/30 86/92/30 43/52/30 13/88/30 34/86/30
f 16/97/31 44/5/31 69/98/31 45/99/31
f 3/62/32 22/61/32 79/100/32 60/29/32 24/34/32
f 20/101/33 21/102/33 77/64/33 58/65/33 76/96/33
f 57/14/34 59/13/34 18/63/34 8/50/34 46/103/34 70/58/34
f 12/4/35 28/81/35 91/104/35 69/98/35 44/5/35
f 7/26/36 30/28/36 83/71/36 82/77/36 27/55/36 11/54/36
f 17/9/37 48/18/37 73/37/37 49/70/37
f 50/10/38 74/69/38 31/83/38 30/28/38 71/6/38
f 4/105/39 25/40/39 38/39/39 79/100/39 22/61/39
f 2/106/40 20/101/40 76/96/40 19/95/40
f 69/98/41 91/104/41 34/107/41 13/108/41 45/99/41
f 11/54/42 40/44/42 80/43/42 39/42/42 10/41/42 26/109/42 7/26/42
f 60/29/43 79/100/43 38/39/43 14/45/43 40/44/43 11/54/43 52/31/43 81/30/43
f 16/97/44 45/99/44 92/110/44 56/59/44 70/58/44 46/103/44
f 4/111/45 21/38/45 94/17/45 72/16/45 25/90/45
f 15/75/46 41/74/46 85/112/46 53/78/46
f 5/80/47 53/78/47 85/112/47 32/84/47
f 27/55/48 82/77/48 42/76/48 12/4/48 29/3/48
f 2/87/49 54/53/49 87/91/49 36/94/49
f 23/113/50 90/2/50 68/1/50 89/114/50 55/49/50 67/48/50 24/47/50
f 8/50/51 55/49/51 89/114/51 46/103/51
f 5/80/52 34/107/52 91/104/52 28/81/52
f 13/108/53 33/115/53 92/110/53 45/99/53
f 1/116/54 56/59/54 92/110/54 33/115/54
f 77/64/55 21/102/55 4/105/55 22/61/55 78/60/55
f 2/117/56 36/66/56 95/36/56 20/35/56
f 62/73/57 84/72/57 31/83/57 6/82/57 32/84/57 85/112/57 41/74/57
f 16/97/58 46/103/58 89/114/58 68/1/58 44/5/58
