# Made in Blockbench 5.2.1
mtllib palm_tree_1.mtl

o cylinder
v 0 0 0
v 6.938893903907228e-18 2 -1.3877787807814457e-17
v 0.10355339059327377 0 0.25
v 0.05177669529663689 2 0.12499999999999997
v 0.25 0 0.10355339059327379
v 0.125 2 0.05177669529663688
v 0.25 0 -0.10355339059327376
v 0.125 2 -0.05177669529663689
v 0.1035533905932738 0 -0.25
v 0.05177669529663691 2 -0.125
v -0.10355339059327374 0 -0.25000000000000006
v -0.051776695296636865 2 -0.12500000000000003
v -0.24999999999999994 0 -0.10355339059327393
v -0.12499999999999996 2 -0.051776695296636976
v -0.24999999999999997 0 0.10355339059327383
v -0.12499999999999999 2 0.0517766952966369
v -0.10355339059327394 0 0.24999999999999994
v -0.05177669529663696 2 0.12499999999999996
vt 0.25 0.9816945312500001
vt 0.23169453125 1
vt 0.21875 0.96875
vt 0.2241109375 0.53125
vt 0.25 0.53125
vt 0.24352734375 0.78125
vt 0.23058359375 0.78125
vt 0.20959687500000002 0.8984375
vt 0.21875 0.907590625
vt 0.203125 0.9140625
vt 0.25 0.9558054687499999
vt 0.25 0.9816945312500001
vt 0.21875 0.96875
vt 0.08080546875 0.75
vt 0.10669453125 0.75
vt 0.100221875 1
vt 0.087278125 1
vt 0.21875 0.907590625
vt 0.21875 0.920534375
vt 0.203125 0.9140625
vt 0.23169453125 0.9375
vt 0.25 0.9558054687499999
vt 0.21875 0.96875
vt 0.15625 0.75
vt 0.1821390625 0.75
vt 0.17566640625 1
vt 0.16272265625 1
vt 0.21875 0.920534375
vt 0.20959687500000002 0.9296875
vt 0.203125 0.9140625
vt 0.20580546875 0.9375
vt 0.23169453125 0.9375
vt 0.21875 0.96875
vt 0.0026804687499999997 0.75
vt 0.028569531250000002 0.75
vt 0.022096875000000002 1
vt 0.009153125 1
vt 0.20959687500000002 0.9296875
vt 0.196653125 0.9296875
vt 0.203125 0.9140625
vt 0.1875 0.9558054687499999
vt 0.20580546875 0.9375
vt 0.21875 0.96875
vt 0.1928609375 0.640625
vt 0.21875 0.640625
vt 0.21227734375 0.890625
vt 0.19933359375 0.890625
vt 0.196653125 0.9296875
vt 0.1875 0.920534375
vt 0.203125 0.9140625
vt 0.1875 0.9816945312500001
vt 0.1875 0.9558054687499999
vt 0.21875 0.96875
vt 0.11986796875 0.75
vt 0.14575703125 0.75
vt 0.13928437500000002 1
vt 0.126340625 1
vt 0.1875 0.920534375
vt 0.1875 0.907590625
vt 0.203125 0.9140625
vt 0.20580546875 1
vt 0.1875 0.9816945312500001
vt 0.21875 0.96875
vt 0 0.4921875
vt 0.0258890625 0.4921875
vt 0.01941640625 0.7421875
vt 0.00647265625 0.7421875
vt 0.1875 0.907590625
vt 0.196653125 0.8984375
vt 0.203125 0.9140625
vt 0.23169453125 1
vt 0.20580546875 1
vt 0.21875 0.96875
vt 0.04174296875 0.75
vt 0.06763203125 0.75
vt 0.061159375 1
vt 0.048215625 1
vt 0.196653125 0.8984375
vt 0.20959687500000002 0.8984375
vt 0.203125 0.9140625
vn 0 -1 0
vn 0.7057297462259694 0.06237828615518054 0.7057297462259694
vn 0 1 0
vn 0 -1 0
vn 0.9980525784828888 0.06237828615518055 0
vn 0 1 0
vn 0 -1 0
vn 0.7057297462259695 0.06237828615518053 -0.7057297462259694
vn 0 1 0
vn 0 -1 0
vn 2.675095779264089e-16 0.06237828615518055 -0.9980525784828888
vn 0 1 0
vn 0 -1 0
vn -0.7057297462259693 0.06237828615518056 -0.7057297462259697
vn 0 1 0
vn 0 -1 0
vn -0.9980525784828888 0.06237828615518054 -1.3375478896320433e-16
vn 0 1 0
vn 0 -1 0
vn -0.7057297462259696 0.062378286155180575 0.7057297462259694
vn 0 1 0
vn 0 -1 0
vn -2.6750957792640866e-16 0.06237828615518055 0.9980525784828888
vn 0 1 0
usemtl m_b92299ad-0efd-254f-a4d8-7814e23a191a
f 5/1/1 3/2/1 1/3/1
f 3/4/2 5/5/2 6/6/2 4/7/2
f 4/8/3 6/9/3 2/10/3
f 7/11/4 5/12/4 1/13/4
f 5/14/5 7/15/5 8/16/5 6/17/5
f 6/18/6 8/19/6 2/20/6
f 9/21/7 7/22/7 1/23/7
f 7/24/8 9/25/8 10/26/8 8/27/8
f 8/28/9 10/29/9 2/30/9
f 11/31/10 9/32/10 1/33/10
f 9/34/11 11/35/11 12/36/11 10/37/11
f 10/38/12 12/39/12 2/40/12
f 13/41/13 11/42/13 1/43/13
f 11/44/14 13/45/14 14/46/14 12/47/14
f 12/48/15 14/49/15 2/50/15
f 15/51/16 13/52/16 1/53/16
f 13/54/17 15/55/17 16/56/17 14/57/17
f 14/58/18 16/59/18 2/60/18
f 17/61/19 15/62/19 1/63/19
f 15/64/20 17/65/20 18/66/20 16/67/20
f 16/68/21 18/69/21 2/70/21
f 3/71/22 17/72/22 1/73/22
f 17/74/23 3/75/23 4/76/23 18/77/23
f 18/78/24 4/79/24 2/80/24
o plane
v -0.7002778151415994 2.2220571419134454 0.1875
v -0.7002778151415994 2.2220571419134454 -0.1875
v -1.4247221848584006 2.0279428580865546 0.1875
v -1.4247221848584006 2.0279428580865546 -0.1875
vt 0.75 0.625
vt 0.75 1
vt 0 1
vt 0 0.625
vn -0.25881904510252074 0.9659258262890683 0
usemtl m_4b19fbf4-54bd-1d2b-1508-096dcdb845e0
f 19/81/25 20/82/25 22/83/25 21/84/25
o plane
v -0.012777815141599369 2.0279428580865546 0.1875
v -0.012777815141599369 2.0279428580865546 -0.1875
v -0.7372221848584006 2.2220571419134454 0.1875
v -0.7372221848584006 2.2220571419134454 -0.1875
vt 0.75 0.625
vt 0.75 1
vt 0 1
vt 0 0.625
vn 0.25881904510252074 0.9659258262890683 0
usemtl m_4b19fbf4-54bd-1d2b-1508-096dcdb845e0
f 23/85/26 24/86/26 26/87/26 25/88/26
o plane
v 0.012777815141599369 2.0279428580865546 -0.18749999999999994
v 0.012777815141599369 2.0279428580865546 0.18750000000000006
v 0.7372221848584006 2.2220571419134454 -0.18750000000000006
v 0.7372221848584006 2.2220571419134454 0.18749999999999994
vt 0.75 0.625
vt 0.75 1
vt 0 1
vt 0 0.625
vn -0.25881904510252074 0.9659258262890683 3.169619151431765e-17
usemtl m_4b19fbf4-54bd-1d2b-1508-096dcdb845e0
f 27/89/27 28/90/27 30/91/27 29/92/27
o plane
v 0.7002778151415994 2.2220571419134454 -0.18750000000000003
v 0.7002778151415994 2.2220571419134454 0.18749999999999997
v 1.4247221848584006 2.0279428580865546 -0.18750000000000014
v 1.4247221848584006 2.0279428580865546 0.18749999999999986
vt 0.75 0.625
vt 0.75 1
vt 0 1
vt 0 0.625
vn 0.25881904510252074 0.9659258262890683 -3.169619151431765e-17
usemtl m_4b19fbf4-54bd-1d2b-1508-096dcdb845e0
f 31/93/28 32/94/28 34/95/28 33/96/28
o plane
v 0.18750000000000008 2.0279428580865546 0.012777815141599425
v -0.18749999999999992 2.0279428580865546 0.012777815141599314
v 0.18749999999999992 2.2220571419134454 0.7372221848584006
v -0.18750000000000008 2.2220571419134454 0.7372221848584006
vt 0.75 0.625
vt 0.75 1
vt 0 1
vt 0 0.625
vn 5.746937261686308e-17 0.9659258262890683 -0.25881904510252074
usemtl m_4b19fbf4-54bd-1d2b-1508-096dcdb845e0
f 35/97/29 36/98/29 38/99/29 37/100/29
o plane
v 0.18749999999999994 2.2220571419134454 0.7002778151415994
v -0.18750000000000006 2.2220571419134454 0.7002778151415994
v 0.18749999999999978 2.0279428580865546 1.4247221848584006
v -0.18750000000000022 2.0279428580865546 1.4247221848584006
vt 0.75 0.625
vt 0.75 1
vt 0 1
vt 0 0.625
vn -5.746937261686308e-17 0.9659258262890683 0.25881904510252074
usemtl m_4b19fbf4-54bd-1d2b-1508-096dcdb845e0
f 39/101/30 40/102/30 42/103/30 41/104/30
o plane
v -0.18749999999999992 2.0279428580865546 -0.012777815141599314
v 0.18750000000000008 2.0279428580865546 -0.012777815141599425
v -0.18750000000000008 2.2220571419134454 -0.7372221848584006
v 0.18749999999999992 2.2220571419134454 -0.7372221848584006
vt 0.75 0.625
vt 0.75 1
vt 0 1
vt 0 0.625
vn 5.746937261686308e-17 0.9659258262890683 0.25881904510252074
usemtl m_4b19fbf4-54bd-1d2b-1508-096dcdb845e0
f 43/105/31 44/106/31 46/107/31 45/108/31
o plane
v -0.18750000000000006 2.2220571419134454 -0.7002778151415994
v 0.18749999999999994 2.2220571419134454 -0.7002778151415994
v -0.18750000000000022 2.0279428580865546 -1.4247221848584006
v 0.18749999999999978 2.0279428580865546 -1.4247221848584006
vt 0.75 0.625
vt 0.75 1
vt 0 1
vt 0 0.625
vn -5.746937261686308e-17 0.9659258262890683 -0.25881904510252074
usemtl m_4b19fbf4-54bd-1d2b-1508-096dcdb845e0
f 47/109/32 48/110/32 50/111/32 49/112/32