# Made in Blockbench 5.2.1
mtllib item_hammer.mtl

o cylinder
v 0 0.5625 -0.1875
v 0 0.5625000000000001 0.1875
v 0.051776695296636886 0.4375 -0.18749999999999997
v 0.051776695296636886 0.4375000000000001 0.1875
v 0.125 0.5107233047033631 -0.1875
v 0.125 0.5107233047033632 0.1875
v 0.125 0.6142766952966369 -0.1875
v 0.125 0.614276695296637 0.1875
v 0.0517766952966369 0.6875 -0.18750000000000003
v 0.0517766952966369 0.6875000000000001 0.1875
v -0.05177669529663687 0.6875 -0.18750000000000003
v -0.05177669529663687 0.6875000000000001 0.18749999999999994
v -0.12499999999999997 0.614276695296637 -0.1875
v -0.12499999999999997 0.6142766952966371 0.1875
v -0.12499999999999999 0.5107233047033631 -0.1875
v -0.12499999999999999 0.5107233047033631 0.1875
v -0.05177669529663697 0.4375 -0.18749999999999997
v -0.05177669529663697 0.4375000000000001 0.1875
v 0 0 0
v 0 0.5 0
v 0.012944173824159222 0 0.03125
v 0.012944173824159222 0.5 0.03125
v 0.03125 0 0.012944173824159244
v 0.03125 0.5 0.012944173824159244
v 0.03125 0 -0.012944173824159189
v 0.03125 0.5 -0.012944173824159189
v 0.012944173824159225 0 -0.03125
v 0.012944173824159225 0.5 -0.03125
v -0.012944173824159218 0 -0.03125
v -0.012944173824159218 0.5 -0.03125
v -0.031249999999999993 0 -0.012944173824159244
v -0.031249999999999993 0.5 -0.012944173824159244
v -0.031249999999999997 0 0.012944173824159244
v -0.031249999999999997 0.5 0.012944173824159244
v -0.012944173824159242 0 0.03125
v -0.012944173824159242 0.5 0.03125
vt 0.125 0.9633875
vt 0.08838750000000001 1
vt 0.0625 0.9375
vt 0.4375 0.8125
vt 0.484375 0.8125
vt 0.484375 1
vt 0.4375 1
vt 0.08838750000000001 0.71875
vt 0.125 0.7553624999999999
vt 0.0625 0.78125
vt 0.125 0.9116124999999999
vt 0.125 0.9633875
vt 0.0625 0.9375
vt 0.15625 0.8125
vt 0.203125 0.8125
vt 0.203125 1
vt 0.15625 1
vt 0.125 0.7553624999999999
vt 0.125 0.8071375000000001
vt 0.0625 0.78125
vt 0.08838750000000001 0.875
vt 0.125 0.9116124999999999
vt 0.0625 0.9375
vt 0.34375 0.8125
vt 0.390625 0.8125
vt 0.390625 1
vt 0.34375 1
vt 0.125 0.8071375000000001
vt 0.08838750000000001 0.84375
vt 0.0625 0.78125
vt 0.0366125 0.875
vt 0.08838750000000001 0.875
vt 0.0625 0.9375
vt 0.25 0.59375
vt 0.296875 0.59375
vt 0.296875 0.78125
vt 0.25 0.78125
vt 0.08838750000000001 0.84375
vt 0.0366125 0.84375
vt 0.0625 0.78125
vt 0 0.9116124999999999
vt 0.0366125 0.875
vt 0.0625 0.9375
vt 0.34375 0.59375
vt 0.390625 0.59375
vt 0.390625 0.78125
vt 0.34375 0.78125
vt 0.0366125 0.84375
vt 0 0.8071375000000001
vt 0.0625 0.78125
vt 0 0.9633875
vt 0 0.9116124999999999
vt 0.0625 0.9375
vt 0.15625 0.59375
vt 0.203125 0.59375
vt 0.203125 0.78125
vt 0.15625 0.78125
vt 0 0.8071375000000001
vt 0 0.7553624999999999
vt 0.0625 0.78125
vt 0.0366125 1
vt 0 0.9633875
vt 0.0625 0.9375
vt 0 0.5
vt 0.046875 0.5
vt 0.046875 0.6875
vt 0 0.6875
vt 0 0.7553624999999999
vt 0.0366125 0.71875
vt 0.0625 0.78125
vt 0.08838750000000001 1
vt 0.0366125 1
vt 0.0625 0.9375
vt 0.25 0.8125
vt 0.296875 0.8125
vt 0.296875 1
vt 0.25 1
vt 0.0366125 0.71875
vt 0.08838750000000001 0.71875
vt 0.0625 0.78125
vt 0.125 0.678346875
vt 0.115846875 0.6875
vt 0.109375 0.671875
vt 0.5 0.71875
vt 0.5 0.703125
vt 0.75 0.703125
vt 0.75 0.71875
vt 0.102903125 0.625
vt 0.09375 0.615846875
vt 0.109375 0.609375
vt 0.125 0.665403125
vt 0.125 0.678346875
vt 0.109375 0.671875
vt 0.09375 0.5625
vt 0.09375 0.546875
vt 0.34375 0.546875
vt 0.34375 0.5625
vt 0.09375 0.615846875
vt 0.09375 0.602903125
vt 0.109375 0.609375
vt 0.115846875 0.65625
vt 0.125 0.665403125
vt 0.109375 0.671875
vt 0.5 0.65625
vt 0.5 0.640625
vt 0.75 0.640625
vt 0.75 0.65625
vt 0.09375 0.602903125
vt 0.102903125 0.59375
vt 0.109375 0.609375
vt 0.102903125 0.65625
vt 0.115846875 0.65625
vt 0.109375 0.671875
vt 0.4375 0.46875
vt 0.453125 0.46875
vt 0.453125 0.71875
vt 0.4375 0.71875
vt 0.102903125 0.59375
vt 0.115846875 0.59375
vt 0.109375 0.609375
vt 0.09375 0.665403125
vt 0.102903125 0.65625
vt 0.109375 0.671875
vt 0.75 0.578125
vt 0.75 0.59375
vt 0.5 0.59375
vt 0.5 0.578125
vt 0.115846875 0.59375
vt 0.125 0.602903125
vt 0.109375 0.609375
vt 0.09375 0.678346875
vt 0.09375 0.665403125
vt 0.109375 0.671875
vt 0.6875 0.765625
vt 0.6875 0.78125
vt 0.4375 0.78125
vt 0.4375 0.765625
vt 0.125 0.602903125
vt 0.125 0.615846875
vt 0.109375 0.609375
vt 0.102903125 0.6875
vt 0.09375 0.678346875
vt 0.109375 0.671875
vt 0.34375 0.484375
vt 0.34375 0.5
vt 0.09375 0.5
vt 0.09375 0.484375
vt 0.125 0.615846875
vt 0.115846875 0.625
vt 0.109375 0.609375
vt 0.115846875 0.6875
vt 0.102903125 0.6875
vt 0.109375 0.671875
vt 0.375 0.3125
vt 0.390625 0.3125
vt 0.390625 0.5625
vt 0.375 0.5625
vt 0.115846875 0.625
vt 0.102903125 0.625
vt 0.109375 0.609375
vn 0 -2.220446049250313e-16 -1
vn 0.7071067811865476 -0.7071067811865476 1.5700924586837752e-16
vn 0 2.220446049250313e-16 1
vn 0 -2.220446049250313e-16 -1
vn 1 0 0
vn 0 2.220446049250313e-16 1
vn 0 -2.220446049250313e-16 -1
vn 0.7071067811865476 0.7071067811865475 -1.570092458683775e-16
vn 0 2.220446049250313e-16 1
vn 0 -2.220446049250313e-16 -1
vn 2.6803154833089315e-16 1 -2.220446049250313e-16
vn 0 2.220446049250313e-16 1
vn 0 -2.220446049250313e-16 -1
vn -0.7071067811865474 0.7071067811865478 -1.5700924586837757e-16
vn 0 2.220446049250313e-16 1
vn 0 -2.220446049250313e-16 -1
vn -1 1.3401577416544643e-16 -2.975747962828877e-32
vn 0 2.220446049250313e-16 1
vn 0 -2.220446049250313e-16 -1
vn -0.7071067811865477 -0.7071067811865475 1.570092458683775e-16
vn 0 2.220446049250313e-16 1
vn 0 -2.220446049250313e-16 -1
vn -2.680315483308929e-16 -1 2.220446049250313e-16
vn 0 2.220446049250313e-16 1
vn 0 -1 2.220446049250313e-16
vn 0.7071067811865477 2.053506989579866e-18 0.7071067811865475
vn 0 1 -2.220446049250313e-16
vn 0 -1 2.220446049250313e-16
vn 1 0 0
vn 0 1 -2.220446049250313e-16
vn 0 -1 2.220446049250313e-16
vn 0.7071067811865477 -2.053506989579866e-18 -0.7071067811865475
vn 0 1 -2.220446049250313e-16
vn 0 -1 2.220446049250313e-16
vn 0 0 -1
vn 0 1 -2.220446049250313e-16
vn 0 -1 2.220446049250313e-16
vn -0.7071067811865471 -2.0535069895798658e-18 -0.7071067811865479
vn 0 1 -2.220446049250313e-16
vn 0 -1 2.220446049250313e-16
vn -1 0 -1.3401577416544647e-16
vn 0 1 -2.220446049250313e-16
vn 0 -1 2.220446049250313e-16
vn -0.7071067811865481 -2.1344859530905076e-18 0.707106781186547
vn 0 1 -2.220446049250313e-16
vn 0 -1 2.220446049250313e-16
vn 0 0 1
vn 0 1 -2.220446049250313e-16
usemtl m_e03d1a51-abaa-5392-d8dd-2b5f1f502817
f 5/1/1 3/2/1 1/3/1
f 3/4/2 5/5/2 6/6/2 4/7/2
f 4/8/3 6/9/3 2/10/3
f 7/11/4 5/12/4 1/13/4
f 5/14/5 7/15/5 8/16/5 6/17/5
f 6/18/6 8/19/6 2/20/6
f 9/21/7 7/22/7 1/23/7
f 7/24/8 9/25/8 10/26/8 8/27/8
f 8/28/9 10/29/9 2/30/9
f 11/31/10 9/32/10 1/33/10
f 9/34/11 11/35/11 12/36/11 10/37/11
f 10/38/12 12/39/12 2/40/12
f 13/41/13 11/42/13 1/43/13
f 11/44/14 13/45/14 14/46/14 12/47/14
f 12/48/15 14/49/15 2/50/15
f 15/51/16 13/52/16 1/53/16
f 13/54/17 15/55/17 16/56/17 14/57/17
f 14/58/18 16/59/18 2/60/18
f 17/61/19 15/62/19 1/63/19
f 15/64/20 17/65/20 18/66/20 16/67/20
f 16/68/21 18/69/21 2/70/21
f 3/71/22 17/72/22 1/73/22
f 17/74/23 3/75/23 4/76/23 18/77/23
f 18/78/24 4/79/24 2/80/24
f 23/81/25 21/82/25 19/83/25
f 21/84/26 23/85/26 24/86/26 22/87/26
f 22/88/27 24/89/27 20/90/27
f 25/91/28 23/92/28 19/93/28
f 23/94/29 25/95/29 26/96/29 24/97/29
f 24/98/30 26/99/30 20/100/30
f 27/101/31 25/102/31 19/103/31
f 25/104/32 27/105/32 28/106/32 26/107/32
f 26/108/33 28/109/33 20/110/33
f 29/111/34 27/112/34 19/113/34
f 27/114/35 29/115/35 30/116/35 28/117/35
f 28/118/36 30/119/36 20/120/36
f 31/121/37 29/122/37 19/123/37
f 29/124/38 31/125/38 32/126/38 30/127/38
f 30/128/39 32/129/39 20/130/39
f 33/131/40 31/132/40 19/133/40
f 31/134/41 33/135/41 34/136/41 32/137/41
f 32/138/42 34/139/42 20/140/42
f 35/141/43 33/142/43 19/143/43
f 33/144/44 35/145/44 36/146/44 34/147/44
f 34/148/45 36/149/45 20/150/45
f 21/151/46 35/152/46 19/153/46
f 35/154/47 21/155/47 22/156/47 36/157/47
f 36/158/48 22/159/48 20/160/48