# Made in Blockbench 5.2.1
mtllib item_god_firebolt_staff.mtl

o cylinder
v 0 0 0
v 0.0090210979560879 0 0.015625
v 0.0090210979560879 0.75 0.015625
v 0.018042195912175804 0 1.104765873671778e-18
v 0.018042195912175804 0.75 1.104765873671778e-18
v 0.0090210979560879 0 -0.015625
v 0.0090210979560879 0.75 -0.015625
v -0.009021097956087904 0 -0.015624999999999998
v -0.009021097956087904 0.75 -0.015624999999999998
v -0.018042195912175804 0 -3.3142976210153337e-18
v -0.018042195912175804 0.75 -3.3142976210153337e-18
v -0.00902109795608791 0 0.015624999999999995
v -0.00902109795608791 0.75 0.015624999999999995
v 0 0.75 0
v 8.673617379884035e-19 0.71875 8.673617379884035e-19
v 8.673617379884035e-19 0.78125 8.673617379884035e-19
v 0.004186706131736291 0.7770632938682637 0.015624999999999997
v 0.007251587736527415 0.765625 0.027063293868263706
v 0.008373412263472584 0.75 0.03125
v 0.007251587736527416 0.734375 0.027063293868263713
v 0.004186706131736291 0.7229367061317363 0.015624999999999997
v 0.011438293868263703 0.7770632938682637 0.011438293868263706
v 0.019811706131736294 0.765625 0.019811706131736294
v 0.022876587736527412 0.75 0.02287658773652742
v 0.019811706131736294 0.734375 0.019811706131736294
v 0.011438293868263703 0.7229367061317363 0.011438293868263706
v 0.015624999999999997 0.7770632938682637 0.004186706131736291
v 0.027063293868263706 0.765625 0.007251587736527415
v 0.03125 0.75 0.008373412263472584
v 0.027063293868263713 0.734375 0.007251587736527416
v 0.015624999999999997 0.7229367061317363 0.004186706131736291
v 0.015624999999999997 0.7770632938682637 -0.004186706131736291
v 0.027063293868263706 0.765625 -0.007251587736527417
v 0.03125 0.75 -0.008373412263472584
v 0.027063293868263713 0.734375 -0.0072515877365274175
v 0.015624999999999997 0.7229367061317363 -0.004186706131736291
v 0.011438293868263706 0.7770632938682637 -0.011438293868263703
v 0.019811706131736294 0.765625 -0.019811706131736287
v 0.02287658773652742 0.75 -0.022876587736527412
v 0.019811706131736294 0.734375 -0.019811706131736287
v 0.011438293868263706 0.7229367061317363 -0.011438293868263703
v 0.004186706131736296 0.7770632938682637 -0.015624999999999993
v 0.007251587736527423 0.765625 -0.0270632938682637
v 0.008373412263472595 0.75 -0.031249999999999993
v 0.0072515877365274236 0.734375 -0.027063293868263706
v 0.004186706131736296 0.7229367061317363 -0.015624999999999993
v -0.0041867061317362834 0.7770632938682637 -0.015624999999999997
v -0.007251587736527403 0.765625 -0.027063293868263706
v -0.00837341226347257 0.75 -0.03125
v -0.007251587736527404 0.734375 -0.027063293868263713
v -0.0041867061317362834 0.7229367061317363 -0.015624999999999997
v -0.011438293868263703 0.7770632938682637 -0.011438293868263706
v -0.019811706131736287 0.765625 -0.019811706131736294
v -0.022876587736527412 0.75 -0.02287658773652742
v -0.019811706131736287 0.734375 -0.019811706131736294
v -0.011438293868263703 0.7229367061317363 -0.011438293868263706
v -0.015624999999999997 0.7770632938682637 -0.004186706131736288
v -0.027063293868263706 0.765625 -0.0072515877365274106
v -0.031249999999999993 0.75 -0.008373412263472577
v -0.027063293868263706 0.734375 -0.007251587736527411
v -0.015624999999999997 0.7229367061317363 -0.004186706131736288
v -0.015624999999999997 0.7770632938682637 0.004186706131736284
v -0.027063293868263706 0.765625 0.007251587736527403
v -0.03125 0.75 0.00837341226347257
v -0.027063293868263713 0.734375 0.007251587736527404
v -0.015624999999999997 0.7229367061317363 0.004186706131736284
v -0.011438293868263706 0.7770632938682637 0.011438293868263703
v -0.019811706131736294 0.765625 0.019811706131736287
v -0.02287658773652742 0.75 0.022876587736527412
v -0.019811706131736294 0.734375 0.019811706131736287
v -0.011438293868263706 0.7229367061317363 0.011438293868263703
v -0.004186706131736289 0.7770632938682637 0.015624999999999997
v -0.007251587736527411 0.765625 0.027063293868263706
v -0.00837341226347258 0.75 0.03125
v -0.007251587736527412 0.734375 0.027063293868263713
v -0.004186706131736289 0.7229367061317363 0.015624999999999997
vt 0.04929375 0.140625
vt 0.040268750000000006 0.15625
vt 0.03125 0.140625
vt 0.5 0.25
vt 0.5625 0.25
vt 0.5625 1
vt 0.5 1
vt 0.16526875000000002 0.15625
vt 0.17429375 0.171875
vt 0.15625 0.171875
vt 0.040268750000000006 0.125
vt 0.04929375 0.140625
vt 0.03125 0.140625
vt 0.625 0.25
vt 0.6875 0.25
vt 0.6875 1
vt 0.625 1
vt 0.17429375 0.171875
vt 0.16526875000000002 0.1875
vt 0.15625 0.171875
vt 0.02223125 0.125
vt 0.040268750000000006 0.125
vt 0.03125 0.140625
vt 0 0.25
vt 0.0625 0.25
vt 0.0625 1
vt 0 1
vt 0.16526875000000002 0.1875
vt 0.14723125 0.1875
vt 0.15625 0.171875
vt 0.01320625 0.140625
vt 0.02223125 0.125
vt 0.03125 0.140625
vt 0.375 0.25
vt 0.4375 0.25
vt 0.4375 1
vt 0.375 1
vt 0.14723125 0.1875
vt 0.13820625 0.171875
vt 0.15625 0.171875
vt 0.02223125 0.15625
vt 0.01320625 0.140625
vt 0.03125 0.140625
vt 0.25 0.25
vt 0.3125 0.25
vt 0.3125 1
vt 0.25 1
vt 0.13820625 0.171875
vt 0.14723125 0.15625
vt 0.15625 0.171875
vt 0.040268750000000006 0.15625
vt 0.02223125 0.15625
vt 0.03125 0.140625
vt 0.125 0.25
vt 0.1875 0.25
vt 0.1875 1
vt 0.125 1
vt 0.14723125 0.15625
vt 0.16526875000000002 0.15625
vt 0.15625 0.171875
vt 0.8166457474730953 0.967308472051631
vt 0.8244410753155778 0.9703700874468459
vt 0.8146303810638764 0.9838947338211373
vt 0.8166457474730953 0.967308472051631
vt 0.8197082474730952 0.9511334720516309
vt 0.8332046359764977 0.956434179303048
vt 0.8244410753155778 0.9703700874468459
vt 0.7929783362733398 0.8629347390428078
vt 0.789625 0.8470712152905672
vt 0.8062137255904183 0.8447524476683588
vt 0.8073387255904183 0.8609274476683587
vt 0.789625 0.8470712152905672
vt 0.7885 0.8308962152905672
vt 0.8028603893170785 0.8288889239161181
vt 0.8062137255904183 0.8447524476683588
vt 0.7885 0.8308962152905672
vt 0.7892938451242647 0.8144529996327745
vt 0.7975882079194738 0.8132936158216703
vt 0.8028603893170785 0.8288889239161181
vt 0.8240103872880753 0.3411275463088751
vt 0.8166875 0.34519152794836905
vt 0.8125 0.3290165279483691
vt 0.8244410753155778 0.9703700874468459
vt 0.830577630222272 0.9760695013533038
vt 0.8165018280003331 0.9850715885034516
vt 0.8244410753155778 0.9703700874468459
vt 0.8332046359764977 0.956434179303048
vt 0.8438291190985358 0.9663018212903483
vt 0.830577630222272 0.9760695013533038
vt 0.7551612744095817 0.6109274476683587
vt 0.7562862744095817 0.5947524476683588
vt 0.772875 0.5970712152905672
vt 0.7695216637266602 0.6129347390428078
vt 0.7562862744095817 0.5947524476683588
vt 0.7596396106829215 0.5788889239161181
vt 0.774 0.5808962152905672
vt 0.772875 0.5970712152905672
vt 0.8361159691998252 0.3522839085218866
vt 0.8240103872880753 0.3411275463088751
vt 0.8284412805976528 0.33402066165530564
vt 0.843787366571631 0.3399794515097364
vt 0.8284412805976528 0.33402066165530564
vt 0.8240103872880753 0.3411275463088751
vt 0.8125 0.3290165279483691
vt 0.830577630222272 0.9760695013533038
vt 0.8331776286040138 0.9840306968297974
vt 0.8165018280003331 0.9850715885034516
vt 0.4020625 0.1875
vt 0.399 0.125
vt 0.4135 0.125
vt 0.4104375 0.1875
vt 0.779034090571538 0.6169106680924494
vt 0.7735169920341256 0.6016640988479118
vt 0.789625 0.5970712152905672
vt 0.7929783362733398 0.6129347390428078
vt 0.772875 0.5970712152905672
vt 0.774 0.5808962152905672
vt 0.7885 0.5808962152905672
vt 0.789625 0.5970712152905672
vt 0.7743997615705068 0.5775149024935248
vt 0.7811497418934368 0.5625
vt 0.7892938451242647 0.5644529996327745
vt 0.7885 0.5808962152905672
vt 0.8288669144538218 0.3256564844201866
vt 0.8284412805976528 0.33402066165530564
vt 0.8125 0.3290165279483691
vt 0.8331776286040138 0.9840306968297974
vt 0.8315878187955099 0.9922534171687597
vt 0.8165018280003331 0.9850715885034516
vt 0.7943806172508232 0.25
vt 0.7811291283745596 0.24023231993704441
vt 0.7917536114965975 0.23036467794974413
vt 0.8005171721575175 0.244300586093542
vt 0.7929783362733398 0.6129347390428078
vt 0.789625 0.5970712152905672
vt 0.8062137255904183 0.5947524476683588
vt 0.8073387255904183 0.6109274476683587
vt 0.789625 0.5970712152905672
vt 0.7885 0.5808962152905672
vt 0.8028603893170785 0.5788889239161181
vt 0.8062137255904183 0.5947524476683588
vt 0.7885 0.5808962152905672
vt 0.7892938451242647 0.5644529996327745
vt 0.7975882079194738 0.5632936158216703
vt 0.8028603893170785 0.5788889239161181
vt 0.8251803480110416 0.3181365207990666
vt 0.8288669144538218 0.3256564844201866
vt 0.8125 0.3290165279483691
vt 0.8226797546605131 0.9967003768355644
vt 0.8149821503596465 1
vt 0.8124582474730953 0.9834834720516309
vt 0.8005171721575175 0.244300586093542
vt 0.7917536114965975 0.23036467794974413
vt 0.80525 0.22506397069832706
vt 0.8083125 0.241238970698327
vt 0.7551612744095817 0.7359274476683587
vt 0.7562862744095817 0.7197524476683588
vt 0.772875 0.7220712152905672
vt 0.7695216637266602 0.7379347390428078
vt 0.7562862744095817 0.7197524476683588
vt 0.7596396106829215 0.7038889239161181
vt 0.774 0.7058962152905672
vt 0.772875 0.7220712152905672
vt 0.7596396106829215 0.7038889239161181
vt 0.7649117920805261 0.6882936158216703
vt 0.7732061548757353 0.6894529996327745
vt 0.774 0.7058962152905672
vt 0.818307834025803 0.3133501676442422
vt 0.8251803480110416 0.3181365207990666
vt 0.8125 0.3290165279483691
vt 0.8149821503596465 1
vt 0.8066504134472924 0.9991498323557578
vt 0.8124582474730953 0.9834834720516309
vt 0.8083125 0.241238970698327
vt 0.80525 0.22506397069832706
vt 0.81975 0.22506397069832706
vt 0.8166875 0.241238970698327
vt 0.779034090571538 0.7419106680924494
vt 0.7735169920341256 0.7266640988479118
vt 0.789625 0.7220712152905672
vt 0.7929783362733398 0.7379347390428078
vt 0.772875 0.7220712152905672
vt 0.774 0.7058962152905672
vt 0.7885 0.7058962152905672
vt 0.789625 0.7220712152905672
vt 0.7743997615705068 0.7025149024935248
vt 0.7811497418934368 0.6875
vt 0.7892938451242647 0.6894529996327745
vt 0.7885 0.7058962152905672
vt 0.8099760971134489 0.3125
vt 0.818307834025803 0.3133501676442422
vt 0.8125 0.3290165279483691
vt 0.8066504134472924 0.9991498323557578
vt 0.7997778994620537 0.9943634792009334
vt 0.8124582474730953 0.9834834720516309
vt 0.8166875 0.241238970698327
vt 0.81975 0.22506397069832706
vt 0.8332463885034025 0.23036467794974413
vt 0.8244828278424825 0.244300586093542
vt 0.7929783362733398 0.7379347390428078
vt 0.789625 0.7220712152905672
vt 0.8062137255904183 0.7197524476683588
vt 0.8073387255904183 0.7359274476683587
vt 0.789625 0.7220712152905672
vt 0.7885 0.7058962152905672
vt 0.8028603893170785 0.7038889239161181
vt 0.8062137255904183 0.7197524476683588
vt 0.7885 0.7058962152905672
vt 0.7892938451242647 0.6894529996327745
vt 0.7975882079194738 0.6882936158216703
vt 0.8028603893170785 0.7038889239161181
vt 0.7998196519889584 0.3181365207990666
vt 0.8066921659741971 0.3133501676442422
vt 0.8125 0.3290165279483691
vt 0.7997778994620537 0.9943634792009334
vt 0.7960913330192736 0.9868435155798134
vt 0.8124582474730953 0.9834834720516309
vt 0.8244828278424825 0.244300586093542
vt 0.8332463885034025 0.23036467794974413
vt 0.8438708716254404 0.24023231993704441
vt 0.8306193827491768 0.25
vt 0.7551612744095817 0.4859274476683587
vt 0.7562862744095817 0.4697524476683588
vt 0.772875 0.47207121529056717
vt 0.7695216637266602 0.4879347390428078
vt 0.7562862744095817 0.4697524476683588
vt 0.7596396106829215 0.4538889239161181
vt 0.774 0.45589621529056723
vt 0.772875 0.47207121529056717
vt 0.7596396106829215 0.4538889239161181
vt 0.7649117920805261 0.43829361582167026
vt 0.7732061548757353 0.4394529996327745
vt 0.774 0.45589621529056723
vt 0.7961330855461782 0.3256564844201866
vt 0.7998196519889584 0.3181365207990666
vt 0.8125 0.3290165279483691
vt 0.7960913330192736 0.9868435155798134
vt 0.7965169668754425 0.9784793383446944
vt 0.8124582474730953 0.9834834720516309
vt 0.2770625 0.1875
vt 0.274 0.125
vt 0.2885 0.125
vt 0.2854375 0.1875
vt 0.779034090571538 0.49191066809244943
vt 0.7735169920341256 0.47666409884791183
vt 0.789625 0.47207121529056717
vt 0.7929783362733398 0.4879347390428078
vt 0.772875 0.47207121529056717
vt 0.774 0.45589621529056723
vt 0.7885 0.45589621529056723
vt 0.789625 0.47207121529056717
vt 0.774 0.45589621529056723
vt 0.7732061548757353 0.4394529996327745
vt 0.7813502581065632 0.4375
vt 0.7881002384294932 0.4525149024935248
vt 0.7965587194023472 0.33402066165530564
vt 0.7961330855461782 0.3256564844201866
vt 0.8125 0.3290165279483691
vt 0.7965169668754425 0.9784793383446944
vt 0.80094786018502 0.9713724536911249
vt 0.8124582474730953 0.9834834720516309
vt 0.7965169668754425 0.9784793383446944
vt 0.7811708809014642 0.9725205484902636
vt 0.78884227827327 0.9602160914781134
vt 0.80094786018502 0.9713724536911249
vt 0.7929783362733398 0.4879347390428078
vt 0.789625 0.47207121529056717
vt 0.8062137255904183 0.4697524476683588
vt 0.8073387255904183 0.4859274476683587
vt 0.789625 0.47207121529056717
vt 0.7885 0.45589621529056723
vt 0.8028603893170785 0.4538889239161181
vt 0.8062137255904183 0.4697524476683588
vt 0.781212633428369 0.3399794515097364
vt 0.7965587194023472 0.33402066165530564
vt 0.8009896127119247 0.3411275463088751
vt 0.7888840308001748 0.3522839085218866
vt 0.8009896127119247 0.3411275463088751
vt 0.7965587194023472 0.33402066165530564
vt 0.8125 0.3290165279483691
vt 0.80094786018502 0.9713724536911249
vt 0.8082707474730952 0.967308472051631
vt 0.8124582474730953 0.9834834720516309
vt 0.80094786018502 0.9713724536911249
vt 0.790421144323701 0.9587155273491944
vt 0.803099576046339 0.9516793800330555
vt 0.8082707474730952 0.967308472051631
vt 0.7551612744095817 0.8609274476683587
vt 0.7562862744095817 0.8447524476683588
vt 0.772875 0.8470712152905672
vt 0.7695216637266602 0.8629347390428078
vt 0.7562862744095817 0.8447524476683588
vt 0.7596396106829215 0.8288889239161181
vt 0.774 0.8308962152905672
vt 0.772875 0.8470712152905672
vt 0.7596396106829215 0.8288889239161181
vt 0.7649117920805261 0.8132936158216703
vt 0.7732061548757353 0.8144529996327745
vt 0.774 0.8308962152905672
vt 0.8083125 0.34519152794836905
vt 0.8009896127119247 0.3411275463088751
vt 0.8125 0.3290165279483691
vt 0.8082707474730952 0.967308472051631
vt 0.8166457474730953 0.967308472051631
vt 0.8124582474730953 0.9834834720516309
vt 0.8082707474730952 0.967308472051631
vt 0.8052082474730953 0.9511334720516309
vt 0.8197082474730952 0.9511334720516309
vt 0.8166457474730953 0.967308472051631
vt 0.779034090571538 0.8669106680924494
vt 0.7735169920341256 0.8516640988479118
vt 0.789625 0.8470712152905672
vt 0.7929783362733398 0.8629347390428078
vt 0.772875 0.8470712152905672
vt 0.774 0.8308962152905672
vt 0.7885 0.8308962152905672
vt 0.789625 0.8470712152905672
vt 0.7743997615705068 0.8275149024935248
vt 0.7811497418934368 0.8125
vt 0.7892938451242647 0.8144529996327745
vt 0.7885 0.8308962152905672
vt 0.8166875 0.34519152794836905
vt 0.8083125 0.34519152794836905
vt 0.8125 0.3290165279483691
vn 0 -1 0
vn 0.8660254037844386 0 0.5000000000000001
vn 0 1 0
vn 0 -1 0
vn 0.8660254037844386 0 -0.5000000000000001
vn 0 1 0
vn 0 -1 0
vn -9.61481343191782e-17 0 -1
vn 0 1 0
vn 0 -1 0
vn -0.8660254037844387 0 -0.5
vn 0 1 0
vn 0 -1 0
vn -0.8660254037844388 0 0.4999999999999996
vn 0 1 0
vn 0 -1 0
vn -2.884444029575345e-16 0 1
vn 0 1 0
vn 0.12940952255126148 0.9659258262890678 0.22414386804201525
vn 0.35355339059327306 0.7071067811865487 0.6123724356957936
vn 0.48296291314453405 0.2588190451025209 0.8365163037378079
vn 0.48296291314453443 -0.2588190451025205 0.836516303737808
vn 0.35355339059327306 -0.707106781186549 0.6123724356957934
vn 0.12940952255126145 -0.9659258262890678 0.22414386804201522
vn 0.22414386804201525 0.9659258262890678 0.1294095225512615
vn 0.6123724356957936 0.7071067811865489 0.35355339059327295
vn 0.836516303737808 0.25881904510252063 0.48296291314453427
vn 0.8365163037378078 -0.25881904510252063 0.4829629131445343
vn 0.6123724356957932 -0.7071067811865489 0.35355339059327323
vn 0.22414386804201525 -0.9659258262890678 0.1294095225512615
vn 0.2588190451025229 0.9659258262890678 0
vn 0.7071067811865464 0.7071067811865487 0
vn 0.9659258262890683 0.2588190451025209 0
vn 0.9659258262890684 -0.25881904510252046 0
vn 0.7071067811865461 -0.7071067811865489 0
vn 0.2588190451025229 -0.9659258262890678 0
vn 0.22414386804201522 0.9659258262890678 -0.12940952255126145
vn 0.6123724356957936 0.7071067811865487 -0.35355339059327323
vn 0.8365163037378079 0.25881904510252085 -0.48296291314453405
vn 0.8365163037378079 -0.2588190451025204 -0.48296291314453466
vn 0.6123724356957934 -0.707106781186549 -0.35355339059327306
vn 0.22414386804201522 -0.9659258262890678 -0.12940952255126145
vn 0.12940952255126148 0.9659258262890678 -0.22414386804201522
vn 0.35355339059327323 0.7071067811865487 -0.6123724356957936
vn 0.48296291314453416 0.25881904510252096 -0.836516303737808
vn 0.4829629131445345 -0.25881904510252096 -0.8365163037378077
vn 0.3535533905932733 -0.7071067811865487 -0.6123724356957936
vn 0.12940952255126148 -0.9659258262890678 -0.22414386804201522
vn 1.0723930924262126e-16 0.9659258262890678 -0.2588190451025229
vn 3.4660289604074017e-16 0.7071067811865487 -0.7071067811865464
vn 4.0022255066204975e-16 0.2588190451025209 -0.9659258262890683
vn 4.621371947209862e-16 -0.25881904510252046 -0.9659258262890685
vn 2.0011127533102524e-16 -0.7071067811865489 -0.7071067811865461
vn 1.0723930924262127e-16 -0.9659258262890678 -0.25881904510252296
vn -0.1294095225512614 0.9659258262890678 -0.22414386804201533
vn -0.353553390593273 0.7071067811865487 -0.6123724356957937
vn -0.48296291314453366 0.25881904510252085 -0.8365163037378082
vn -0.4829629131445342 -0.2588190451025204 -0.836516303737808
vn -0.35355339059327273 -0.7071067811865489 -0.6123724356957935
vn -0.1294095225512614 -0.9659258262890678 -0.22414386804201533
vn -0.22414386804201525 0.9659258262890678 -0.12940952255126145
vn -0.6123724356957935 0.7071067811865487 -0.3535533905932731
vn -0.8365163037378082 0.25881904510252085 -0.48296291314453366
vn -0.8365163037378078 -0.25881904510252096 -0.48296291314453416
vn -0.6123724356957937 -0.7071067811865487 -0.35355339059327323
vn -0.22414386804201525 -0.9659258262890678 -0.12940952255126145
vn -0.25881904510252296 0.9659258262890679 0
vn -0.7071067811865464 0.7071067811865488 0
vn -0.9659258262890685 0.2588190451025205 -4.0022255066205024e-16
vn -0.9659258262890684 -0.25881904510252046 -4.621371947209866e-16
vn -0.7071067811865464 -0.7071067811865488 0
vn -0.25881904510252296 -0.9659258262890679 0
vn -0.22414386804201536 0.9659258262890678 0.12940952255126142
vn -0.6123724356957937 0.7071067811865487 0.353553390593273
vn -0.8365163037378082 0.25881904510252085 0.48296291314453366
vn -0.836516303737808 -0.2588190451025204 0.4829629131445342
vn -0.6123724356957936 -0.7071067811865489 0.35355339059327284
vn -0.2241438680420153 -0.9659258262890678 0.1294095225512614
vn -0.12940952255126148 0.9659258262890678 0.22414386804201528
vn -0.3535533905932732 0.7071067811865487 0.6123724356957936
vn -0.4829629131445341 0.2588190451025209 0.8365163037378079
vn -0.4829629131445346 -0.258819045102521 0.8365163037378078
vn -0.35355339059327323 -0.7071067811865487 0.6123724356957937
vn -0.12940952255126148 -0.9659258262890678 0.22414386804201528
vn 0 0.9659258262890678 0.2588190451025229
vn 0 0.7071067811865487 0.7071067811865465
vn 0 0.2588190451025209 0.9659258262890683
vn 0 -0.2588190451025205 0.9659258262890685
vn 0 -0.707106781186549 0.7071067811865461
vn 0 -0.9659258262890678 0.2588190451025229
usemtl m_74f786be-01f3-4474-db8f-9d957d16f25d
f 4/1/1 2/2/1 1/3/1
f 2/4/2 4/5/2 5/6/2 3/7/2
f 3/8/3 5/9/3 14/10/3
f 6/11/4 4/12/4 1/13/4
f 4/14/5 6/15/5 7/16/5 5/17/5
f 5/18/6 7/19/6 14/20/6
f 8/21/7 6/22/7 1/23/7
f 6/24/8 8/25/8 9/26/8 7/27/8
f 7/28/9 9/29/9 14/30/9
f 10/31/10 8/32/10 1/33/10
f 8/34/11 10/35/11 11/36/11 9/37/11
f 9/38/12 11/39/12 14/40/12
f 12/41/13 10/42/13 1/43/13
f 10/44/14 12/45/14 13/46/14 11/47/14
f 11/48/15 13/49/15 14/50/15
f 2/51/16 12/52/16 1/53/16
f 12/54/17 2/55/17 3/56/17 13/57/17
f 13/58/18 3/59/18 14/60/18
f 17/61/19 22/62/19 16/63/19
f 17/64/20 18/65/20 23/66/20 22/67/20
f 18/68/21 19/69/21 24/70/21 23/71/21
f 19/72/22 20/73/22 25/74/22 24/75/22
f 20/76/23 21/77/23 26/78/23 25/79/23
f 26/80/24 21/81/24 15/82/24
f 22/83/25 27/84/25 16/85/25
f 22/86/26 23/87/26 28/88/26 27/89/26
f 23/90/27 24/91/27 29/92/27 28/93/27
f 24/94/28 25/95/28 30/96/28 29/97/28
f 25/98/29 26/99/29 31/100/29 30/101/29
f 31/102/30 26/103/30 15/104/30
f 27/105/31 32/106/31 16/107/31
f 27/108/32 28/109/32 33/110/32 32/111/32
f 28/112/33 29/113/33 34/114/33 33/115/33
f 29/116/34 30/117/34 35/118/34 34/119/34
f 30/120/35 31/121/35 36/122/35 35/123/35
f 36/124/36 31/125/36 15/126/36
f 32/127/37 37/128/37 16/129/37
f 32/130/38 33/131/38 38/132/38 37/133/38
f 33/134/39 34/135/39 39/136/39 38/137/39
f 34/138/40 35/139/40 40/140/40 39/141/40
f 35/142/41 36/143/41 41/144/41 40/145/41
f 41/146/42 36/147/42 15/148/42
f 37/149/43 42/150/43 16/151/43
f 37/152/44 38/153/44 43/154/44 42/155/44
f 38/156/45 39/157/45 44/158/45 43/159/45
f 39/160/46 40/161/46 45/162/46 44/163/46
f 40/164/47 41/165/47 46/166/47 45/167/47
f 46/168/48 41/169/48 15/170/48
f 42/171/49 47/172/49 16/173/49
f 42/174/50 43/175/50 48/176/50 47/177/50
f 43/178/51 44/179/51 49/180/51 48/181/51
f 44/182/52 45/183/52 50/184/52 49/185/52
f 45/186/53 46/187/53 51/188/53 50/189/53
f 51/190/54 46/191/54 15/192/54
f 47/193/55 52/194/55 16/195/55
f 47/196/56 48/197/56 53/198/56 52/199/56
f 48/200/57 49/201/57 54/202/57 53/203/57
f 49/204/58 50/205/58 55/206/58 54/207/58
f 50/208/59 51/209/59 56/210/59 55/211/59
f 56/212/60 51/213/60 15/214/60
f 52/215/61 57/216/61 16/217/61
f 52/218/62 53/219/62 58/220/62 57/221/62
f 53/222/63 54/223/63 59/224/63 58/225/63
f 54/226/64 55/227/64 60/228/64 59/229/64
f 55/230/65 56/231/65 61/232/65 60/233/65
f 61/234/66 56/235/66 15/236/66
f 57/237/67 62/238/67 16/239/67
f 57/240/68 58/241/68 63/242/68 62/243/68
f 58/244/69 59/245/69 64/246/69 63/247/69
f 59/248/70 60/249/70 65/250/70 64/251/70
f 60/252/71 61/253/71 66/254/71 65/255/71
f 66/256/72 61/257/72 15/258/72
f 62/259/73 67/260/73 16/261/73
f 62/262/74 63/263/74 68/264/74 67/265/74
f 63/266/75 64/267/75 69/268/75 68/269/75
f 64/270/76 65/271/76 70/272/76 69/273/76
f 65/274/77 66/275/77 71/276/77 70/277/77
f 71/278/78 66/279/78 15/280/78
f 67/281/79 72/282/79 16/283/79
f 67/284/80 68/285/80 73/286/80 72/287/80
f 68/288/81 69/289/81 74/290/81 73/291/81
f 69/292/82 70/293/82 75/294/82 74/295/82
f 70/296/83 71/297/83 76/298/83 75/299/83
f 76/300/84 71/301/84 15/302/84
f 72/303/85 17/304/85 16/305/85
f 72/306/86 73/307/86 18/308/86 17/309/86
f 73/310/87 74/311/87 19/312/87 18/313/87
f 74/314/88 75/315/88 20/316/88 19/317/88
f 75/318/89 76/319/89 21/320/89 20/321/89
f 21/322/90 76/323/90 15/324/90