# Blender 4.5.3 LTS
# www.blender.org
mtllib dead_bush_thing.mtl
o Cube
v 0.325000 0.119066 0.325000
v -0.325000 0.119066 0.325000
v -0.325000 0.119066 -0.325000
v 0.325000 0.119066 -0.325000
v -2.973029 12.112811 4.358494
v -3.160390 12.142913 4.195738
v -3.089413 12.379604 4.157808
v -2.902052 12.349504 4.320564
v -1.338053 11.230354 2.390756
v -1.569330 11.253530 2.152591
v -1.409651 11.509611 2.027786
v -1.178374 11.486437 2.265951
v 3.509178 12.234768 -1.655463
v 3.686303 12.312096 -1.496884
v 3.558249 12.523017 -1.456705
v 3.381124 12.445690 -1.615284
v 2.089829 10.924246 0.450507
v 2.261231 10.977132 0.725009
v 2.093345 11.260571 0.775805
v 1.921943 11.207685 0.501303
v -1.731784 9.781092 -6.415708
v -1.571384 9.942662 -6.518989
v -1.463920 9.978442 -6.296119
v -1.624319 9.816873 -6.192838
v -0.953733 8.748683 -6.625360
v -0.676711 8.870792 -6.748204
v -0.599295 9.015826 -6.466547
v -0.876317 8.893717 -6.343702
v -0.479602 7.378571 -5.241809
v -0.149446 7.389380 -5.279412
v -0.139989 7.690333 -5.155797
v -0.470146 7.679523 -5.118194
v -3.770945 10.970388 1.252266
v -3.699066 10.930292 0.931115
v -3.451233 11.132133 0.970650
v -3.523113 11.172229 1.291801
v -4.220993 13.266163 0.462834
v -4.198951 13.283554 0.140089
v -3.994848 13.515430 0.194009
v -4.016889 13.498038 0.516754
v -6.583582 13.400940 1.182144
v -6.654830 13.461519 0.950295
v -6.628196 13.703903 1.005442
v -6.556950 13.643323 1.237291
v -2.087324 9.492775 -3.927150
v -2.144091 9.618447 -4.203757
v -1.963979 9.875112 -4.101905
v -1.907212 9.749438 -3.825298
v 2.511378 9.258221 -2.777574
v 2.519288 9.286988 -2.452178
v 2.494710 9.602254 -2.498610
v 2.486800 9.573486 -2.824007
v 4.816300 8.255977 -1.284627
v 4.580494 8.255978 -1.201587
v 4.592893 8.503176 -1.166380
v 4.828698 8.503176 -1.249420
v 4.051468 10.269719 -4.677452
v 4.300330 10.269719 -4.653619
v 4.282284 10.433026 -4.465191
v 4.033423 10.433026 -4.489024
v -3.806620 9.197332 -1.946061
v -3.978462 9.331411 -2.068507
v -3.894323 9.539604 -1.958615
v -3.722481 9.405525 -1.836169
v -2.679316 5.481464 -0.045791
v -2.663389 5.481464 -0.295283
v -2.500273 5.670633 -0.284870
v -2.516201 5.670633 -0.035378
v -0.763747 7.715794 -3.451332
v -0.584477 7.722721 -3.892764
v -0.392103 8.007952 -3.707514
v -0.503913 7.952069 -3.324686
v 0.077167 6.133670 -0.579680
v 0.443621 6.159727 -0.681021
v 0.463640 6.541049 -0.571226
v 0.134650 6.643849 -0.384655
v -0.458195 7.194664 -3.172692
v -0.048203 7.148152 -3.282754
v 0.059553 7.532518 -3.071530
v -0.373556 7.552780 -2.983442
v -0.889193 9.463552 1.538719
v -0.830999 9.494764 1.177084
v -0.712487 9.870646 1.259559
v -0.704765 9.863503 1.621513
v -0.072032 7.290136 -3.876470
v -0.081889 7.672941 -3.911261
v -0.537576 9.648848 1.732633
v -0.866505 9.771976 1.516618
v -0.239706 9.924044 1.563710
v 0.003806 9.557353 1.098281
v 0.020053 9.519241 1.465975
v -0.297350 9.861583 1.134869
v 0.315941 6.470149 0.225617
v 0.005738 6.401375 0.010736
v 0.492118 6.610872 -0.102502
v -0.256079 9.061852 1.463067
v -0.606286 9.011994 1.284042
v -0.464129 9.229170 0.994693
v -0.073988 9.191766 1.147984
v 0.081548 3.658285 -0.294992
v -0.118244 3.746872 0.215384
v -0.225135 3.872468 -0.174296
v 0.313624 5.670480 -0.430518
v 0.531007 5.785837 -0.157182
v 0.216562 5.833297 0.101389
v 0.032054 5.784067 -0.245395
v 0.416667 1.905050 0.416667
v -0.416667 1.905050 0.416667
v -0.416667 1.905050 -0.416667
v 0.416667 1.905050 -0.416667
v 0.194022 2.988714 0.193395
v -0.231041 2.952553 0.208618
v -0.204260 2.947346 -0.224827
v 0.196294 2.913815 -0.214430
v 0.189835 7.536157 -3.552230
v -0.141364 7.887310 -3.202301
v -0.009480 7.899757 -3.615798
v 3.589490 8.730247 -3.147582
v 3.636231 8.736133 -2.775098
v 3.819487 9.073721 -2.861048
v 3.734374 9.141219 -3.279060
v 4.258339 8.511292 -2.891537
v 3.968885 8.495152 -2.657218
v 4.022718 8.822061 -2.627679
v 4.341579 8.833560 -2.778510
v 3.859532 8.934441 -3.564670
v 4.242548 8.915699 -3.493561
v 4.204370 9.149263 -3.218933
v -0.467893 3.454842 0.142866
v -0.411152 3.480643 -0.221302
v -0.814202 9.885551 1.234936
v -0.878671 9.851409 1.535968
v -0.398252 10.002455 1.598370
v -0.623898 9.996282 1.322001
v -0.846908 9.871029 1.501441
v -0.659014 9.869443 1.768322
v -0.887096 9.411561 1.330262
v -0.489864 9.936379 1.734276
v -0.742148 9.245291 1.419211
v -0.680092 9.398559 1.101621
v -0.601093 9.081491 1.115956
v 0.444856 6.524559 0.117862
v -0.477987 9.003773 1.416573
v -0.487308 9.934587 1.248997
v -0.425325 9.346257 1.631852
v -0.748110 9.535487 1.660436
v -0.341327 9.948382 1.557580
v -0.902050 9.643116 1.589417
v -0.750005 9.864051 1.382784
v -0.795667 9.858500 1.392856
v -0.744189 9.681814 1.146634
v -0.650629 9.857213 1.673720
v -0.116643 9.679221 1.054813
v -0.819324 9.925843 1.389078
v -0.389207 9.551064 1.042759
v -0.062382 9.399430 1.116000
v -0.229015 9.213306 1.005929
v -0.099285 9.071509 1.309058
v -0.558826 9.833792 1.163857
v -0.003887 9.328802 1.306150
v -0.122132 9.286871 1.502358
v -0.254083 9.585682 1.653694
v -0.822373 9.805840 1.560118
v -0.675044 9.793970 1.703952
v -0.401401 9.813676 1.694929
v -0.497372 9.898959 1.654561
v -0.750833 9.877263 1.464813
v -0.225381 9.970453 1.339415
v 0.153748 6.457268 0.202669
v 0.075923 9.514603 1.241665
v 0.260411 3.699748 -0.132289
v 0.538333 6.205422 -0.123843
v -0.954975 9.699863 1.589852
v 0.502214 6.535065 -0.350000
v 0.325861 6.634232 -0.507406
v 0.342479 6.722945 -0.238558
v 0.016148 6.573891 -0.175784
v 0.039664 6.408872 -0.519236
v 0.037314 5.961649 -0.402406
v -0.004300 6.072818 -0.125608
v 0.073344 5.763727 -0.037057
v 0.100255 6.113473 0.092590
v 0.298629 6.166921 0.167049
v 0.414297 5.784416 0.044761
v -0.755156 9.856843 1.239548
v 0.505829 6.009500 -0.425962
v 0.455359 5.680212 -0.339956
v 0.507289 6.348210 -0.632676
v -0.740933 7.682396 -3.657087
v 0.284372 6.084341 -0.687605
v -0.077408 3.825522 -0.274275
v 0.229511 5.878433 -0.513436
v 0.156491 5.688697 -0.395929
v -0.486621 7.229683 -3.507183
v 0.065401 3.342532 0.231544
v 0.250260 3.373051 0.097266
v 0.272430 2.934157 -0.022498
v -0.857115 9.791369 1.518274
v 0.164315 3.265011 -0.233203
v -0.336027 3.691180 -0.249778
v -0.177412 3.548477 -0.294826
v 0.013689 2.895104 -0.285780
v -0.062937 3.279281 -0.292549
v -0.495526 3.405091 -0.031886
v -0.901882 9.536236 1.207188
v -0.352565 3.588207 0.225050
v -0.169972 3.306109 0.247571
v -0.013763 2.907380 0.274185
v -0.307211 2.889419 -0.005836
v -0.623077 7.461571 -3.341345
v -0.955527 9.515820 1.527394
v -0.580516 7.460199 -3.878336
v -0.309429 7.746239 -3.942909
v 3.817623 8.606854 -2.749874
v -0.029638 7.479077 -3.939892
v -0.265621 7.220086 -3.901969
v -0.055201 7.203899 -3.606344
v -0.261761 7.085775 -3.193603
v -3.090453 12.109897 4.301126
v -0.472375 7.370785 -3.026854
v 3.925640 8.585554 -3.059617
v -0.462334 7.731272 -3.148468
v -0.676349 7.825146 -3.332760
v -0.413180 8.039034 -3.522312
v -3.161397 12.272528 4.178794
v -0.462057 7.905267 -3.830461
v -3.003923 12.398459 4.254885
v 0.144163 7.755733 -3.622286
v 0.066713 7.608367 -3.751698
v -0.067666 7.792598 -3.768432
v 0.068402 7.383103 -3.707574
v -0.220741 7.931979 -3.663274
v 0.097417 7.318926 -3.416879
v 0.191169 7.515992 -3.295050
v 0.062088 7.307310 -3.130724
v -0.171569 7.551780 -2.967646
v -0.034936 7.740951 -3.096705
v -0.279559 7.737256 -3.089199
v -0.317694 7.916728 -3.275622
v -2.932978 12.235828 4.377217
v -0.083360 7.963439 -3.416351
v 4.088589 8.433078 -2.744001
v 3.590276 8.672427 -2.915155
v 3.710290 8.893670 -2.750013
v -0.465721 10.023580 1.427430
v 3.772761 9.162467 -3.053995
v 3.571529 8.931541 -3.252553
v 3.760852 9.033655 -3.472981
v -0.000000 0.092974 -0.396219
v 4.055084 8.885467 -3.566923
v 4.242889 8.716403 -3.219633
v -0.396219 0.092974 -0.000000
v 4.389087 8.678043 -2.848809
v 4.186469 8.887356 -2.692885
v -0.774172 9.933226 1.360792
v 3.943829 8.658092 -2.616045
v -0.000000 0.092974 0.396219
v 3.945278 8.929939 -2.759873
v 0.396219 0.092974 -0.000000
v 4.037239 9.112456 -3.010447
v 3.992678 9.215667 -3.254718
v -0.798314 9.846024 1.667637
v 4.304603 9.027603 -3.366689
v 3.437235 12.342143 -1.670649
v 3.467148 12.517851 -1.549492
v 3.653175 12.436416 -1.477320
v 3.623262 12.260708 -1.598476
v -1.712730 9.801461 -6.287950
v -1.549448 9.921759 -6.215052
v -1.517181 9.998436 -6.413864
v -1.680462 9.878137 -6.486761
v -6.586867 13.516414 1.242862
v -6.614063 13.701092 1.135150
v -6.673727 13.590268 0.960206
v -6.646532 13.405593 1.067918
v 4.856117 8.376040 -1.254026
v 4.719935 8.526723 -1.181947
v 4.568638 8.376039 -1.152789
v 4.704820 8.225355 -1.224869
v 4.016758 10.370577 -4.602342
v 4.157456 10.470122 -4.472954
v 4.320154 10.370576 -4.573287
v 4.179456 10.271030 -4.702674
v -3.763160 9.283018 -1.857300
v -3.816621 9.491655 -1.864952
v -3.972659 9.446478 -2.006578
v -3.919198 9.237841 -1.998926
v -2.617811 5.591898 -0.014417
v -2.508672 5.707210 -0.160152
v -2.598393 5.591898 -0.318581
v -2.707532 5.476587 -0.172847
v -0.776213 7.939153 -3.853317
v -0.548831 8.151429 -3.754550
v -1.996095 9.404360 -3.927901
v -2.149478 9.507487 -4.084551
v -1.972004 9.476995 -4.230054
v -2.064679 9.770344 -4.204695
v -1.760026 9.712758 -4.138270
v -1.901824 9.860399 -3.944504
v -1.784116 9.640121 -3.836118
v -1.986624 9.597543 -3.824360
v 0.416825 6.591007 -0.786588
v 0.098298 6.614945 -0.692833
v 0.013841 7.385026 -2.855196
v -0.330220 7.390876 -2.780770
v -4.324363 13.288969 0.488082
v -4.354418 13.341160 0.168770
v -4.248242 13.231383 0.291352
v -4.225359 13.623166 0.227636
v -4.092767 13.402755 0.106534
v -4.195304 13.570976 0.546948
v -3.967599 13.550211 0.365491
v -4.123074 13.378840 0.550309
v -6.451945 13.354362 1.166755
v -6.542872 13.431676 0.870861
v -6.508883 13.741014 0.941241
v -6.417955 13.663700 1.237135
v -3.876978 11.182704 1.184590
v -3.790633 11.119379 0.870606
v -3.781474 10.912495 1.084278
v -3.506892 11.263560 0.927930
v -3.561673 11.023695 0.890667
v -3.593237 11.326885 1.241915
v -3.440705 11.190027 1.138639
v -3.660506 11.078827 1.332250
v -4.183550 13.177484 0.485747
v -4.120736 13.147483 0.168349
v -3.857899 13.311091 0.229971
v -3.920712 13.341091 0.547369
v -3.586529 10.808255 1.295366
v -3.533545 10.788419 0.968485
v -3.332613 11.040546 0.993799
v -3.385597 11.060383 1.320679
v -0.472065 7.302420 -4.132894
v -0.133979 7.645113 -4.135593
v -0.498522 7.645320 -4.131853
v -0.465835 7.330300 -5.029079
v -0.316297 7.327547 -5.283788
v -0.133837 7.334978 -5.048018
v -0.082813 7.541884 -5.224656
v -0.303294 7.741357 -5.113818
v -0.461890 7.649603 -4.961325
v -0.536778 7.527020 -5.172951
v -0.513431 7.485754 -5.420412
v -0.186034 7.505400 -5.475441
v -0.168320 7.779906 -5.299673
v -0.495717 7.760259 -5.244644
v -0.876179 8.596465 -6.540349
v -0.829738 8.782543 -6.739593
v -0.575151 8.674789 -6.642794
v -0.586061 8.966207 -6.630409
v -0.522773 8.865492 -6.382413
v -0.723290 8.981966 -6.352314
v -0.823801 8.787165 -6.279968
v -0.966967 8.798303 -6.461498
v -0.829504 9.086853 -6.766953
v -1.680854 9.650091 -6.457966
v -1.476147 9.856291 -6.589777
v -1.338997 9.901956 -6.305343
v -1.543705 9.695755 -6.173531
v -1.483631 11.193929 2.295074
v -1.558757 11.636847 2.200213
v -1.532855 11.385917 2.045532
v -1.264073 11.546041 2.123468
v -1.214849 11.354052 2.373010
v -2.874872 12.034992 4.284145
v -3.113989 12.073410 4.076429
v -3.023406 12.375484 4.028022
v -2.784289 12.337067 4.235737
v -0.721397 9.986321 1.856348
v -0.941747 9.985613 1.598082
v -1.249668 11.096779 2.302846
v -1.285020 11.328740 1.901984
v 2.405867 11.090510 0.578558
v 2.207009 10.897544 0.578234
v 2.236562 11.372879 0.630606
v 2.209426 11.128768 0.801876
v 1.976165 11.287271 0.648078
v 1.973748 11.056048 0.424436
v 3.443323 12.141559 -1.590891
v 3.669376 12.240247 -1.388507
v 3.505950 12.509432 -1.337229
v 3.279896 12.410746 -1.539613
v 0.140389 9.689202 1.061749
v 0.029956 9.994924 1.445387
v -0.042241 9.980673 1.110320
v -0.012037 6.710939 0.146154
v 0.110933 6.863620 -0.145637
v -0.077262 8.953053 1.052152
v 0.000594 4.060867 0.163669
v -0.129102 4.071073 -0.143708
v -0.201513 3.929222 0.026435
v 0.328421 5.446537 -0.383020
v 0.497915 5.457402 -0.092733
v 0.414776 0.253198 0.414776
v -0.414776 0.253198 0.414776
v -0.414776 0.253198 -0.414776
v 0.414776 0.253198 -0.414776
v 0.000000 1.905050 0.572917
v -0.572917 1.905050 0.000000
v -0.000000 1.905050 -0.572917
v 0.572917 1.905050 -0.000000
v 0.249438 7.711798 -3.114049
v 0.072485 7.991369 -3.183912
v 0.179344 7.992028 -3.513466
v 2.395228 9.209639 -2.795342
v 2.519941 9.213492 -2.606170
v 2.350742 9.228718 -2.471445
v 2.508482 9.450016 -2.414382
v 2.250870 9.530059 -2.520033
v 2.486146 9.646984 -2.670015
v 2.295356 9.510980 -2.843930
v 2.497606 9.410460 -2.861802
v 2.633512 9.225117 -2.803755
v 2.694481 9.251938 -2.483107
v 2.746148 9.564405 -2.536363
v 3.488157 9.159258 -3.132158
v 4.386100 8.430061 -2.621292
v 4.807154 8.240019 -1.414551
v 4.506211 8.240019 -1.308573
v 4.522034 8.555502 -1.263640
v 4.822978 8.555502 -1.369619
v 4.222332 9.319114 -3.444013
v 3.862895 9.308001 -3.480757
v 4.011469 10.148437 -4.621982
v 4.329074 10.148437 -4.591565
v 4.306045 10.356854 -4.351087
v 3.988439 10.356854 -4.381503
v -2.184462 9.501690 -3.842630
v -2.323366 9.659988 -4.072412
v -2.175625 9.929510 -3.952106
v -2.036721 9.771212 -3.722324
v -3.704859 9.169183 -2.049198
v -3.924171 9.340299 -2.205467
v -3.816790 9.606002 -2.065219
v -3.597478 9.434885 -1.908950
v -0.395712 3.913635 -0.170521
v -0.377194 3.902645 0.161738
v -2.609932 5.373855 -0.006762
v -2.589605 5.373855 -0.325172
v -2.381431 5.615278 -0.311883
v -2.401758 5.615279 0.006528
v 0.399159 6.640743 -0.357623
v 0.019701 6.446311 -0.751008
v 0.265037 6.662617 -0.719103
v -1.894623 9.508620 -3.825356
v -1.732325 9.720645 -3.969984
v -1.861498 9.608496 -4.240815
v -2.023796 9.396473 -4.096187
v -0.059382 9.223447 1.378842
v -0.257610 9.403496 1.619811
v -0.244714 9.731250 1.652689
v -0.534314 9.856299 1.698045
v -0.795796 9.858819 1.456878
v -0.188170 3.683532 -0.279133
v 0.010613 9.407992 1.220772
v 0.017325 6.415668 -0.324978
v 0.045600 5.987172 -0.013081
v 0.180647 6.239749 0.171583
v 0.168976 3.489911 0.181302
v -0.342249 7.138580 -3.418904
v 0.132379 5.843688 -0.458822
v -0.198594 7.181863 -3.688750
v 0.045538 3.155907 -0.282393
v -0.187889 3.352544 -0.284017
v -0.290671 3.373904 0.230418
v -0.037959 3.183242 0.255177
v -0.638678 8.048743 -3.861907
v -2.646521 5.625160 -0.168952
v -3.904505 9.356941 -1.889129
v 4.171771 10.410879 -4.622426
v 4.728707 8.368616 -1.157037
v 3.682390 8.906096 -3.370630
v -6.681519 13.555274 1.117779
v 0.055834 7.720831 -3.714790
v 0.043692 7.488487 -3.802374
v -1.650848 9.942299 -6.340399
v 0.054966 7.284448 -3.572779
v 0.113743 7.376319 -3.282699
v -0.621511 7.438035 -3.593498
v -0.172489 7.670453 -3.057169
v -0.362231 7.810821 -3.152330
v 3.569321 12.411076 -1.611550
v -0.475079 9.902351 1.670551
v -0.750408 9.846765 1.552245
v -0.645656 9.894753 1.262999
v 0.253207 3.316479 -0.075645
v -0.920431 9.648795 1.579238
v -0.952417 9.469341 1.363046
v -0.813211 9.703756 1.166976
v -0.785113 9.877296 1.381394
v 3.943313 9.161528 -3.109364
v 0.546567 6.272347 -0.375789
v 3.999172 8.714899 -3.317457
v -0.000000 0.038219 0.000000
v 0.442800 6.160531 0.068420
v -0.592621 9.627875 1.091419
v -0.566356 7.585563 -3.198897
v 4.119279 8.999207 -2.864757
v -0.751006 9.273103 1.236143
v -3.080695 12.270904 4.319672
v -0.201902 9.459345 1.044826
v -0.253045 7.965040 -3.470678
v -0.362349 9.961952 1.379880
v 3.853780 8.542629 -2.865549
v -0.258703 7.841962 -3.806534
v -0.816135 9.704438 1.649854
v 3.843495 8.766649 -2.715731
v 0.381585 5.901294 -0.494295
v 0.057106 7.224982 -2.925002
v -0.153612 7.442860 -2.794363
v -4.363589 13.262191 0.317389
v -4.295524 13.491950 0.138332
v -4.186133 13.649947 0.398329
v -4.254198 13.420187 0.577386
v -6.506206 13.334945 1.006337
v -6.545381 13.600972 0.851177
v -6.459434 13.760612 1.103185
v -6.420259 13.494585 1.258345
v -3.887007 11.124009 1.016849
v -3.496863 11.322258 1.095671
v -3.751297 11.266670 1.272125
v -4.201425 13.131806 0.315494
v -3.977540 13.223663 0.139647
v -3.840024 13.356770 0.400224
v -4.063909 13.264913 0.576070
v -3.597712 10.751061 1.127179
v -3.321430 11.097739 1.161985
v -3.495998 10.938039 1.369312
v -0.067666 7.476133 -4.139258
v -0.316561 7.707332 -4.135378
v -0.550190 7.471620 -4.131968
v -0.300576 7.272769 -5.051252
v -0.295151 7.711811 -4.958090
v -0.353054 7.444108 -5.480882
v -0.328697 7.821552 -5.239202
v -0.735486 8.599871 -6.640394
v -0.492519 8.784825 -6.531812
v -0.663467 8.862083 -6.282370
v -0.906433 8.677128 -6.390950
v -0.973813 8.985065 -6.755121
v -0.729291 9.167412 -6.645624
v -1.605975 9.746593 -6.576860
v -1.370767 9.919885 -6.471851
v -1.417249 9.809431 -6.185461
v -1.652457 9.636140 -6.290470
v -1.414546 11.674652 2.297425
v -3.013037 11.998187 4.191347
v -3.115232 12.232455 4.015126
v -2.888390 12.413862 4.124735
v -2.786194 12.179591 4.300954
v -0.873787 9.956360 1.763048
v -0.559851 10.066362 1.810993
v -1.396516 11.062006 2.208491
v -1.138172 11.363510 1.996338
v 2.359390 11.246171 0.650719
v 3.588211 12.141313 -1.501106
v 3.631301 12.394421 -1.326579
v 3.363328 12.511726 -1.430544
v 3.320238 12.258620 -1.605071
v 0.216642 9.636981 1.212667
v 0.141683 9.845860 1.476664
v -0.035434 10.043945 1.286402
v 0.036242 9.830559 1.025566
v -0.007185 6.787835 -0.028873
v 0.291438 6.902153 -0.103835
v -0.204998 8.983895 0.926874
v -0.089085 8.870331 1.212082
v -0.118074 4.081999 0.035567
v -0.013208 4.044471 -0.268708
v 0.384231 5.482180 0.048722
v 0.155836 5.470499 -0.355456
v -0.000000 0.250626 0.570756
v -0.570756 0.250626 -0.000000
v 0.000000 0.250626 -0.570756
v 0.570756 0.250626 0.000000
v 0.339863 7.660989 -3.271104
v 0.142475 7.853473 -3.089475
v 0.093983 8.044011 -3.360232
v 0.291903 7.852885 -3.542481
v 2.391711 9.162676 -2.624283
v 2.292464 9.382965 -2.435009
v 2.254387 9.577022 -2.691092
v 2.353634 9.356732 -2.880366
v 2.654309 9.179940 -2.633445
v 2.731745 9.413200 -2.449613
v 2.725351 9.609584 -2.706672
v 2.647915 9.376323 -2.890504
v 3.565284 9.215719 -2.983170
v 3.388193 8.998554 -3.153906
v 4.223264 8.367674 -2.565991
v 4.654475 8.180350 -1.367832
v 4.458304 8.397411 -1.264001
v 4.676248 8.614473 -1.306003
v 4.872419 8.397411 -1.409834
v 4.037392 9.355275 -3.418774
v 3.823387 9.202724 -3.616022
v 4.174757 10.111140 -4.653616
v 4.377434 10.254539 -4.467233
v 4.143067 10.397937 -4.322704
v 3.940391 10.254539 -4.509088
v -2.281616 9.530302 -3.980078
v -2.275540 9.824430 -4.055343
v -2.078471 9.900896 -3.814657
v -2.084547 9.606770 -3.739392
v -3.836425 9.204414 -2.151691
v -3.913436 9.504958 -2.162715
v -3.688663 9.570036 -1.958702
v -3.611651 9.269493 -1.947679
v -0.499656 3.778991 -0.248058
v -0.349540 3.962137 0.001173
v -0.500745 3.767820 0.206127
v -2.640716 5.330022 -0.168581
v -2.483501 5.496129 -0.378513
v -2.354257 5.662236 -0.150294
v -2.511472 5.496129 0.059638
vn -0.9098 -0.2874 0.2994
vn 0.0434 0.9479 -0.3155
vn -0.2409 -0.8073 -0.5387
vn -0.9306 0.3512 0.1026
vn -0.4119 0.2021 -0.8885
vn -0.0985 0.9950 0.0174
vn 0.5049 0.8626 0.0310
vn 0.8100 0.3059 0.5003
vn 0.6142 -0.7867 -0.0614
vn -0.8179 -0.3184 -0.4792
vn 0.0574 0.0028 0.9983
vn -0.3971 -0.4184 0.8169
vn 0.8421 -0.0036 0.5392
vn 0.6065 0.7806 -0.1510
vn -0.1283 0.0451 -0.9907
vn 0.2749 0.5252 -0.8053
vn 0.0542 0.3167 0.9470
vn -0.4236 -0.9058 0.0036
vn -0.6621 -0.7305 0.1674
vn 0.9375 -0.3477 -0.0116
vn 0.8336 -0.3498 0.4276
vn 0.6449 -0.4715 0.6015
vn 0.1012 0.2724 -0.9568
vn 0.1899 -0.2230 0.9561
vn 0.2934 -0.3976 0.8694
vn -0.3111 0.0988 -0.9452
vn 0.2643 -0.0037 0.9644
vn 0.6286 -0.1344 -0.7660
vn -0.2544 0.7293 0.6352
vn 0.0207 0.1641 0.9862
vn -0.4961 0.8313 0.2506
vn -0.2927 0.9539 -0.0664
vn -0.7405 0.6658 0.0914
vn -0.2720 0.6375 0.7208
vn -0.4844 -0.5725 -0.6616
vn -0.2983 0.4178 -0.8582
vn 0.9266 -0.3546 0.1252
vn 0.9026 -0.2308 -0.3634
vn 0.7751 -0.3792 -0.5055
vn -0.8863 0.3908 -0.2484
vn 0.1360 0.2437 0.9603
vn 0.9765 -0.2067 -0.0616
vn -0.9602 -0.1801 0.2134
vn -0.6686 -0.2127 0.7126
vn -0.8880 -0.1111 0.4462
vn -0.3003 -0.1880 0.9351
vn -0.1009 -0.1706 0.9802
vn -0.7242 -0.1055 0.6815
vn 0.5817 0.0487 0.8119
vn -0.5001 -0.8651 -0.0384
vn -0.3128 -0.9450 -0.0955
vn -0.2743 -0.4278 -0.8612
vn -0.8011 -0.3611 -0.4774
vn -0.5825 -0.4047 -0.7049
vn 0.3374 -0.8958 -0.2892
vn 0.0070 0.1728 -0.9849
vn 0.5740 0.2577 -0.7773
vn 0.7210 -0.1539 0.6756
vn 0.2841 0.4147 -0.8645
vn -0.6172 -0.2325 0.7517
vn -0.2137 0.5959 -0.7741
vn -0.2135 -0.0184 0.9768
vn 0.2892 0.0411 0.9564
vn 0.9718 -0.1209 -0.2022
vn -0.2670 0.9230 0.2770
vn 0.2799 -0.9283 -0.2449
vn 0.5312 0.4150 -0.7387
vn 0.0837 0.1077 -0.9907
vn -0.2168 0.8991 0.3802
vn 0.0112 -0.9908 0.1351
vn -0.5322 0.8110 0.2431
vn -0.4969 0.8110 -0.3088
vn -0.8578 0.3925 -0.3319
vn -0.8930 0.3925 0.2201
vn -0.2708 -0.0341 0.9620
vn -0.6878 0.2913 0.6649
vn -0.8920 -0.2140 0.3982
vn -0.4750 -0.5393 0.6954
vn -0.2498 0.8795 -0.4051
vn 0.3221 0.8795 -0.3503
vn 0.3636 0.5042 -0.7833
vn -0.2083 0.5042 -0.8381
vn 0.5726 0.1303 0.8094
vn 0.0610 0.1303 0.9896
vn 0.0341 -0.4060 0.9132
vn 0.5457 -0.4060 0.7331
vn -0.7827 0.3684 -0.5016
vn 0.1614 -0.2330 0.9590
vn 0.9029 -0.1333 -0.4087
vn -0.2169 0.1986 -0.9558
vn 0.9356 0.3529 0.0141
vn -0.7556 0.2434 0.6082
vn -0.9207 0.3838 0.0708
vn -0.9824 -0.1779 -0.0570
vn -0.8173 -0.3183 0.4804
vn 0.5370 0.5499 -0.6397
vn 0.8121 0.0806 -0.5779
vn 0.6799 0.4428 -0.5845
vn 0.8673 -0.0894 -0.4897
vn 0.8259 -0.3046 -0.4744
vn 0.8011 0.2158 -0.5584
vn -0.6384 0.5260 0.5619
vn -0.2512 0.9161 0.3126
vn -0.5106 0.8297 -0.2255
vn -0.8979 0.4396 0.0238
vn 0.8722 -0.4521 -0.1869
vn 0.6765 -0.7294 -0.1021
vn 0.6958 -0.6512 -0.3032
vn 0.9030 -0.4297 0.0001
vn 0.8863 -0.2333 0.4000
vn 0.8130 -0.5771 0.0770
vn -0.8881 -0.2731 -0.3697
vn 0.8577 -0.3655 -0.3615
vn 0.2862 0.3903 0.8751
vn 0.4048 0.6998 0.5886
vn -0.2764 0.5348 0.7985
vn 0.1176 0.5501 -0.8268
vn 0.5016 0.7177 -0.4830
vn 0.7792 0.2605 -0.5701
vn 0.3952 0.0928 -0.9139
vn 0.7633 -0.1295 0.6329
vn 0.3241 -0.8942 0.3087
vn 0.2187 -0.9333 -0.2847
vn 0.7997 -0.4247 -0.4244
vn 0.0723 -0.9946 0.0738
vn -0.1955 -0.9761 -0.0949
vn 0.8943 -0.4403 0.0799
vn -0.2965 0.8762 -0.3800
vn -0.6696 -0.4271 -0.6076
vn -0.3109 0.5265 -0.7913
vn -0.1838 0.7071 -0.6828
vn -0.8368 0.4214 0.3496
vn 0.9024 0.0208 -0.4304
vn 0.7702 -0.0223 -0.6374
vn -0.5261 -0.8481 -0.0628
vn 0.9784 -0.0070 0.2067
vn 0.1916 0.3768 0.9063
vn 0.5489 0.0648 0.8334
vn -0.4234 -0.8675 -0.2611
vn -0.6103 -0.7680 0.1943
vn 0.7656 0.6418 -0.0442
vn -0.6487 -0.5723 -0.5018
vn 0.0317 0.4702 -0.8820
vn 0.1307 0.9911 0.0238
vn 0.6342 0.7688 -0.0826
vn 0.7979 0.2857 0.5308
vn 0.8871 -0.4077 0.2164
vn -0.2785 -0.2359 0.9310
vn -0.1626 0.9832 0.0825
vn 0.9515 -0.1632 -0.2607
vn 0.9907 0.1319 0.0340
vn 0.9958 -0.0619 -0.0670
vn -0.7839 -0.5284 0.3260
vn 0.2716 -0.7993 -0.5360
vn 0.1137 -0.8677 -0.4840
vn 0.1225 -0.9849 0.1225
vn -0.1225 -0.9849 0.1225
vn -0.1225 -0.9849 -0.1225
vn 0.1225 -0.9849 -0.1225
vn 0.3837 -0.1739 0.9069
vn -0.5737 -0.6785 -0.4588
vn 0.9424 0.0234 0.3336
vn -0.2867 0.4458 -0.8480
vn -0.1219 0.3281 -0.9367
vn -0.8380 0.2453 0.4875
vn -0.2410 -0.0876 -0.9666
vn -0.6467 -0.6985 0.3065
vn -0.7038 0.2446 0.6670
vn -0.5155 0.3554 0.7797
vn -0.8128 -0.1325 0.5672
vn -0.9024 -0.2251 0.3675
vn 0.1959 0.7570 0.6233
vn -0.0224 0.8052 0.5925
vn -0.6882 -0.4082 -0.5998
vn -0.6489 -0.1949 -0.7355
vn -0.8571 -0.4987 -0.1293
vn -0.7665 -0.6400 0.0528
vn -0.2320 0.5181 0.8233
vn -0.6813 0.5902 0.4331
vn -0.8514 0.0227 0.5240
vn -0.4022 -0.0494 0.9142
vn 0.3128 -0.1446 -0.9387
vn 0.5793 -0.0370 -0.8143
vn -0.9191 0.2373 0.3147
vn -0.0195 0.9581 0.2856
vn 0.1399 0.9695 -0.2013
vn 0.4322 0.8971 -0.0912
vn 0.1754 0.9074 0.3820
vn 0.0038 0.9257 -0.3782
vn 0.2144 0.8635 -0.4566
vn 0.5620 0.8249 -0.0606
vn 0.0864 0.9856 0.1456
vn -0.5384 -0.8359 0.1070
vn -0.5105 -0.7610 0.4003
vn -0.3488 -0.8974 -0.2701
vn -0.0961 -0.9148 -0.3923
vn -0.0144 -0.9245 0.3809
vn 0.0035 0.5796 -0.8149
vn -0.5765 0.5165 0.6332
vn -0.7349 0.4510 0.5065
vn -0.2979 -0.0760 0.9516
vn -0.5010 0.4068 0.7638
vn -0.0278 0.4258 0.9044
vn -0.2608 -0.0971 0.9605
vn -0.6856 -0.1638 0.7093
vn 0.5358 -0.5752 -0.6181
vn 0.8501 -0.2512 -0.4628
vn 0.3616 -0.3457 -0.8658
vn -0.2343 -0.5907 -0.7721
vn -0.5076 -0.8409 -0.1878
vn 0.3100 -0.0336 -0.9502
vn 0.9859 0.0656 0.1541
vn 0.3668 0.7649 0.5295
vn -0.1109 0.7977 0.5927
vn 0.1259 0.2955 0.9470
vn 0.0062 0.9902 -0.1397
vn 0.2998 0.2755 -0.9134
vn -0.3576 -0.8280 -0.4318
vn -0.1863 -0.9600 0.2089
vn 0.3193 0.7172 -0.6194
vn 0.1142 0.5303 -0.8401
vn -0.1610 0.0937 -0.9825
vn 0.4166 0.8003 0.4312
vn 0.3789 0.8952 -0.2347
vn 0.0168 -0.5944 0.8040
vn 0.2295 0.5967 0.7690
vn 0.4186 -0.7769 0.4704
vn 0.0038 0.5493 0.8356
vn -0.3412 -0.9195 0.1950
vn -0.5158 -0.7710 -0.3734
vn -0.6191 -0.0701 -0.7822
vn -0.5538 0.5241 -0.6470
vn -0.3273 0.9448 0.0170
vn -0.1526 0.7962 0.5854
vn -0.0494 0.0953 0.9942
vn -0.1147 -0.4989 0.8590
vn 0.2523 0.6222 0.7411
vn -0.7548 0.2449 -0.6086
vn -0.7306 -0.5059 -0.4585
vn -0.9013 -0.3892 0.1903
vn 0.4402 0.8836 0.1597
vn 0.7445 0.4784 0.4656
vn 0.9257 0.3362 -0.1734
vn -0.6336 -0.3929 -0.6665
vn -0.5691 -0.0174 0.8221
vn -0.9115 -0.3569 0.2044
vn -0.7495 -0.4953 -0.4391
vn -0.0408 -0.2971 -0.9540
vn 0.5131 0.1865 -0.8378
vn 0.8288 0.5103 -0.2296
vn 0.7193 0.5407 0.4362
vn 0.8611 -0.0518 0.5059
vn -0.5831 -0.0839 0.8080
vn 0.2244 -0.5973 0.7700
vn 0.3582 -0.8031 -0.4761
vn -0.5021 -0.2273 0.8344
vn 0.7460 -0.0321 0.6652
vn -0.6699 -0.6881 0.2788
vn -0.5512 -0.7379 -0.3896
vn 0.3909 0.5212 -0.7587
vn -0.9798 -0.1363 0.1465
vn 0.6201 0.7291 -0.2896
vn 0.5263 0.7598 0.3818
vn -0.4040 -0.2311 0.8851
vn -0.4411 -0.8537 0.2769
vn 0.9215 0.3206 -0.2193
vn 0.1869 0.8367 -0.5148
vn -0.2088 0.9340 -0.2899
vn 0.3212 0.9269 -0.1940
vn -0.7621 -0.6391 0.1037
vn -0.9656 0.0977 -0.2410
vn 0.3433 -0.9088 -0.2371
vn 0.6546 0.7348 -0.1774
vn 0.3725 0.9265 0.0532
vn -0.3458 0.9183 0.1928
vn -0.1817 -0.0046 -0.9833
vn 0.3078 -0.7926 -0.5263
vn -0.3706 -0.8270 -0.4229
vn 0.5891 0.7968 0.1342
vn -0.3019 0.7744 0.5560
vn 0.3732 0.8166 0.4404
vn -0.9741 -0.1962 -0.1122
vn -0.7278 -0.4316 0.5330
vn 0.1748 -0.3966 -0.9012
vn -0.9821 -0.0428 -0.1834
vn 0.7711 0.0558 -0.6342
vn -0.7379 0.1388 -0.6605
vn -0.6875 -0.3447 -0.6392
vn -0.1912 0.4269 0.8838
vn -0.7857 -0.0256 0.6181
vn 0.4240 0.3424 0.8384
vn 0.4255 0.8639 -0.2693
vn -0.0113 -0.0895 -0.9959
vn 0.1947 0.0416 0.9800
vn 0.1940 0.8426 0.5023
vn -0.2217 -0.6297 -0.7446
vn 0.5851 0.3558 -0.7288
vn 0.9425 -0.2157 -0.2554
vn 0.4459 0.8625 0.2393
vn -0.1023 -0.2565 0.9611
vn -0.8805 -0.3377 0.3328
vn -0.7937 -0.0749 -0.6036
vn -0.3982 0.3236 -0.8583
vn 0.2252 0.7828 -0.5800
vn 0.4902 0.8711 -0.0304
vn 0.3670 0.5784 0.7286
vn -0.0286 0.1799 0.9833
vn 0.5275 -0.7949 0.2999
vn -0.6519 -0.2793 0.7050
vn -0.9169 -0.3676 0.1554
vn 0.4867 0.5826 0.6509
vn -0.9847 0.1092 0.1356
vn 0.1371 -0.0895 0.9865
vn -0.9966 -0.0132 -0.0814
vn 0.1266 0.8471 -0.5162
vn -0.5166 0.7971 -0.3126
vn -0.2240 -0.7779 0.5871
vn -0.6856 -0.7037 0.1861
vn -0.9562 -0.0835 -0.2805
vn -0.7814 0.4997 -0.3739
vn -0.3356 0.9420 -0.0068
vn -0.1808 0.9800 -0.0837
vn 0.2808 0.9058 0.3173
vn 0.5514 0.2855 0.7838
vn 0.3766 -0.2976 0.8773
vn -0.7253 -0.6730 0.1450
vn -0.3003 -0.7028 0.6449
vn 0.0489 0.9758 0.2131
vn 0.3693 -0.3707 0.8522
vn 0.7585 -0.2447 0.6040
vn -0.2944 -0.6531 0.6977
vn 0.9046 0.4184 0.0811
vn -0.8280 -0.5575 0.0601
vn 0.2819 0.6714 -0.6854
vn -0.4365 0.2711 -0.8579
vn 0.9697 0.1285 0.2078
vn 0.8078 0.2051 0.5527
vn 0.3907 0.4992 0.7734
vn 0.7407 -0.0862 0.6663
vn 0.8386 0.5174 -0.1706
vn 0.7077 -0.1051 -0.6986
vn 0.4161 -0.6677 -0.6173
vn 0.8458 -0.4801 -0.2326
vn 0.9582 0.1799 0.2225
vn 0.6475 0.6916 0.3200
vn -0.0512 0.9975 0.0489
vn -0.4810 0.8099 -0.3358
vn -0.4102 0.7812 -0.4706
vn -0.5933 0.1499 -0.7909
vn -0.2826 -0.3618 -0.8884
vn 0.0049 0.1102 0.9939
vn 0.5238 -0.6974 -0.4891
vn -0.1932 -0.8427 -0.5025
vn 0.1505 0.9181 0.3667
vn -0.4224 0.8555 -0.2995
vn -0.1991 0.9444 0.2617
vn -0.1013 -0.1789 -0.9786
vn -0.2819 0.2406 -0.9288
vn 0.0888 -0.1701 -0.9814
vn 0.3524 0.8239 0.4438
vn -0.8343 0.0052 -0.5513
vn 0.2404 -0.8869 -0.3944
vn -0.1522 0.1768 0.9724
vn -0.2398 -0.3274 0.9140
vn -0.7189 0.1116 0.6861
vn 0.5655 0.5968 0.5693
vn 0.4174 0.8063 0.4191
vn -0.8289 0.3190 -0.4595
vn -0.7295 0.6785 -0.0863
vn 0.3479 -0.9360 -0.0538
vn 0.1345 0.6907 -0.7105
vn -0.0931 -0.4499 0.8882
vn -0.3998 -0.1047 0.9106
vn 0.5691 -0.8127 0.1256
vn 0.6863 0.2810 -0.6708
vn 0.9948 -0.0272 0.0978
vn -0.2988 -0.0952 -0.9496
vn 0.4472 0.5425 -0.7111
vn -0.8906 0.4548 0.0002
vn -0.6716 0.3506 0.6527
vn -0.0456 -0.9753 -0.2160
vn -0.5743 0.2868 -0.7667
vn 0.9023 0.3616 -0.2347
vn -0.6268 0.3916 -0.6737
vn 0.9847 0.1264 -0.1203
vn 0.2622 0.9642 0.0387
vn -0.9030 -0.2035 -0.3785
vn 0.7926 0.5861 -0.1681
vn -0.2059 -0.1973 -0.9585
vn 0.9362 -0.0013 -0.3516
vn 0.3516 -0.0013 -0.9362
vn -0.2365 -0.6913 0.6828
vn 0.2365 -0.6913 0.6828
vn -0.3516 -0.0013 -0.9362
vn -0.8603 -0.4978 -0.1097
vn -0.6828 -0.6913 -0.2365
vn -0.6828 -0.6913 0.2365
vn 0.3516 -0.0013 0.9362
vn 0.9362 -0.0013 0.3516
vn 0.2365 -0.6913 -0.6828
vn -0.2365 -0.6913 -0.6828
vn -0.3516 -0.0013 0.9362
vn -0.9362 -0.0013 -0.3516
vn 0.6828 -0.6913 0.2365
vn 0.6828 -0.6913 -0.2365
vn 0.7103 -0.7019 0.0530
vn -0.3035 0.2526 0.9188
vn -0.4115 0.6211 0.6670
vn -0.9053 0.2454 -0.3468
vn 0.3905 -0.6296 -0.6716
vn 0.3056 -0.2447 0.9202
vn -0.2950 0.2502 -0.9222
vn -0.3043 -0.8252 0.4759
vn -0.5606 -0.5795 -0.5915
vn 0.3121 0.2638 0.9127
vn -0.1538 0.6857 0.7115
vn 0.3361 0.2566 -0.9062
vn 0.8989 0.2608 -0.3520
vn 0.9119 0.2625 0.3156
vn 0.6226 -0.6230 0.4735
vn -0.6896 0.0178 -0.7240
vn -0.8107 -0.3036 -0.5007
vn -0.2906 0.4235 0.8580
vn 0.0648 0.0390 0.9971
vn -0.2440 0.8835 -0.3999
vn -0.4488 0.8718 0.1962
vn -0.4489 -0.5214 0.7257
vn 0.2735 0.3685 -0.8885
vn 0.3959 -0.8856 -0.2429
vn 0.2636 -0.8641 0.4287
vn 0.2708 -0.6346 -0.7239
vn -0.2155 0.4501 0.8666
vn -0.6499 0.1589 0.7433
vn -0.2977 0.9211 0.2510
vn -0.2318 0.8733 -0.4286
vn -0.3646 -0.8360 -0.4100
vn 0.5811 0.7201 0.3791
vn 0.2887 -0.4302 -0.8553
vn 0.4461 -0.2104 0.8699
vn -0.1145 -0.8904 0.4405
vn -0.2881 -0.9319 -0.2204
vn 0.2066 0.4800 0.8526
vn -0.9868 -0.1125 0.1162
vn 0.4443 -0.1974 -0.8739
vn 0.1821 0.9546 0.2355
vn -0.2844 -0.4702 -0.8355
vn 0.2947 0.0960 0.9508
vn 0.8676 0.3019 0.3952
vn 0.3101 0.3910 0.8666
vn -0.9362 -0.0013 0.3516
vn -0.4893 -0.3935 -0.7783
vn -0.0941 -0.2979 -0.9499
vn 0.0488 0.9748 -0.2176
vn -0.8143 -0.2044 -0.5432
vn -0.4298 0.2940 -0.8537
vn -0.9632 0.2300 0.1392
vn 0.1498 -0.9105 -0.3855
vn -0.4051 -0.7000 -0.5881
vn 0.1618 0.4579 -0.8741
vn -0.9178 0.3970 -0.0011
vn -0.4779 -0.5949 0.6464
vn 0.5985 0.3641 0.7136
vn 0.3660 -0.9220 0.1262
vn -0.2062 -0.9220 0.3277
vn -0.7177 -0.3560 0.5984
vn -0.6876 0.2438 0.6839
vn -0.1193 0.8099 0.5743
vn 0.4529 0.8099 0.3728
vn 0.9479 -0.2443 -0.2046
vn 0.9644 0.2438 0.1021
vn 0.9343 -0.3560 0.0167
vn 0.9540 0.2890 -0.0802
vn 0.5836 -0.4585 0.6702
vn 0.6755 0.4561 -0.5793
vn -0.3257 0.7950 0.5117
vn 0.1787 0.7559 0.6299
vn 0.1439 -0.9741 -0.1743
vn -0.3025 0.8651 0.4001
vn -0.9233 0.3382 -0.1822
vn -0.2189 -0.3093 -0.9255
vn 0.3905 -0.3093 -0.8671
vn 0.9239 0.0681 -0.3766
vn 0.8797 0.4680 0.0848
vn 0.2629 0.8453 0.4651
vn -0.3464 0.8453 0.4067
vn -0.8798 0.4680 -0.0837
vn -0.8356 0.0681 -0.5451
vn 0.2267 -0.8950 -0.3841
vn -0.1765 -0.9831 -0.0491
vn -0.2147 0.7810 -0.5864
vn -0.5237 0.2521 -0.8138
vn -0.5657 0.7883 -0.2419
vn 0.2444 0.9696 0.0104
vn 0.3451 -0.8045 0.4833
vn 0.5897 -0.2759 0.7591
vn -0.3027 -0.9530 0.0111
vn -0.7268 -0.6221 -0.2911
vn -0.3821 -0.4952 0.7802
vn -0.9310 0.1749 -0.3204
vn -0.7234 0.6887 -0.0492
vn -0.1272 0.8613 0.4919
vn 0.2968 0.5304 0.7941
vn 0.5011 -0.2666 0.8233
vn 0.2934 -0.7804 0.5521
vn -0.9342 -0.3560 -0.0216
vn -0.8379 0.3846 0.3874
vn 0.0047 0.9284 -0.3716
vn 0.1247 0.3625 -0.9236
vn 0.6246 0.7035 -0.3390
vn 0.2755 0.8105 0.5169
vn 0.2352 0.9229 -0.3049
vn -0.4791 0.3257 0.8151
vn -0.6045 0.7762 0.1790
vn -0.8706 -0.4241 0.2493
vn -0.8319 -0.4241 -0.3580
vn -0.4206 0.0105 -0.9072
vn -0.0235 0.4710 -0.8818
vn 0.3146 0.9055 -0.2848
vn 0.2758 0.9055 0.3225
vn -0.1355 0.4710 0.8717
vn -0.5325 0.0105 0.8463
s 0
f 593//1 256//1 123//1 420//1
f 76//2 176//2 443//2 175//2
f 494//3 221//3 118//3 126//3 250//3
f 303//4 444//4 178//4 76//4
f 373//5 134//5 255//5 363//5 11//5
f 445//6 303//6 76//6 175//6
f 302//7 445//7 175//7 75//7
f 329//8 323//8 521//8 525//8
f 581//9 577//9 234//9 115//9 406//9
f 209//10 204//10 130//10 113//10
f 48//11 301//11 446//11 300//11
f 301//12 45//12 294//12 446//12
f 556//13 374//13 381//13 558//13
f 47//14 299//14 447//14 298//14
f 46//15 297//15 448//15 296//15
f 297//16 47//16 298//16 448//16
f 529//17 173//17 132//17 333//17 36//17 323//17 329//17 40//17 313//17 526//17 522//17 325//17
f 420//18 123//18 242//18 591//18 592//18
f 45//19 295//19 449//19 294//19
f 99//20 160//20 450//20 158//20
f 91//21 161//21 450//21 160//21
f 96//22 158//22 450//22 161//22
f 580//23 405//23 412//23 52//23 413//23 584//23
f 87//24 145//24 451//24 162//24
f 96//25 161//25 451//25 145//25
f 151//26 497//26 155//26 98//26 140//26 82//26 205//26 490//26
f 87//27 162//27 452//27 165//27
f 171//28 100//28 393//28 103//28 187//28
f 84//29 164//29 453//29 166//29
f 87//30 165//30 453//30 164//30
f 84//31 167//31 454//31 163//31
f 83//32 150//32 454//32 167//32
f 88//33 163//33 454//33 150//33
f 539//34 354//34 347//34 536//34
f 17//35 379//35 560//35 380//35
f 102//36 191//36 455//36 200//36
f 91//37 160//37 456//37 170//37
f 99//38 156//38 456//38 160//38
f 90//39 170//39 456//39 156//39
f 76//40 178//40 457//40 177//40
f 612//41 438//41 442//41 616//41
f 340//42 530//42 215//42 85//42 339//42 30//42
f 106//43 181//43 458//43 180//43
f 105//44 182//44 458//44 181//44
f 94//45 180//45 458//45 182//45
f 105//46 183//46 459//46 182//46
f 93//47 169//47 459//47 183//47
f 94//48 182//48 459//48 169//48
f 111//49 196//49 460//49 195//49
f 77//50 194//50 461//50 218//50
f 216//51 463//51 461//51 194//51 334//51 337//51 29//51 338//51 533//51
f 103//52 193//52 462//52 192//52
f 106//53 179//53 462//53 193//53
f 73//54 192//54 462//54 179//54
f 85//55 217//55 463//55 216//55
f 153//56 502//56 157//56 98//56 155//56 92//56
f 298//57 293//57 468//57 448//57
f 93//58 183//58 496//58 142//58 568//58 158//58 96//58
f 131//59 185//59 490//59 322//59 35//59 332//59
f 69//60 223//60 446//60 294//60
f 316//61 309//61 513//61 517//61
f 112//62 208//62 467//62 207//62
f 111//63 195//63 467//63 208//63
f 394//64 196//64 487//64 171//64 187//64 104//64
f 594//65 254//65 124//65 421//65
f 592//66 591//66 418//66 419//66
f 468//67 293//67 71//67 226//67
f 292//68 468//68 226//68 70//68
f 305//69 303//69 445//69 511//69
f 516//70 512//70 306//70 314//70
f 68//71 289//71 469//71 288//71
f 289//72 67//72 290//72 469//72
f 469//73 290//73 66//73 291//73
f 288//74 469//74 291//74 65//74
f 64//75 285//75 470//75 284//75
f 285//76 63//76 286//76 470//76
f 470//77 286//77 62//77 287//77
f 284//78 470//78 287//78 61//78
f 60//79 281//79 471//79 280//79
f 281//80 59//80 282//80 471//80
f 471//81 282//81 58//81 283//81
f 280//82 471//82 283//82 57//82
f 56//83 277//83 472//83 276//83
f 277//84 55//84 278//84 472//84
f 472//85 278//85 54//85 279//85
f 276//86 472//86 279//86 53//86
f 121//87 248//87 473//87 247//87
f 244//88 586//88 409//88 50//88 415//88 119//88
f 538//89 340//89 30//89 345//89 350//89
f 590//90 588//90 413//90 52//90 417//90
f 346//91 31//91 335//91 530//91 340//91 538//91 351//91 27//91 352//91
f 44//92 273//92 474//92 272//92
f 273//93 43//93 274//93 474//93
f 474//94 274//94 42//94 275//94
f 272//95 474//95 275//95 41//95
f 117//96 228//96 475//96 230//96
f 115//97 229//97 475//97 228//97
f 86//98 230//98 475//98 229//98
f 115//99 231//99 476//99 229//99
f 85//100 215//100 476//100 231//100
f 86//101 229//101 476//101 215//101
f 24//102 269//102 477//102 268//102
f 269//103 23//103 270//103 477//103
f 477//104 270//104 22//104 271//104
f 268//105 477//105 271//105 21//105
f 115//106 233//106 478//106 231//106
f 78//107 217//107 478//107 233//107
f 85//108 231//108 478//108 217//108
f 115//109 234//109 479//109 233//109
f 79//110 235//110 479//110 234//110
f 78//111 233//111 479//111 235//111
f 189//112 70//112 212//112 480//112
f 418//113 122//113 251//113 127//113 263//113 253//113 595//113 419//113
f 79//114 237//114 481//114 236//114
f 539//115 536//115 346//115 352//115 27//115 353//115
f 80//116 238//116 482//116 222//116
f 16//117 265//117 483//117 264//117
f 265//118 15//118 266//118 483//118
f 483//119 266//119 14//119 267//119
f 264//120 483//120 267//120 13//120
f 147//121 133//121 138//121 484//121
f 484//122 138//122 136//122 152//122
f 166//123 484//123 152//123 84//123
f 84//124 152//124 485//124 167//124
f 152//125 136//125 262//125 485//125
f 485//126 262//126 135//126 149//126
f 167//127 485//127 149//127 83//127
f 83//128 149//128 486//128 159//128
f 149//129 135//129 255//129 486//129
f 486//130 255//130 134//130 144//130
f 159//131 486//131 144//131 92//131
f 220//132 444//132 303//132 305//132 80//132
f 114//133 199//133 487//133 197//133
f 199//134 100//134 171//134 487//134
f 10//135 361//135 548//135 367//135
f 197//136 487//136 196//136 111//136
f 88//137 198//137 488//137 148//137
f 198//138 132//138 173//138 488//138
f 190//139 73//139 77//139 218//139
f 81//140 211//140 489//140 137//140
f 359//141 27//141 351//141 542//141 544//141
f 137//142 489//142 205//142 82//142
f 151//143 490//143 185//143 83//143
f 83//144 185//144 491//144 150//144
f 185//145 131//145 154//145 491//145
f 491//146 154//146 132//146 198//146
f 150//147 491//147 198//147 88//147
f 129//148 206//148 612//148 616//148 439//148
f 121//149 246//149 492//149 261//149
f 74//150 188//150 493//150 186//150
f 493//151 174//151 95//151 172//151
f 186//152 493//152 172//152 104//152
f 10//153 371//153 552//153 554//153 361//153
f 250//154 127//154 251//154 494//154
f 494//155 251//155 122//155 221//155
f 1//156 257//156 495//156 259//156
f 257//157 2//157 252//157 495//157
f 495//158 252//158 3//158 249//158
f 259//159 495//159 249//159 4//159
f 105//160 184//160 496//160 183//160
f 130//161 204//161 613//161 440//161
f 496//162 172//162 95//162 142//162
f 83//163 159//163 497//163 151//163
f 159//164 92//164 155//164 497//164
f 540//165 343//165 32//165 347//165 354//165
f 130//166 201//166 465//166 203//166 464//166 202//166 113//166
f 613//167 204//167 129//167 439//167
f 80//168 222//168 498//168 220//168
f 222//169 72//169 223//169 498//169
f 498//170 223//170 69//170 210//170
f 220//171 498//171 210//171 77//171
f 499//172 260//172 120//172 258//172
f 254//173 499//173 258//173 124//173
f 82//174 140//174 500//174 137//174
f 140//175 98//175 141//175 500//175
f 500//176 141//176 97//176 139//176
f 137//177 500//177 139//177 81//177
f 8//178 227//178 501//178 240//178
f 227//179 7//179 225//179 501//179
f 501//180 225//180 6//180 219//180
f 240//181 501//181 219//181 5//181
f 90//182 156//182 502//182 153//182
f 156//183 99//183 157//183 502//183
f 209//184 400//184 108//184 112//184
f 116//185 241//185 503//185 239//185
f 241//186 117//186 232//186 503//186
f 503//187 232//187 71//187 224//187
f 239//188 503//188 224//188 72//188
f 92//189 144//189 504//189 168//189
f 144//190 134//190 245//190 504//190
f 504//191 245//191 133//191 147//191
f 168//192 504//192 147//192 89//192
f 123//193 214//193 505//193 242//193
f 214//194 119//194 243//194 505//194
f 505//195 243//195 118//195 221//195
f 242//196 505//196 221//196 122//196
f 548//197 361//197 9//197 366//197
f 226//198 506//198 213//198 70//198
f 84//199 163//199 507//199 164//199
f 163//200 88//200 148//200 507//200
f 164//201 507//201 146//201 87//201
f 124//202 258//202 508//202 256//202
f 258//203 120//203 244//203 508//203
f 508//204 244//204 119//204 214//204
f 256//205 508//205 214//205 123//205
f 74//206 186//206 509//206 190//206
f 186//207 104//207 187//207 509//207
f 509//208 187//208 103//208 192//208
f 190//209 509//209 192//209 73//209
f 243//210 585//210 414//210 118//210
f 100//211 199//211 114//211 202//211 464//211 203//211
f 235//212 79//212 304//212 510//212
f 79//213 236//213 511//213 304//213
f 236//214 80//214 305//214 511//214
f 19//215 385//215 562//215 377//215
f 518//216 514//216 309//216 316//216
f 437//217 610//217 614//217 441//217
f 512//218 307//218 38//218 308//218
f 306//219 512//219 308//219 37//219
f 230//220 86//220 213//220 506//220 226//220 71//220 232//220 117//220
f 513//221 309//221 39//221 310//221
f 358//222 356//222 541//222 543//222
f 514//223 311//223 40//223 312//223
f 309//224 514//224 312//224 39//224
f 515//225 306//225 37//225 313//225
f 89//226 147//226 484//226 166//226 453//226 165//226
f 403//227 577//227 581//227 408//227
f 80//228 236//228 481//228 237//228 116//228 238//228
f 41//229 275//229 516//229 314//229
f 275//230 42//230 315//230 516//230
f 42//231 274//231 517//231 315//231
f 274//232 43//232 316//232 517//232
f 43//233 273//233 518//233 316//233
f 273//234 44//234 317//234 518//234
f 44//235 272//235 519//235 317//235
f 272//236 41//236 314//236 519//236
f 600//237 596//237 423//237 427//237
f 607//238 603//238 430//238 434//238
f 520//239 319//239 34//239 320//239
f 318//240 520//240 320//240 33//240
f 589//241 587//241 416//241 120//241 246//241
f 521//242 323//242 36//242 324//242
f 321//243 521//243 324//243 35//243
f 543//244 541//244 349//244 25//244 357//244
f 522//245 318//245 33//245 325//245
f 37//246 308//246 523//246 326//246
f 308//247 38//247 327//247 523//247
f 490//248 205//248 331//248 34//248 319//248 327//248 38//248 310//248 524//248 322//248
f 310//249 39//249 328//249 524//249
f 39//250 312//250 525//250 328//250
f 312//251 40//251 329//251 525//251
f 184//252 571//252 394//252 104//252 172//252 496//252
f 313//253 37//253 326//253 526//253
f 306//254 515//254 519//254 314//254
f 375//255 561//255 384//255 17//255
f 507//256 148//256 488//256 211//256 81//256 146//256
f 460//257 196//257 394//257 571//257
f 33//258 320//258 527//258 330//258
f 320//259 34//259 331//259 527//259
f 555//260 245//260 134//260 373//260
f 73//261 178//261 444//261 220//261 77//261
f 35//262 324//262 528//262 332//262
f 324//263 36//263 333//263 528//263
f 325//264 33//264 330//264 529//264
f 489//265 211//265 330//265 527//265
f 530//266 335//266 86//266 215//266
f 417//267 52//267 411//267 587//267 589//267
f 531//268 336//268 70//268 213//268
f 335//269 531//269 213//269 86//269
f 25//270 355//270 546//270 357//270
f 336//271 532//271 212//271 70//271
f 338//272 30//272 339//272 533//272
f 95//273 174//273 75//273 175//273 443//273 176//273
f 422//274 125//274 254//274 594//274
f 341//275 32//275 342//275 534//275
f 100//276 203//276 465//276 201//276 130//276 200//276 455//276 191//276 570//276 572//276 393//276
f 535//277 345//277 30//277 338//277
f 344//278 535//278 338//278 29//278
f 369//279 12//279 364//279 547//279 550//279
f 536//280 347//280 32//280 341//280
f 346//281 536//281 341//281 31//281
f 141//282 565//282 387//282 97//282
f 97//283 387//283 94//283 169//283 143//283
f 349//284 26//284 350//284 537//284
f 73//285 179//285 457//285 178//285
f 26//286 351//286 538//286 350//286
f 388//287 565//287 141//287 98//287
f 118//288 247//288 473//288 248//288 126//288
f 353//289 28//289 354//289 539//289
f 28//290 355//290 540//290 354//290
f 120//291 416//291 586//291 244//291
f 332//292 528//292 154//292 131//292
f 541//293 356//293 26//293 349//293
f 105//294 390//294 101//294 195//294 460//294 571//294 184//294
f 317//295 311//295 514//295 518//295
f 598//296 250//296 126//296 425//296
f 356//297 542//297 351//297 26//297
f 510//298 188//298 74//298 78//298 235//298
f 445//299 302//299 304//299 511//299
f 582//300 578//300 403//300 408//300 50//300 409//300
f 129//301 204//301 209//301 112//301
f 21//302 271//302 543//302 357//302
f 271//303 22//303 358//303 543//303
f 22//304 270//304 544//304 358//304
f 270//305 23//305 359//305 544//305
f 23//306 269//306 545//306 359//306
f 269//307 24//307 360//307 545//307
f 429//308 605//308 609//308 433//308
f 24//309 268//309 546//309 360//309
f 268//310 21//310 357//310 546//310
f 376//311 556//311 558//311 382//311
f 106//312 391//312 569//312 181//312
f 360//313 28//313 353//313 545//313
f 457//314 179//314 106//314 180//314 94//314 387//314 565//314 177//314
f 362//315 547//315 364//315 11//315
f 435//316 431//316 603//316 607//316
f 5//317 219//317 548//317 366//317
f 219//318 6//318 367//318 548//318
f 6//319 225//319 549//319 367//319
f 225//320 7//320 368//320 549//320
f 336//321 531//321 534//321 342//321
f 7//322 227//322 550//322 368//322
f 227//323 8//323 369//323 550//323
f 8//324 240//324 551//324 369//324
f 240//325 5//325 366//325 551//325
f 552//326 371//326 135//326 262//326
f 370//327 552//327 262//327 136//327
f 604//328 431//328 435//328 608//328
f 553//329 370//329 136//329 138//329
f 609//330 605//330 432//330 436//330
f 9//331 361//331 554//331 372//331
f 125//332 253//332 263//332 128//332
f 480//333 194//333 77//333 210//333 69//333 294//333 449//333 189//333
f 11//334 364//334 555//334 373//334
f 379//335 564//335 386//335 20//335
f 142//336 95//336 389//336 568//336
f 551//337 365//337 553//337 138//337 133//337 12//337 369//337
f 556//338 376//338 19//338 377//338
f 374//339 556//339 377//339 18//339
f 12//340 133//340 245//340 555//340 364//340
f 328//341 321//341 35//341 322//341 524//341
f 13//342 267//342 557//342 380//342
f 267//343 14//343 381//343 557//343
f 14//344 266//344 558//344 381//344
f 266//345 15//345 382//345 558//345
f 15//346 265//346 559//346 382//346
f 265//347 16//347 383//347 559//347
f 412//348 405//348 579//348 583//348
f 16//349 264//349 560//349 383//349
f 264//350 13//350 380//350 560//350
f 207//351 467//351 195//351 101//351 438//351 612//351 206//351 466//351
f 384//352 561//352 170//352 90//352
f 315//353 307//353 512//353 516//353
f 120//354 260//354 128//354 261//354 492//354 246//354
f 563//355 386//355 92//355 168//355
f 385//356 563//356 168//356 89//356
f 614//357 610//357 200//357 130//357 440//357
f 386//358 564//358 153//358 92//358
f 448//359 468//359 292//359 296//359
f 132//360 154//360 528//360 333//360
f 379//361 20//361 383//361 560//361
f 78//362 74//362 190//362 218//362
f 446//363 223//363 72//363 300//363
f 211//364 488//364 173//364 529//364 330//364
f 181//365 569//365 390//365 105//365
f 300//366 72//366 224//366 447//366 299//366 604//366 608//366 436//366 432//366 48//366
f 125//367 128//367 260//367 499//367 254//367
f 565//368 388//368 76//368 177//368
f 20//369 378//369 559//369 383//369
f 339//370 85//370 216//370 533//370
f 388//371 566//371 176//371 76//371
f 169//372 93//372 96//372 145//372 87//372 146//372 143//372
f 112//373 207//373 466//373 206//373 129//373
f 18//374 91//374 170//374 561//374 375//374
f 157//375 99//375 389//375 567//375
f 99//376 158//376 568//376 389//376
f 517//377 513//377 310//377 38//377 307//377 315//377
f 544//378 542//378 356//378 358//378
f 569//379 391//379 102//379 392//379
f 390//380 569//380 392//380 101//380
f 602//381 429//381 433//381 606//381
f 391//382 570//382 191//382 102//382
f 595//383 253//383 125//383 422//383
f 368//384 362//384 11//384 363//384 549//384
f 521//385 321//385 328//385 525//385
f 531//386 335//386 31//386 341//386 534//386
f 126//387 248//387 597//387 601//387 425//387
f 447//388 224//388 71//388 293//388 298//388
f 193//389 103//389 393//389 572//389
f 402//390 576//390 398//390 110//390
f 110//391 398//391 575//391 401//391
f 573//392 396//392 2//392 257//392
f 395//393 573//393 257//393 1//393
f 401//394 575//394 397//394 109//394
f 532//395 334//395 194//395 480//395 212//395
f 574//396 397//396 3//396 252//396
f 396//397 574//397 252//397 2//397
f 399//398 573//398 395//398 107//398
f 395//399 576//399 402//399 107//399
f 575//400 398//400 4//400 249//400
f 397//401 575//401 249//401 3//401
f 108//402 396//402 573//402 399//402
f 109//403 397//403 574//403 400//403
f 576//404 395//404 1//404 259//404
f 398//405 576//405 259//405 4//405
f 374//406 18//406 375//406 557//406 381//406
f 112//407 108//407 399//407 208//407
f 428//408 424//408 596//408 600//408
f 113//409 109//409 400//409 209//409
f 426//410 127//410 250//410 598//410
f 370//411 553//411 365//411 9//411 372//411
f 202//412 401//412 109//412 113//412
f 119//413 415//413 585//413 243//413
f 296//414 292//414 70//414 189//414 449//414 295//414 602//414 606//414 434//414 430//414 46//414
f 208//415 399//415 107//415 111//415
f 72//416 222//416 482//416 238//416 116//416 239//416
f 114//417 110//417 401//417 202//417
f 197//418 402//418 110//418 114//418
f 107//419 402//419 197//419 111//419
f 577//420 403//420 79//420 234//420
f 572//421 570//421 391//421 106//421 193//421
f 327//422 319//422 520//422 523//422
f 578//423 404//423 116//423 237//423
f 403//424 578//424 237//424 79//424
f 579//425 405//425 117//425 241//425
f 404//426 579//426 241//426 116//426
f 546//427 355//427 28//427 360//427
f 405//428 580//428 228//428 117//428
f 49//429 407//429 581//429 406//429
f 407//430 50//430 408//430 581//430
f 350//431 345//431 535//431 537//431
f 409//432 51//432 410//432 582//432
f 318//433 522//433 526//433 326//433
f 51//434 411//434 583//434 410//434
f 411//435 52//435 412//435 583//435
f 205//436 489//436 527//436 331//436
f 442//437 438//437 611//437 615//437
f 413//438 49//438 406//438 584//438
f 452//439 162//439 451//439 161//439 91//439 18//439 377//439 562//439
f 585//440 415//440 50//440 407//440
f 414//441 585//441 407//441 49//441
f 586//442 416//442 51//442 409//442
f 326//443 523//443 520//443 318//443
f 115//444 228//444 580//444 584//444 406//444
f 416//445 587//445 411//445 51//445
f 588//446 414//446 49//446 413//446
f 515//447 313//447 40//447 311//447 317//447 519//447
f 427//448 423//448 128//448 263//448 599//448
f 562//449 385//449 89//449 165//449 452//449
f 400//450 574//450 396//450 108//450
f 414//451 588//451 590//451 247//451 118//451
f 384//452 90//452 153//452 564//452 379//452 17//452
f 246//453 121//453 417//453 589//453
f 363//454 255//454 135//454 371//454 10//454 367//454 549//454
f 121//455 247//455 590//455 417//455
f 601//456 597//456 424//456 428//456
f 418//457 591//457 242//457 122//457
f 537//458 535//458 344//458 348//458 25//458 349//458
f 567//459 566//459 388//459 98//459 157//459
f 343//460 532//460 336//460 342//460 32//460
f 143//461 146//461 81//461 139//461 97//461
f 545//462 353//462 27//462 359//462
f 53//463 279//463 592//463 419//463
f 279//464 54//464 420//464 592//464
f 54//465 278//465 593//465 420//465
f 278//466 55//466 421//466 593//466
f 55//467 277//467 594//467 421//467
f 277//468 56//468 422//468 594//468
f 599//469 263//469 127//469 426//469
f 56//470 276//470 595//470 422//470
f 276//471 53//471 419//471 595//471
f 302//472 75//472 174//472 493//472 188//472 510//472 304//472
f 9//473 365//473 551//473 366//473
f 389//474 95//474 176//474 566//474 567//474
f 596//475 424//475 121//475 261//475
f 423//476 596//476 261//476 128//476
f 461//477 463//477 217//477 78//477 218//477
f 378//478 563//478 385//478 19//478 376//478 382//478 559//478
f 424//479 597//479 248//479 121//479
f 57//480 283//480 598//480 425//480
f 283//481 58//481 426//481 598//481
f 58//482 282//482 599//482 426//482
f 282//483 59//483 427//483 599//483
f 59//484 281//484 600//484 427//484
f 281//485 60//485 428//485 600//485
f 60//486 280//486 601//486 428//486
f 280//487 57//487 425//487 601//487
f 375//488 17//488 380//488 557//488
f 429//489 602//489 295//489 45//489
f 603//490 431//490 47//490 297//490
f 430//491 603//491 297//491 46//491
f 20//492 386//492 563//492 378//492
f 431//493 604//493 299//493 47//493
f 605//494 429//494 45//494 301//494
f 432//495 605//495 301//495 48//495
f 61//496 287//496 606//496 433//496
f 287//497 62//497 434//497 606//497
f 554//498 552//498 370//498 372//498
f 62//499 286//499 607//499 434//499
f 286//500 63//500 435//500 607//500
f 63//501 285//501 608//501 435//501
f 285//502 64//502 436//502 608//502
f 64//503 284//503 609//503 436//503
f 284//504 61//504 433//504 609//504
f 344//505 29//505 337//505 334//505 532//505 343//505 540//505 355//505 25//505 348//505
f 421//506 124//506 256//506 593//506
f 550//507 547//507 362//507 368//507
f 610//508 437//508 102//508 200//508
f 615//509 611//509 437//509 441//509
f 611//510 438//510 101//510 392//510
f 437//511 611//511 392//511 102//511
f 410//512 404//512 578//512 582//512
f 583//513 579//513 404//513 410//513
f 65//514 291//514 613//514 439//514
f 291//515 66//515 440//515 613//515
f 66//516 290//516 614//516 440//516
f 290//517 67//517 441//517 614//517
f 67//518 289//518 615//518 441//518
f 289//519 68//519 442//519 615//519
f 68//520 288//520 616//520 442//520
f 288//521 65//521 439//521 616//521
