# Made in Blockbench 5.2.1
mtllib pine_tree_1.mtl

o cylinder
v 0 0 0
v 0.07766504294495533 0 0.1875
v 0.05177669529663689 0.75 0.125
v 0.1875 0 0.07766504294495534
v 0.125 0.75 0.0517766952966369
v 0.1875 0 -0.07766504294495533
v 0.125 0.75 -0.05177669529663689
v 0.07766504294495535 0 -0.1875
v 0.051776695296636914 0.75 -0.125
v -0.07766504294495531 0 -0.18750000000000003
v -0.05177669529663688 0.75 -0.125
v -0.18749999999999997 0 -0.07766504294495545
v -0.12499999999999999 0.75 -0.051776695296636976
v -0.1875 0 0.07766504294495537
v -0.125 0.75 0.051776695296636914
v -0.07766504294495545 0 0.18749999999999997
v -0.05177669529663697 0.75 0.125
v 0.18121843353822914 0.8125 0.4375
v 0.4375 0.8125 0.18121843353822914
v 0.4375 0.8125 -0.18121843353822914
v 0.1812184335382292 0.8125 -0.4375
v -0.1812184335382291 0.8125 -0.4375
v -0.43749999999999994 0.8125 -0.18121843353822942
v -0.4375 0.8125 0.1812184335382292
v -0.1812184335382294 0.8125 0.4375
v 0.07766504294495534 1.125 0.1875
v 0.1875 1.125 0.07766504294495534
v 0.1875 1.125 -0.07766504294495534
v 0.07766504294495537 1.125 -0.1875
v -0.07766504294495533 1.125 -0.1875
v -0.18749999999999997 1.125 -0.07766504294495546
v -0.1875 1.125 0.07766504294495537
v -0.07766504294495545 1.125 0.1875
v 0.15533008588991068 1.1875 0.375
v 0.375 1.1875 0.15533008588991068
v 0.375 1.1875 -0.15533008588991068
v 0.15533008588991074 1.1875 -0.375
v -0.15533008588991065 1.1875 -0.375
v -0.37499999999999994 1.1875 -0.15533008588991093
v -0.375 1.1875 0.15533008588991074
v -0.1553300858899109 1.1875 0.375
v 0.05177669529663689 1.4375 0.125
v 0.125 1.4375 0.05177669529663689
v 0.125 1.4375 -0.05177669529663689
v 0.05177669529663691 1.4375 -0.125
v -0.05177669529663688 1.4375 -0.125
v -0.12499999999999997 1.4375 -0.051776695296636976
v -0.125 1.4375 0.05177669529663691
v -0.05177669529663696 1.4375 0.125
v 0.10355339059327379 1.5 0.25
v 0.25 1.5 0.10355339059327379
v 0.25 1.5 -0.10355339059327379
v 0.10355339059327383 1.5 -0.25
v -0.10355339059327376 1.5 -0.25
v -0.24999999999999997 1.5 -0.10355339059327395
v -0.25 1.5 0.10355339059327381
v -0.10355339059327394 1.5 0.25
v 0.025888347648318447 1.8125 0.0625
v 0.0625 1.8125 0.025888347648318447
v 0.0625 1.8125 -0.025888347648318447
v 0.025888347648318457 1.8125 -0.0625
v -0.02588834764831844 1.8125 -0.0625
v -0.06249999999999999 1.8125 -0.025888347648318488
v -0.0625 1.8125 0.025888347648318454
v -0.025888347648318485 1.8125 0.0625
v -0.0030406515963157495 1.9376481044735636 -0.0030406515963157504
vt 0.515625 0.7225406249999999
vt 0.488165625 0.75
vt 0.46875 0.703125
vt 0.07054375 0.203125
vt 0.109375 0.203125
vt 0.102903125 0.390625
vt 0.077015625 0.390625
vt 0.515625 0.6837093750000001
vt 0.515625 0.7225406249999999
vt 0.46875 0.703125
vt 0.222771875 0.28125
vt 0.261603125 0.28125
vt 0.25513125 0.46875
vt 0.22924375 0.46875
vt 0.488165625 0.65625
vt 0.515625 0.6837093750000001
vt 0.46875 0.703125
vt 0 0.234375
vt 0.03883125 0.234375
vt 0.032359374999999996 0.421875
vt 0.0064718749999999985 0.421875
vt 0.449334375 0.65625
vt 0.488165625 0.65625
vt 0.46875 0.703125
vt 0.457146875 0.296875
vt 0.495978125 0.296875
vt 0.48950625 0.484375
vt 0.46361875 0.484375
vt 0.421875 0.6837093750000001
vt 0.449334375 0.65625
vt 0.46875 0.703125
vt 0.13304375000000002 0.203125
vt 0.171875 0.203125
vt 0.16540312499999998 0.390625
vt 0.139515625 0.390625
vt 0.421875 0.7225406249999999
vt 0.421875 0.6837093750000001
vt 0.46875 0.703125
vt 0.285271875 0.28125
vt 0.324103125 0.28125
vt 0.31763125 0.46875
vt 0.29174375 0.46875
vt 0.449334375 0.75
vt 0.421875 0.7225406249999999
vt 0.46875 0.703125
vt 0.578125 0.3125
vt 0.61695625 0.3125
vt 0.610484375 0.5
vt 0.584596875 0.5
vt 0.488165625 0.75
vt 0.449334375 0.75
vt 0.46875 0.703125
vt 0.519646875 0.296875
vt 0.558478125 0.296875
vt 0.55200625 0.484375
vt 0.52611875 0.484375
vt 0.004444275963847971 0.8372679718607936
vt 0.06581672359157742 0.7706085275931414
vt 0.10251064151517945 0.8483799511966121
vt 0.08497626123761054 0.8674248498451111
vt 0.006936983212309428 0.9278430525864771
vt 0.004444275963847985 0.8372679718607936
vt 0.08497626123761053 0.8674248498451113
vt 0.08568843874567242 0.8933025518189537
vt 0.0718828125 0.9910261048712852
vt 0.006936983212309428 0.9278430525864771
vt 0.08568843874567243 0.8933025518189537
vt 0.10424375000000002 0.9113542298712851
vt 0.1624921875 0.9910261048712852
vt 0.0718828125 0.9910261048712852
vt 0.10424375 0.9113542298712851
vt 0.13013125 0.9113542298712851
vt 0.22743801678769057 0.9278430525864771
vt 0.1624921875 0.9910261048712852
vt 0.13013124999999998 0.9113542298712851
vt 0.14868656125432758 0.8933025518189537
vt 0.22993072403615203 0.8372679718607936
vt 0.22743801678769057 0.9278430525864771
vt 0.14868656125432758 0.8933025518189537
vt 0.1493987387623895 0.8674248498451113
vt 0.16855827640842258 0.7706085275931414
vt 0.22993072403615203 0.8372679718607936
vt 0.14939873876238946 0.8674248498451111
vt 0.13186435848482056 0.8483799511966121
vt 0.07808605254596285 0.765625
vt 0.16855827640842258 0.7706085275931414
vt 0.13186435848482056 0.8483799511966121
vt 0.10601604317264204 0.8469561352772611
vt 0.5533731305209785 0.625
vt 0.5194156249999999 0.6061650910446794
vt 0.5453046875 0.5061150910446793
vt 0.6245415998274401 0.550064727706479
vt 0.06629062499999999 0.53125
vt 0.027459375 0.53125
vt 0.001570312499999997 0.4375
vt 0.0921796875 0.4375
vt 0.355584375 0.9811650910446794
vt 0.3216268694790215 1
vt 0.25045840017255994 0.925064727706479
vt 0.3296953125 0.8811150910446793
vt 0.394415625 0.9811650910446794
vt 0.355584375 0.9811650910446794
vt 0.3296953125 0.8811150910446793
vt 0.4203046875 0.8811150910446793
vt 0.4283731305209785 1
vt 0.394415625 0.9811650910446794
vt 0.4203046875 0.8811150910446793
vt 0.49954159982744006 0.925064727706479
vt 0.175665625 0.5
vt 0.136834375 0.5
vt 0.1109453125 0.40625
vt 0.2015546875 0.40625
vt 0.480584375 0.6061650910446794
vt 0.4466268694790215 0.625
vt 0.37545840017255994 0.550064727706479
vt 0.4546953125 0.5061150910446793
vt 0.5194156249999999 0.6061650910446794
vt 0.480584375 0.6061650910446794
vt 0.4546953125 0.5061150910446794
vt 0.5453046875 0.5061150910446794
vt 0.20329865334599956 0.6656527366035827
vt 0.2518807906394005 0.6050579741018138
vt 0.27828520770068765 0.6511152718372724
vt 0.25399511644378514 0.6814114340248143
vt 0.20896776335065737 0.7431111802904766
vt 0.20329865334599956 0.6656527366035827
vt 0.2539951164437851 0.6814114340248143
vt 0.2568295573932833 0.7201390975363962
vt 0.2658546875 0.7959867622491422
vt 0.20896776335065737 0.7431111802904766
vt 0.2568295573932833 0.7201390975363962
vt 0.285271875 0.7465758247491422
vt 0.3435203125 0.7959867622491422
vt 0.2658546875 0.7959867622491422
vt 0.285271875 0.7465758247491422
vt 0.324103125 0.7465758247491422
vt 0.40040723664934263 0.7431111802904766
vt 0.3435203125 0.7959867622491422
vt 0.324103125 0.7465758247491422
vt 0.3525454426067168 0.7201390975363962
vt 0.40607634665400044 0.6656527366035827
vt 0.40040723664934263 0.7431111802904766
vt 0.3525454426067167 0.7201390975363962
vt 0.3553798835562149 0.6814114340248143
vt 0.3574942093605995 0.6050579741018138
vt 0.40607634665400044 0.6656527366035827
vt 0.3553798835562149 0.6814114340248143
vt 0.33108979229931235 0.6511152718372724
vt 0.28065620425665805 0.59375
vt 0.3574942093605995 0.6050579741018138
vt 0.33108979229931235 0.6511152718372724
vt 0.2926723355970399 0.6454615122835308
vt 0.550365300775871 0.875
vt 0.52856875 0.8610331452887603
vt 0.5544578125 0.7726456452887603
vt 0.6198500959901885 0.8145478954261867
vt 0.41138125 0.5
vt 0.38549375 0.5
vt 0.3596046875 0.40625
vt 0.43727031250000004 0.40625
vt 0.09643125 0.6422831452887603
vt 0.07463469922412902 0.65625
vt 0.005149904009811468 0.5957978954261867
vt 0.07054218749999996 0.5538956452887603
vt 0.12231875 0.6422831452887603
vt 0.09643125 0.6422831452887603
vt 0.07054218749999999 0.5538956452887603
vt 0.1482078125 0.5538956452887603
vt 0.14411530077587098 0.65625
vt 0.12231875 0.6422831452887603
vt 0.14820781250000004 0.5538956452887603
vt 0.21360009599018853 0.5957978954261867
vt 0.56763125 1
vt 0.54174375 1
vt 0.5158546875 0.90625
vt 0.5935203125 0.90625
vt 0.50268125 0.8610331452887603
vt 0.480884699224129 0.875
vt 0.41139990400981147 0.8145478954261867
vt 0.47679218749999996 0.7726456452887603
vt 0.52856875 0.8610331452887603
vt 0.50268125 0.8610331452887603
vt 0.47679218749999996 0.7726456452887603
vt 0.5544578125 0.7726456452887603
vt 0.13547864540955748 0.7055672422208766
vt 0.0962015625 0.7393057215379912
vt 0.08325625 0.7043682215379913
vt 0.10289360619667899 0.6875
vt 0.21608385459044252 0.535560671531393
vt 0.20827352435440402 0.484375
vt 0.24476396437635842 0.49190213816644845
vt 0.248668893803321 0.5174934293105162
vt 0.2553609375 0.5692991508485076
vt 0.21608385459044252 0.535560671531393
vt 0.24866889380332102 0.5174934293105162
vt 0.26830624999999997 0.5343616508485075
vt 0.3071390625 0.5692991508485076
vt 0.2553609375 0.5692991508485076
vt 0.26830624999999997 0.5343616508485075
vt 0.29419375000000003 0.5343616508485075
vt 0.34641614540955745 0.535560671531393
vt 0.3071390625 0.5692991508485076
vt 0.29419375000000003 0.5343616508485075
vt 0.313831106196679 0.5174934293105162
vt 0.35422647564559595 0.484375
vt 0.34641614540955745 0.535560671531393
vt 0.313831106196679 0.5174934293105162
vt 0.3177360356236416 0.49190213816644845
vt 0.044423437499999996 0.7393057215379912
vt 0.00514635459044252 0.7055672422208766
vt 0.03773139380332101 0.6875
vt 0.05736874999999999 0.7043682215379913
vt 0.0962015625 0.7393057215379912
vt 0.044423437499999996 0.7393057215379912
vt 0.057368749999999996 0.7043682215379913
vt 0.08325625 0.7043682215379913
vt 0.6212078125 0.7457843749999999
vt 0.6082640625 0.7457843749999999
vt 0.588846875 0.654675
vt 0.640625 0.654675
vt 0.381471875 0.3553078125
vt 0.368528125 0.3553078125
vt 0.3491109375 0.26419843749999994
vt 0.4008890625 0.26419843749999994
vt 0.6729859375 0.6369031249999999
vt 0.6600421875 0.6369031249999999
vt 0.640625 0.54579375
vt 0.692403125 0.54579375
vt 0.662721875 0.32473593750000007
vt 0.649778125 0.32473593750000007
vt 0.6303609375 0.23362656250000002
vt 0.6821390625 0.23362656250000002
vt 0.7305828125 0.9654953125
vt 0.7176390625 0.9654953125
vt 0.698221875 0.8743859375
vt 0.75 0.8743859375
vt 0.693971875 0.8091109375000001
vt 0.681028125 0.8091109375000001
vt 0.6616109375 0.7180015625
vt 0.7133890625 0.7180015625
vt 0.6729859375 0.4806531249999999
vt 0.6600421875 0.4806531249999999
vt 0.640625 0.38954374999999997
vt 0.692403125 0.38954374999999997
vt 0.647096875 0.9646828125
vt 0.634153125 0.9646828125
vt 0.6147359375 0.8735734374999999
vt 0.6665140625 0.8735734374999999
vt 0.6147359375 0.78125
vt 0.6082640625 0.7457843749999999
vt 0.6212078125 0.7457843749999999
vt 0.3757609375 0.390625
vt 0.368528125 0.3553078125
vt 0.381471875 0.3553078125
vt 0.6675890625 0.671875
vt 0.6600421875 0.6369031249999999
vt 0.6729859375 0.6369031249999999
vt 0.6570109375 0.359375
vt 0.649778125 0.32473593750000007
vt 0.662721875 0.32473593750000007
vt 0.7241109375 1
vt 0.7176390625 0.9654953125
vt 0.7305828125 0.9654953125
vt 0.6867390625 0.84375
vt 0.681028125 0.8091109375000001
vt 0.693971875 0.8091109375000001
vt 0.6654390625 0.515625
vt 0.6600421875 0.4806531249999999
vt 0.6729859375 0.4806531249999999
vt 0.647096875 0.9646828125
vt 0.6398640625 1
vt 0.634153125 0.9646828125
vn 0 -1 0
vn 0.7046642634176441 0.08304547985373996 0.7046642634176442
vn 0 -1 0
vn 0.9965457582448797 0.08304547985373997 0
vn 0 -1 0
vn 0.7046642634176443 0.08304547985373996 -0.7046642634176441
vn 0 -1 0
vn 1.7807046837663935e-16 0.08304547985374 -0.9965457582448797
vn 0 -1 0
vn -0.7046642634176439 0.08304547985373999 -0.7046642634176445
vn 0 -1 0
vn -0.9965457582448797 0.08304547985373997 -1.7807046837663915e-16
vn 0 -1 0
vn -0.7046642634176443 0.08304547985373996 0.704664263417644
vn 0 -1 0
vn -1.7807046837663925e-16 0.08304547985373997 0.9965457582448798
vn 0.13867504905630726 -0.9805806756909201 0.13867504905630726
vn 0.19611613513818407 -0.9805806756909203 0
vn 0.13867504905630726 -0.9805806756909201 -0.13867504905630723
vn 0 -0.9805806756909203 -0.19611613513818407
vn -0.13867504905630718 -0.9805806756909202 -0.1386750490563073
vn -0.1961161351381841 -0.9805806756909203 -3.003732077357606e-17
vn -0.1386750490563073 -0.9805806756909202 0.13867504905630718
vn 0 -0.9805806756909203 0.1961161351381841
vn 0.5521576303742327 0.6246950475544243 0.5521576303742327
vn 0.7808688094430304 0.6246950475544243 0
vn 0.5521576303742328 0.6246950475544243 -0.5521576303742326
vn 0 0.6246950475544244 -0.7808688094430305
vn -0.5521576303742324 0.6246950475544244 -0.5521576303742329
vn -0.7808688094430305 0.6246950475544243 -1.3953165069221092e-16
vn -0.5521576303742328 0.6246950475544244 0.5521576303742325
vn 0 0.6246950475544244 0.7808688094430305
vn 0.22360679774997896 -0.9486832980505138 0.22360679774997896
vn 0.31622776601683794 -0.9486832980505139 0
vn 0.22360679774997905 -0.948683298050514 -0.223606797749979
vn 0 -0.9486832980505139 -0.31622776601683794
vn -0.22360679774997883 -0.948683298050514 -0.22360679774997905
vn -0.316227766016838 -0.948683298050514 -5.650601183380827e-17
vn -0.22360679774997905 -0.948683298050514 0.22360679774997888
vn 0 -0.9486832980505139 0.316227766016838
vn 0.5 0.7071067811865476 0.5
vn 0.7071067811865476 0.7071067811865476 0
vn 0.5 0.7071067811865476 -0.4999999999999999
vn 0 0.7071067811865476 -0.7071067811865476
vn -0.4999999999999997 0.7071067811865477 -0.5000000000000002
vn -0.7071067811865476 0.7071067811865476 -1.8952692539670418e-16
vn -0.5000000000000001 0.7071067811865476 0.4999999999999997
vn 0 0.7071067811865476 0.7071067811865476
vn 0.316227766016838 -0.8944271909999161 0.316227766016838
vn 0.44721359549995804 -0.8944271909999161 0
vn 0.316227766016838 -0.8944271909999161 -0.3162277660168379
vn 0 -0.8944271909999161 -0.44721359549995804
vn -0.3162277660168377 -0.8944271909999161 -0.3162277660168381
vn -0.447213595499958 -0.8944271909999161 -5.993367621823967e-17
vn -0.316227766016838 -0.894427190999916 0.3162277660168377
vn 0 -0.8944271909999161 0.44721359549995804
vn 0.6063390625908325 0.5144957554275265 0.6063390625908325
vn 0.8574929257125442 0.5144957554275266 0
vn 0.6063390625908326 0.5144957554275266 -0.6063390625908323
vn 0 0.5144957554275266 -0.8574929257125442
vn -0.606339062590832 0.5144957554275266 -0.6063390625908328
vn -0.8574929257125442 0.5144957554275265 -1.1491757828076023e-16
vn -0.6063390625908327 0.5144957554275267 0.6063390625908321
vn 0 0.5144957554275266 0.8574929257125442
vn 0.6238049652260828 0.47088717408586483 0.6238049652260828
vn 0.8858696976511624 0.4639341319448682 0
vn 0.63260519038839 0.44679004709968423 -0.6326051903883898
vn 0 0.42913924758904054 -0.9032383440591484
vn -0.6411653988498417 0.42167981056181236 -0.6411653988498424
vn -0.9032383440591483 0.42913924758904043 -1.2090493344285223e-16
vn -0.6326051903883901 0.44679004709968434 0.6326051903883897
vn 0 0.4639341319448681 0.8858696976511623
usemtl m_d27cac6e-bad3-47cf-6257-0353650f012b
f 4/1/1 2/2/1 1/3/1
f 2/4/2 4/5/2 5/6/2 3/7/2
f 6/8/3 4/9/3 1/10/3
f 4/11/4 6/12/4 7/13/4 5/14/4
f 8/15/5 6/16/5 1/17/5
f 6/18/6 8/19/6 9/20/6 7/21/6
f 10/22/7 8/23/7 1/24/7
f 8/25/8 10/26/8 11/27/8 9/28/8
f 12/29/9 10/30/9 1/31/9
f 10/32/10 12/33/10 13/34/10 11/35/10
f 14/36/11 12/37/11 1/38/11
f 12/39/12 14/40/12 15/41/12 13/42/12
f 16/43/13 14/44/13 1/45/13
f 14/46/14 16/47/14 17/48/14 15/49/14
f 2/50/15 16/51/15 1/52/15
f 16/53/16 2/54/16 3/55/16 17/56/16
f 19/57/17 18/58/17 3/59/17 5/60/17
f 20/61/18 19/62/18 5/63/18 7/64/18
f 21/65/19 20/66/19 7/67/19 9/68/19
f 22/69/20 21/70/20 9/71/20 11/72/20
f 23/73/21 22/74/21 11/75/21 13/76/21
f 24/77/22 23/78/22 13/79/22 15/80/22
f 25/81/23 24/82/23 15/83/23 17/84/23
f 18/85/24 25/86/24 17/87/24 3/88/24
f 27/89/25 26/90/25 18/91/25 19/92/25
f 28/93/26 27/94/26 19/95/26 20/96/26
f 29/97/27 28/98/27 20/99/27 21/100/27
f 30/101/28 29/102/28 21/103/28 22/104/28
f 31/105/29 30/106/29 22/107/29 23/108/29
f 32/109/30 31/110/30 23/111/30 24/112/30
f 33/113/31 32/114/31 24/115/31 25/116/31
f 26/117/32 33/118/32 25/119/32 18/120/32
f 35/121/33 34/122/33 26/123/33 27/124/33
f 36/125/34 35/126/34 27/127/34 28/128/34
f 37/129/35 36/130/35 28/131/35 29/132/35
f 38/133/36 37/134/36 29/135/36 30/136/36
f 39/137/37 38/138/37 30/139/37 31/140/37
f 40/141/38 39/142/38 31/143/38 32/144/38
f 41/145/39 40/146/39 32/147/39 33/148/39
f 34/149/40 41/150/40 33/151/40 26/152/40
f 43/153/41 42/154/41 34/155/41 35/156/41
f 44/157/42 43/158/42 35/159/42 36/160/42
f 45/161/43 44/162/43 36/163/43 37/164/43
f 46/165/44 45/166/44 37/167/44 38/168/44
f 47/169/45 46/170/45 38/171/45 39/172/45
f 48/173/46 47/174/46 39/175/46 40/176/46
f 49/177/47 48/178/47 40/179/47 41/180/47
f 42/181/48 49/182/48 41/183/48 34/184/48
f 51/185/49 50/186/49 42/187/49 43/188/49
f 52/189/50 51/190/50 43/191/50 44/192/50
f 53/193/51 52/194/51 44/195/51 45/196/51
f 54/197/52 53/198/52 45/199/52 46/200/52
f 55/201/53 54/202/53 46/203/53 47/204/53
f 56/205/54 55/206/54 47/207/54 48/208/54
f 57/209/55 56/210/55 48/211/55 49/212/55
f 50/213/56 57/214/56 49/215/56 42/216/56
f 59/217/57 58/218/57 50/219/57 51/220/57
f 60/221/58 59/222/58 51/223/58 52/224/58
f 61/225/59 60/226/59 52/227/59 53/228/59
f 62/229/60 61/230/60 53/231/60 54/232/60
f 63/233/61 62/234/61 54/235/61 55/236/61
f 64/237/62 63/238/62 55/239/62 56/240/62
f 65/241/63 64/242/63 56/243/63 57/244/63
f 58/245/64 65/246/64 57/247/64 50/248/64
f 66/249/65 58/250/65 59/251/65
f 66/252/66 59/253/66 60/254/66
f 66/255/67 60/256/67 61/257/67
f 66/258/68 61/259/68 62/260/68
f 66/261/69 62/262/69 63/263/69
f 66/264/70 63/265/70 64/266/70
f 66/267/71 64/268/71 65/269/71
f 58/270/72 66/271/72 65/272/72