# Made in Blockbench 5.2.1
mtllib glyph_stone_2.mtl

o mesh
v 0.25 2.75 0.6875
v 0.25 3 -1
v 0.25 0 1
v 0.25 0 -1
v -0.25 2.75 0.6875
v -0.25 3 -1
v -0.25 0 1
v -0.25 0 -1
vt 0.25 1
vt 0.0390625 0.96875
vt 0 0.625
vt 0.25 0.625
vt 0.5078125 0.625
vt 0.46875 0.96875
vt 0.2578125 1
vt 0.2578125 0.625
vt 0.2109375 0.40234375
vt 0.2734375 0.40234375
vt 0.2734375 0.6171875
vt 0.2109375 0.6171875
vt 0.203125 0.3671875
vt 0.203125 0.6171875
vt 0.140625 0.6171875
vt 0.140625 0.3671875
vt 0.1328125 0.26953125
vt 0.1328125 0.6171875
vt 0.0703125 0.6171875
vt 0.0703125 0.26953125
vt 0.0625 0.6171875
vt 0 0.6171875
vt 0 0.2421875
vt 0.0625 0.2421875
vn 1 0 0
vn -1 0 0
vn 0 0.989203462353871 0.14654866108946235
vn 0 -1 0
vn 0 0.11290968804428625 0.993605254789719
vn 0 0 -1
usemtl m_2b1872de-5b39-1704-4956-7b4c141ecec5
f 2/1/1 1/2/1 3/3/1 4/4/1
f 7/5/2 5/6/2 6/7/2 8/8/2
f 5/9/3 1/10/3 2/11/3 6/12/3
f 4/13/4 3/14/4 7/15/4 8/16/4
f 3/17/5 1/18/5 5/19/5 7/20/5
f 6/21/6 2/22/6 4/23/6 8/24/6