# Made in Blockbench 5.2.1
mtllib buildable_stone_wall.mtl

o mesh
v 0.4375 1.9375 1.75
v 0.4375 0.0625 1.75
v -0.4375 0.0625 1.75
v -0.4375 1.9375 1.75
v 0.4375 1.9375 -1.75
v 0.4375 0.0625 -1.75
v -0.4375 0.0625 -1.75
v -0.4375 1.9375 -1.75
v 0.4375 1.75 1.9375
v 0.5 1.75 1.75
v 0.5 1.75 -1.75
v 0.4375 1.75 -1.9375
v -0.4375 1.75 -1.9375
v -0.5 1.75 -1.75
v -0.5 1.75 1.75
v -0.4375 1.75 1.9375
v 0.4375 0.25 1.9375
v 0.5 0.25 1.75
v 0.5 0.25 -1.75
v 0.4375 0.25 -1.9375
v -0.4375 0.25 -1.9375
v -0.5 0.25 -1.75
v -0.5 0.25 1.75
v -0.4375 0.25 1.9375
v -0.25 1.9375 1.9375
v -0.25 2 1.75
v -0.25 2 -1.75
v -0.25 1.9375 -1.9375
v -0.25 1.75 -2
v -0.25 0.25 -2
v -0.25 0.0625 -1.9375
v -0.25 0 -1.75
v -0.25 0 1.75
v -0.25 0.0625 1.9375
v -0.25 0.25 2
v -0.25 1.75 2
v 0.25 1.9375 1.9375
v 0.25 2 1.75
v 0.25 2 -1.75
v 0.25 1.9375 -1.9375
v 0.25 1.75 -2
v 0.25 0.25 -2
v 0.25 0.0625 -1.9375
v 0.25 0 -1.75
v 0.25 0 1.75
v 0.25 0.0625 1.9375
v 0.25 0.25 2
v 0.25 1.75 2
vt 0.000685156250000013 0.78779453125
vt 0.022920312500000012 0.7632125000000001
vt 0.025390625 0.78779453125
vt 0.48759609375 0.53779453125
vt 0.462890625 0.53779453125
vt 0.46536093749999996 0.5132125000000001
vt 0.564453125 0.03652656249999997
vt 0.5890349949480203 0.05876156195451787
vt 0.564453125 0.06123170444851522
vt 0.087890625 0.49862936069851527
vt 0.087890625 0.47392421875
vt 0.11247249494802022 0.47639436124399737
vt 0.587890625 0.7630886095975445
vt 0.6124722056186709 0.7853234827994404
vt 0.587890625 0.78779453125
vt 0.150390625 0.26308860959754454
vt 0.150390625 0.28779453125
vt 0.12580904438132917 0.2853234827994404
vt 0.462890625 0.7630890625
vt 0.462890625 0.78779453125
vt 0.025390625 0.78779453125
vt 0.025390625 0.7630890625
vt 0.11259609374999999 0.47392421875
vt 0.08789062499999997 0.47392421875
vt 0.087890625 0.036424218750000015
vt 0.11259609375000001 0.036424218750000015
vt 0.462890625 0.5130890625
vt 0.462890625 0.53779453125
vt 0.025390625 0.53779453125
vt 0.025390625 0.5130890625
vt 0.58915859375 0.49873203125
vt 0.564453125 0.49873203125
vt 0.564453125 0.061232031249999985
vt 0.58915859375 0.061232031249999985
vt 0.48759609375 0.78779453125
vt 0.462890625 0.78779453125
vt 0.46536093749999996 0.7632125000000001
vt 0.087890625 0.01171875
vt 0.11247249494802021 0.0339537494545179
vt 0.087890625 0.03642389194851525
vt 0.000685156250000013 0.53779453125
vt 0.022920312500000012 0.5132125000000001
vt 0.025390625 0.53779453125
vt 0.564453125 0.5234371731985152
vt 0.564453125 0.4987320312499999
vt 0.5890349949480203 0.5012021737439973
vt 0.000685156250000013 0.97529453125
vt 0.025390625 0.97529453125
vt 0.022920312500000012 0.9998765625
vt 0.025390625 1
vt 0.025390625 0.97529453125
vt 0.462890625 0.97529453125
vt 0.462890625 1
vt 0.46536093749999996 0.9998765625
vt 0.462890625 0.97529453125
vt 0.48759609375 0.97529453125
vt 0.150390625 0.5
vt 0.12580904438132917 0.4777651267981041
vt 0.150390625 0.47529407834754456
vt 0.000685156250000013 0.72529453125
vt 0.025390625 0.72529453125
vt 0.022920312500000012 0.7498765625
vt 0.025390625 0.75
vt 0.025390625 0.72529453125
vt 0.462890625 0.72529453125
vt 0.462890625 0.75
vt 0.46536093749999996 0.7498765625
vt 0.462890625 0.72529453125
vt 0.48759609375 0.72529453125
vt 0.587890625 1
vt 0.587890625 0.9752940783475446
vt 0.6124722056186709 0.9777651267981041
vt 0.000685156250000013 0.97529453125
vt 0.000685156250000013 0.78779453125
vt 0.025390625 0.78779453125
vt 0.025390625 0.97529453125
vt 0.025390625 0.97529453125
vt 0.025390625 0.78779453125
vt 0.462890625 0.78779453125
vt 0.462890625 0.97529453125
vt 0.462890625 0.97529453125
vt 0.462890625 0.78779453125
vt 0.48759609375 0.78779453125
vt 0.48759609375 0.97529453125
vt 0.12568515624999999 0.28779453125
vt 0.150390625 0.28779453125
vt 0.150390625 0.47529453125
vt 0.12568515624999999 0.47529453125
vt 0.000685156250000013 0.72529453125
vt 0.000685156250000013 0.53779453125
vt 0.025390625 0.53779453125
vt 0.025390625 0.72529453125
vt 0.025390625 0.72529453125
vt 0.025390625 0.53779453125
vt 0.462890625 0.53779453125
vt 0.462890625 0.72529453125
vt 0.462890625 0.72529453125
vt 0.462890625 0.53779453125
vt 0.48759609375 0.53779453125
vt 0.48759609375 0.72529453125
vt 0.61259609375 0.9752940783475446
vt 0.587890625 0.9752940783475446
vt 0.587890625 0.7877940783475446
vt 0.61259609375 0.7877940783475446
vt 0.501953125 0.03652656249999997
vt 0.501953125 0.06123170444851522
vt 0.4773712550519798 0.05876156195451787
vt 0.47724765625 0.061232031249999985
vt 0.501953125 0.061232031249999985
vt 0.501953125 0.49873203125
vt 0.47724765625 0.49873203125
vt 0.4773712550519798 0.5012021737439973
vt 0.501953125 0.49873203125
vt 0.501953125 0.5234371731985152
vt 0.212890625 0.5
vt 0.212890625 0.47529407834754456
vt 0.23747220561867083 0.4777651267981041
vt 0.23759609375000001 0.47529453125
vt 0.212890625 0.47529453125
vt 0.212890625 0.28779453125
vt 0.23759609375000001 0.28779453125
vt 0.23747220561867083 0.2853234827994404
vt 0.212890625 0.28779453125
vt 0.212890625 0.26308860959754454
vt 0.025390625 0.01171875
vt 0.025390625000000003 0.03642389194851525
vt 0.0008087550519797898 0.0339537494545179
vt 0.0006851562499999853 0.036424218750000015
vt 0.025390625 0.036424218750000015
vt 0.025390625000000028 0.47392421875
vt 0.000685156250000013 0.47392421875
vt 0.0008087550519797829 0.47639436124399737
vt 0.025390625 0.47392421875
vt 0.025390625 0.49862936069851527
vt 0.525390625 0.7630886095975445
vt 0.525390625 0.78779453125
vt 0.5008090443813291 0.7853234827994404
vt 0.50068515625 0.7877940783475446
vt 0.525390625 0.7877940783475446
vt 0.525390625 0.9752940783475446
vt 0.50068515625 0.9752940783475446
vt 0.5008090443813291 0.9777651267981041
vt 0.525390625 0.9752940783475446
vt 0.525390625 1
vt 0.501953125 0.03652656249999997
vt 0.564453125 0.03652656249999997
vt 0.564453125 0.061232031249999985
vt 0.501953125 0.061232031249999985
vt 0.501953125 0.061232031249999985
vt 0.564453125 0.061232031249999985
vt 0.564453125 0.49873203125
vt 0.501953125 0.49873203125
vt 0.501953125 0.49873203125
vt 0.564453125 0.49873203125
vt 0.564453125 0.5234375
vt 0.501953125 0.5234375
vt 0.212890625 0.5
vt 0.150390625 0.5
vt 0.150390625 0.47529453125
vt 0.212890625 0.47529453125
vt 0.212890625 0.47529453125
vt 0.150390625 0.47529453125
vt 0.150390625 0.28779453125
vt 0.212890625 0.28779453125
vt 0.212890625 0.28779453125
vt 0.150390625 0.28779453125
vt 0.150390625 0.26308906249999997
vt 0.212890625 0.26308906249999997
vt 0.025390625000000003 0.01171875
vt 0.087890625 0.01171875
vt 0.087890625 0.036424218750000015
vt 0.025390625 0.036424218750000015
vt 0.025390625 0.036424218750000015
vt 0.087890625 0.036424218750000015
vt 0.087890625 0.47392421875
vt 0.025390625 0.47392421875
vt 0.025390625 0.47392421875
vt 0.087890625 0.47392421875
vt 0.087890625 0.49862968750000003
vt 0.025390625 0.49862968750000003
vt 0.525390625 0.7630886095975445
vt 0.587890625 0.7630886095975445
vt 0.587890625 0.7877940783475446
vt 0.525390625 0.7877940783475446
vt 0.525390625 0.7877940783475446
vt 0.587890625 0.7877940783475446
vt 0.587890625 0.9752940783475446
vt 0.525390625 0.9752940783475446
vt 0.525390625 0.9752940783475446
vt 0.587890625 0.9752940783475446
vt 0.587890625 0.9999995470975446
vt 0.525390625 0.9999995470975446
vt 0.28515625 0.5
vt 0.25201015625 0.5
vt 0.2685828125 0.4712953125
vt 0.53314609375 0.75
vt 0.5 0.75
vt 0.5165734375 0.7212953125
vt 0.53515625 0.7109375
vt 0.50201015625 0.7109375
vt 0.5185828125 0.6822328125
vt 0.33002109375 0.5
vt 0.296875 0.5
vt 0.3134484375 0.4712953125
vt 0.53314609375 0.640625
vt 0.5165734375 0.6693296875
vt 0.5 0.640625
vt 0.3545203125 0.4974546875
vt 0.33794765625 0.46875
vt 0.37109375 0.46875
vt 0.5165734375 0.6302671875
vt 0.5 0.6015625
vt 0.53314609375 0.6015625
vt 0.38482265625 0.46875
vt 0.41796875 0.46875
vt 0.4013953125 0.4974546875
vn 0.9045340337332909 -0.30151134457776363 0.30151134457776363
vn -0.9045340337332909 -0.30151134457776363 0.30151134457776363
vn 0.30151134457776363 0.9045340337332909 0.30151134457776363
vn 0.30151134457776363 -0.9045340337332909 0.30151134457776363
vn 0.30151134457776363 -0.30151134457776363 0.9045340337332909
vn 0.30151134457776363 -0.30151134457776363 -0.9045340337332909
vn 0.9486832980505139 -0.31622776601683794 0
vn 0.31622776601683794 -0.9486832980505139 0
vn -0.9486832980505139 -0.31622776601683794 0
vn 0.31622776601683794 0.9486832980505139 0
vn 0.9045340337332909 -0.30151134457776363 -0.30151134457776363
vn 0.30151134457776363 -0.9045340337332909 -0.30151134457776363
vn -0.9045340337332909 -0.30151134457776363 -0.30151134457776363
vn 0.30151134457776363 0.9045340337332909 -0.30151134457776363
vn 0.9045340337332909 0.30151134457776363 0.30151134457776363
vn 0.9486832980505139 0.31622776601683794 0
vn 0.9045340337332909 0.30151134457776363 -0.30151134457776363
vn 0.30151134457776363 0.30151134457776363 -0.9045340337332909
vn -0.9045340337332909 0.30151134457776363 -0.30151134457776363
vn -0.9486832980505139 0.31622776601683794 0
vn -0.9045340337332909 0.30151134457776363 0.30151134457776363
vn 0.30151134457776363 0.30151134457776363 0.9045340337332909
vn 0.948683298050514 0 0.316227766016838
vn 1 0 0
vn 0.948683298050514 0 -0.316227766016838
vn 0.316227766016838 0 -0.948683298050514
vn -0.948683298050514 0 -0.316227766016838
vn -1 0 0
vn -0.948683298050514 0 0.316227766016838
vn 0.316227766016838 0 0.948683298050514
vn -0.30151134457776363 0.9045340337332909 0.30151134457776363
vn -0.31622776601683794 0.9486832980505139 0
vn -0.30151134457776363 0.9045340337332909 -0.30151134457776363
vn -0.30151134457776363 0.30151134457776363 -0.9045340337332909
vn -0.316227766016838 0 -0.948683298050514
vn -0.30151134457776363 -0.30151134457776363 -0.9045340337332909
vn -0.30151134457776363 -0.9045340337332909 -0.30151134457776363
vn -0.31622776601683794 -0.9486832980505139 0
vn -0.30151134457776363 -0.9045340337332909 0.30151134457776363
vn -0.30151134457776363 -0.30151134457776363 0.9045340337332909
vn -0.316227766016838 0 0.948683298050514
vn -0.30151134457776363 0.30151134457776363 0.9045340337332909
vn 0 0.948683298050514 0.316227766016838
vn 0 1 0
vn 0 0.948683298050514 -0.316227766016838
vn 0 0.316227766016838 -0.948683298050514
vn 0 0 -1
vn 0 -0.316227766016838 -0.948683298050514
vn 0 -0.948683298050514 -0.316227766016838
vn 0 -1 0
vn 0 -0.948683298050514 0.316227766016838
vn 0 -0.316227766016838 0.948683298050514
vn 0 0 1
vn 0 0.316227766016838 0.948683298050514
vn -0.5773502691896257 0.5773502691896257 -0.5773502691896257
vn 0.5773502691896257 0.5773502691896257 -0.5773502691896257
vn 0.5773502691896257 0.5773502691896257 0.5773502691896257
vn -0.5773502691896257 0.5773502691896257 0.5773502691896257
vn -0.5773502691896257 -0.5773502691896257 0.5773502691896257
vn 0.5773502691896257 -0.5773502691896257 0.5773502691896257
vn 0.5773502691896257 -0.5773502691896257 -0.5773502691896257
vn -0.5773502691896257 -0.5773502691896257 -0.5773502691896257
usemtl m_ade1d26f-e1b3-147d-ada1-882f3161436f
f 17/1/1 2/2/1 18/3/1
f 24/4/2 23/5/2 3/6/2
f 37/7/3 1/8/3 38/9/3
f 46/10/4 45/11/4 2/12/4
f 46/13/5 17/14/5 47/15/5
f 43/16/6 42/17/6 20/18/6
f 6/19/7 19/20/7 18/21/7 2/22/7
f 2/23/8 45/24/8 44/25/8 6/26/8
f 3/27/9 23/28/9 22/29/9 7/30/9
f 5/31/10 39/32/10 38/33/10 1/34/10
f 20/35/11 19/36/11 6/37/11
f 43/38/12 6/39/12 44/40/12
f 21/41/13 7/42/13 22/43/13
f 40/44/14 39/45/14 5/46/14
f 9/47/15 10/48/15 1/49/15
f 1/50/16 10/51/16 11/52/16 5/53/16
f 5/54/17 11/55/17 12/56/17
f 40/57/18 12/58/18 41/59/18
f 13/60/19 14/61/19 8/62/19
f 8/63/20 14/64/20 15/65/20 4/66/20
f 4/67/21 15/68/21 16/69/21
f 37/70/22 48/71/22 9/72/22
f 9/73/23 17/74/23 18/75/23 10/76/23
f 10/77/24 18/78/24 19/79/24 11/80/24
f 11/81/25 19/82/25 20/83/25 12/84/25
f 20/85/26 42/86/26 41/87/26 12/88/26
f 13/89/27 21/90/27 22/91/27 14/92/27
f 14/93/28 22/94/28 23/95/28 15/96/28
f 15/97/29 23/98/29 24/99/29 16/100/29
f 9/101/30 48/102/30 47/103/30 17/104/30
f 25/105/31 26/106/31 4/107/31
f 4/108/32 26/109/32 27/110/32 8/111/32
f 8/112/33 27/113/33 28/114/33
f 28/115/34 29/116/34 13/117/34
f 13/118/35 29/119/35 30/120/35 21/121/35
f 21/122/36 30/123/36 31/124/36
f 31/125/37 32/126/37 7/127/37
f 7/128/38 32/129/38 33/130/38 3/131/38
f 3/132/39 33/133/39 34/134/39
f 34/135/40 35/136/40 24/137/40
f 24/138/41 35/139/41 36/140/41 16/141/41
f 16/142/42 36/143/42 25/144/42
f 25/145/43 37/146/43 38/147/43 26/148/43
f 26/149/44 38/150/44 39/151/44 27/152/44
f 27/153/45 39/154/45 40/155/45 28/156/45
f 28/157/46 40/158/46 41/159/46 29/160/46
f 29/161/47 41/162/47 42/163/47 30/164/47
f 30/165/48 42/166/48 43/167/48 31/168/48
f 31/169/49 43/170/49 44/171/49 32/172/49
f 32/173/50 44/174/50 45/175/50 33/176/50
f 33/177/51 45/178/51 46/179/51 34/180/51
f 34/181/52 46/182/52 47/183/52 35/184/52
f 35/185/53 47/186/53 48/187/53 36/188/53
f 36/189/54 48/190/54 37/191/54 25/192/54
f 8/193/55 28/194/55 13/195/55
f 40/196/56 5/197/56 12/198/56
f 1/199/57 37/200/57 9/201/57
f 25/202/58 4/203/58 16/204/58
f 34/205/59 24/206/59 3/207/59
f 17/208/60 46/209/60 2/210/60
f 20/211/61 6/212/61 43/213/61
f 31/214/62 7/215/62 21/216/62