# Made in Blockbench 5.2.1
mtllib grimoire.mtl

o top_page
v 0.125 0.09375 0.15625
v 0.125 0.09375 -0.15625
v 0.125 0.0625 0.15625
v 0.125 0.0625 -0.15625
v -0.125 0.09375 0.15625
v -0.125 0.09375 -0.15625
v -0.125 0.0625 0.15625
v -0.125 0.0625 -0.15625
vt 0.625 0.8125
vt 0.46875 0.8125
vt 0.46875 0.78125
vt 0.625 0.78125
vt 0.25 0.65625
vt 0.375 0.65625
vt 0.375 0.8125
vt 0.25 0.8125
vt 0.4375 0.84375
vt 0.4375 1
vt 0.3125 1
vt 0.3125 0.84375
vt 0.59375 0.65625
vt 0.59375 0.6875
vt 0.46875 0.6875
vt 0.46875 0.65625
vt 0.59375 0.65625
vt 0.46875 0.65625
vt 0.46875 0.625
vt 0.59375 0.625
vt 0.625 0.75
vt 0.625 0.78125
vt 0.46875 0.78125
vt 0.46875 0.75
vn 1 0 0
vn 0 1 0
vn 0 -1 0
vn 0 0 1
vn 0 0 -1
vn -1 0 0
usemtl m_d41e6a09-9426-4caf-5c35-d0e7d1634bcb
f 2/1/1 1/2/1 3/3/1 4/4/1
f 5/5/2 1/6/2 2/7/2 6/8/2
f 4/9/3 3/10/3 7/11/3 8/12/3
f 3/13/4 1/14/4 5/15/4 7/16/4
f 6/17/5 2/18/5 4/19/5 8/20/5
f 7/21/6 5/22/6 6/23/6 8/24/6
o spine
v 0.1875 0.09374999999999999 -0.1875
v 0.1875 0.09375000000000007 0.1875
v 0.15625000000000003 0.125 -0.1875
v 0.18749999999999997 0.031249999999999965 -0.1875
v 0.18749999999999997 0.03125000000000005 0.1875
v 0.15625 0.0625 -0.1875
v 0.15625 0.06250000000000008 0.1875
v 0.15625000000000003 0.12500000000000008 0.1875
v 0.15624999999999997 0 -0.1875
v 0.15624999999999997 8.326672684688674e-17 0.1875
v 0.125 0.03125000000000001 0.1875
v 0.125 0.03125000000000001 -0.18750000000000003
v 0.12499999999999999 6.938893903907228e-18 0.1875
v 0.12499999999999999 6.938893903907228e-18 -0.1875
v -0.125 0.03125000000000001 0.1875
v -0.125 0.03125000000000001 -0.18750000000000003
v -0.125 6.938893903907228e-18 0.1875
v -0.125 6.938893903907228e-18 -0.1875
v 0.15625 0.03125000000000001 0.1875
v 0.15624999999999997 0 0.1875
v 0.15625 0.03125000000000001 -0.18750000000000003
v 0.15625 6.938893903907228e-18 -0.1875
v 0.15624999999999997 0.09375 0.1875
v 0.15624999999999997 0.09375 -0.1875
v 0.12499999999999997 0.09375 -0.1875
v 0.12499999999999997 0.09375 0.1875
v 0.15624999999999997 0.125 0.1875
v 0.15624999999999997 0.12499999999999999 -0.1875
v 0.12499999999999999 0.125 -0.1875
v 0.12499999999999999 0.125 0.1875
v -0.125 0.125 0.1875
v -0.125 0.125 -0.1875
v -0.125 0.09375 -0.1875
v -0.125 0.09375 0.1875
vt 0.46875 0.8125
vt 0.5 0.8125
vt 0.5 1
vt 0.46875 1
vt 0.4375 0.4375
vt 0.46875 0.4375
vt 0.46875 0.625
vt 0.4375 0.625
vt 0.359375 0.828125
vt 0.328125 0.828125
vt 0.34375 0.8125
vt 0.4375 0.8125
vt 0.46875 0.8125
vt 0.46875 1
vt 0.4375 1
vt 0.484375 0.546875
vt 0.515625 0.546875
vt 0.5 0.5625
vt 0.375 0.8125
vt 0.359375 0.828125
vt 0.34375 0.8125
vt 0.515625 0.546875
vt 0.53125 0.5625
vt 0.5 0.5625
vt 0.328125 0.828125
vt 0.3125 0.8125
vt 0.34375 0.8125
vt 0.46875 0.5625
vt 0.484375 0.546875
vt 0.5 0.5625
vt 0.140625 0.4375
vt 0.140625 0.625
vt 0.125 0.625
vt 0.125 0.4375
vt 0.40625 0.6875
vt 0.375 0.6875
vt 0.375 0.5
vt 0.40625 0.5
vt 0.125 0.8125
vt 0 0.8125
vt 0 0.625
vt 0.125 0.625
vt 0.2890625 0.8125
vt 0.2890625 1
vt 0.1640625 1
vt 0.1640625 0.8125
vt 0.375 0.71875
vt 0.390625 0.71875
vt 0.390625 0.84375
vt 0.375 0.84375
vt 0.203125 0.46875
vt 0.203125 0.59375
vt 0.1875 0.59375
vt 0.1875 0.46875
vt 0.0078125 1
vt 0.0078125 0.8125
vt 0.0234375 0.8125
vt 0.0234375 1
vt 0.375 0.703125
vt 0.390625 0.703125
vt 0.390625 0.71875
vt 0.375 0.71875
vt 0.3046875 0.8125
vt 0.3046875 1
vt 0.2890625 1
vt 0.2890625 0.8125
vt 0.203125 0.609375
vt 0.1875 0.609375
vt 0.1875 0.59375
vt 0.203125 0.59375
vt 0.171875 0.4375
vt 0.171875 0.625
vt 0.140625 0.625
vt 0.140625 0.4375
vt 0.234375 0.59375
vt 0.234375 0.609375
vt 0.203125 0.609375
vt 0.203125 0.59375
vt 0.4375 0.8125
vt 0.4375 0.625
vt 0.46875 0.625
vt 0.46875 0.8125
vt 0.421875 0.703125
vt 0.421875 0.71875
vt 0.390625 0.71875
vt 0.390625 0.703125
vt 0.1875 0.4375
vt 0.1875 0.625
vt 0.171875 0.625
vt 0.171875 0.4375
vt 0.25 0.59375
vt 0.25 0.609375
vt 0.234375 0.609375
vt 0.234375 0.59375
vt 0.40625 0.6875
vt 0.40625 0.5
vt 0.4375 0.5
vt 0.4375 0.6875
vt 0.4375 0.703125
vt 0.4375 0.71875
vt 0.421875 0.71875
vt 0.421875 0.703125
vt 0.1484375 0.8125
vt 0.1484375 1
vt 0.0234375 1
vt 0.0234375 0.8125
vt 0.23437499999999997 0.46875
vt 0.24999999999999997 0.46875
vt 0.25 0.59375
vt 0.234375 0.59375
vt 0.125 0.8125
vt 0.125 0.625
vt 0.25 0.625
vt 0.25 0.8125
vt 0.4375 0.84375
vt 0.421875 0.84375
vt 0.421875 0.71875
vt 0.4375 0.71875
vn 0.7071067811865478 0.7071067811865472 -1.5700924586837744e-16
vn 0.7071067811865471 -0.7071067811865479 1.570092458683776e-16
vn -4.930380657631324e-32 -2.220446049250313e-16 -1
vn 1 -3.885780586188047e-16 8.628166150854814e-32
vn 4.930380657631324e-32 2.220446049250313e-16 1
vn -4.930380657631324e-32 -2.220446049250313e-16 -1
vn 4.930380657631324e-32 2.220446049250313e-16 1
vn -4.930380657631324e-32 -2.220446049250313e-16 -1
vn 4.930380657631324e-32 2.220446049250313e-16 1
vn 1 -2.220446049250313e-16 4.930380657631324e-32
vn -1 2.220446049250313e-16 -4.930380657631324e-32
vn 0 1 -1.0947644252537633e-47
vn 0 -1 1.0947644252537633e-47
vn 4.930380657631324e-32 2.220446049250313e-16 1
vn -4.930380657631324e-32 -2.220446049250313e-16 -1
vn 2.220446049250313e-16 1 -3.7007434154171876e-17
vn 4.930380657631324e-32 2.220446049250313e-16 1
vn -2.220446049250313e-16 -1 -1.8503717077085926e-17
vn -4.930380657631324e-32 -2.220446049250313e-16 -1
vn 1 2.220446049250313e-16 4.930380657631324e-32
vn 4.930380657631326e-32 2.220446049250314e-16 -1
vn -1 -2.220446049250313e-16 -4.930380657631324e-32
vn 4.930380657631324e-32 2.220446049250313e-16 1
vn 1 -2.220446049250313e-16 4.930380657631324e-32
vn -4.930380657631324e-32 -2.220446049250313e-16 -1
vn -1 2.220446049250313e-16 -4.930380657631324e-32
vn 4.930380657631324e-32 2.220446049250313e-16 1
vn -4.930380657631324e-32 1 -3.70074341541719e-17
vn -4.930380657631324e-32 -2.220446049250313e-16 -1
vn 4.930380657631324e-32 -1 1.0947644252537636e-47
vn 4.930380657631324e-32 2.220446049250313e-16 1
usemtl m_d41e6a09-9426-4caf-5c35-d0e7d1634bcb
f 9/25/7 11/26/7 16/27/7 10/28/7
f 17/29/8 12/30/8 13/31/8 18/32/8
f 9/33/9 12/34/9 14/35/9
f 12/36/10 9/37/10 10/38/10 13/39/10
f 13/40/11 10/41/11 15/42/11
f 11/43/12 9/44/12 14/45/12
f 10/46/13 16/47/13 15/48/13
f 12/49/14 17/50/14 14/51/14
f 18/52/15 13/53/15 15/54/15
f 29/55/16 27/56/16 28/57/16 30/58/16
f 25/59/17 23/60/17 24/61/17 26/62/17
f 23/63/18 19/64/18 20/65/18 24/66/18
f 22/67/19 21/68/19 25/69/19 26/70/19
f 21/71/20 19/72/20 23/73/20 25/74/20
f 24/75/21 20/76/21 22/77/21 26/78/21
f 35/79/22 36/80/22 37/81/22 38/82/22
f 28/83/23 27/84/23 19/85/23 21/86/23
f 30/87/24 28/88/24 21/89/24 22/90/24
f 29/91/25 30/92/25 22/93/25 20/94/25
f 32/95/26 31/96/26 27/97/26 29/98/26
f 33/99/27 32/100/27 29/101/27 20/102/27
f 34/103/28 33/104/28 20/105/28 19/106/28
f 31/107/29 34/108/29 19/109/29 27/110/29
f 36/111/30 35/112/30 31/113/30 32/114/30
f 37/115/31 36/116/31 32/117/31 33/118/31
f 39/119/32 40/120/32 41/121/32 42/122/32
f 35/123/33 38/124/33 34/125/33 31/126/33
f 40/127/34 39/128/34 38/129/34 37/130/34
f 41/131/35 40/132/35 37/133/35 33/134/35
f 42/135/36 41/136/36 33/137/36 34/138/36
f 39/139/37 42/140/37 34/141/37 38/142/37
o bottom_page
v 0.125 0.0625 0.15625
v 0.125 0.0625 -0.15625
v 0.125 0.03125 0.15625
v 0.125 0.03125 -0.15625
v -0.125 0.0625 0.15625
v -0.125 0.0625 -0.15625
v -0.125 0.03125 0.15625
v -0.125 0.03125 -0.15625
vt 0.625 0.75
vt 0.46875 0.75
vt 0.46875 0.71875
vt 0.625 0.71875
vt 0.25 0.5
vt 0.375 0.5
vt 0.375 0.65625
vt 0.25 0.65625
vt 0.125 0.46875
vt 0.125 0.625
vt 0 0.625
vt 0 0.46875
vt 0.59375 0.59375
vt 0.59375 0.625
vt 0.46875 0.625
vt 0.46875 0.59375
vt 0.59375 0.59375
vt 0.46875 0.59375
vt 0.46875 0.5625
vt 0.59375 0.5625
vt 0.625 0.6875
vt 0.625 0.71875
vt 0.46875 0.71875
vt 0.46875 0.6875
vn 1 0 0
vn 0 1 0
vn 0 -1 0
vn 0 0 1
vn 0 0 -1
vn -1 0 0
usemtl m_d41e6a09-9426-4caf-5c35-d0e7d1634bcb
f 44/143/38 43/144/38 45/145/38 46/146/38
f 47/147/39 43/148/39 44/149/39 48/150/39
f 46/151/40 45/152/40 49/153/40 50/154/40
f 45/155/41 43/156/41 47/157/41 49/158/41
f 48/159/42 44/160/42 46/161/42 50/162/42
f 49/163/43 47/164/43 48/165/43 50/166/43