# MagicaVoxel @ Ephtracy

# group
o 

# material
mtllib rock_1.mtl
usemtl palette

# normals
vn -1 0 0
vn 1 0 0
vn 0 0 1
vn 0 0 -1
vn 0 -1 0
vn 0 1 0

# texcoords
vt 0.974609 0.5
vt 0.982422 0.5
vt 0.986328 0.5
vt 0.990234 0.5

# verts
v -0.8 0 0.7
v -0.8 0 -0.1
v -0.8 0 -0.6
v -0.8 0 -0.7
v -0.8 0.1 0.7
v -0.8 0.1 0.1
v -0.8 0.1 -0.6
v -0.8 0.1 -0.7
v -0.8 0.2 0.7
v -0.8 0.2 0.1
v -0.8 0.2 -0.1
v -0.8 0.2 -0.6
v -0.7 0.2 0.6
v -0.7 0.2 0.1
v -0.7 0.2 -0.1
v -0.7 0.2 -0.5
v -0.7 0.3 0.6
v -0.7 0.3 0.1
v -0.7 0.3 -0.2
v -0.7 0.3 -0.5
v -0.7 0.4 0.1
v -0.7 0.4 -0.2
v -0.6 0 0.8
v -0.6 0 0.7
v -0.6 0 -0.7
v -0.6 0 -0.8
v -0.6 0.1 0.8
v -0.6 0.1 0.7
v -0.6 0.1 -0.6
v -0.6 0.1 -0.7
v -0.6 0.1 -0.8
v -0.6 0.2 -0.5
v -0.6 0.2 -0.6
v -0.6 0.2 -0.7
v -0.6 0.3 0.4
v -0.6 0.3 0.1
v -0.6 0.3 -0.5
v -0.6 0.3 -0.6
v -0.6 0.4 0.4
v -0.6 0.4 0.1
v -0.5 0.3 -0.2
v -0.5 0.3 -0.4
v -0.5 0.3 -0.5
v -0.5 0.3 -0.6
v -0.5 0.4 0.2
v -0.5 0.4 0.1
v -0.5 0.4 -0.1
v -0.5 0.4 -0.2
v -0.5 0.4 -0.4
v -0.5 0.4 -0.5
v -0.5 0.4 -0.6
v -0.5 0.5 0.2
v -0.5 0.5 0.1
v -0.5 0.5 -0.1
v -0.5 0.5 -0.2
v -0.5 0.5 -0.4
v -0.4 0.5 0
v -0.4 0.5 -0.1
v -0.4 0.5 -0.2
v -0.4 0.6 0
v -0.4 0.6 -0.2
v -0.3 0.5 -0.2
v -0.3 0.5 -0.3
v -0.3 0.6 -0.2
v -0.3 0.6 -0.3
v -0.2 0.4 -0.4
v -0.2 0.4 -0.5
v -0.2 0.5 -0.4
v -0.2 0.5 -0.5
v -0.1 0.5 0.1
v -0.1 0.5 0
v -0.1 0.6 0.1
v -0.1 0.6 0
v 0 0.1 0.8
v 0 0.1 0.7
v 0 0.2 0.8
v 0 0.2 0.7
v 0 0.4 -0.3
v 0 0.4 -0.6
v 0 0.5 -0.3
v 0 0.5 -0.6
v 0.1 0.5 -0.1
v 0.1 0.5 -0.2
v 0.1 0.5 -0.3
v 0.1 0.6 -0.1
v 0.1 0.6 -0.2
v 0.1 0.6 -0.3
v 0.4 0.3 -0.5
v 0.4 0.3 -0.6
v 0.4 0.4 -0.5
v 0.4 0.4 -0.6
v -0.1 0.4 -0.3
v -0.1 0.4 -0.5
v -0.1 0.5 -0.1
v -0.1 0.5 -0.2
v -0.1 0.5 -0.3
v -0.1 0.5 -0.5
v -0.1 0.6 -0.1
v -0.1 0.6 -0.2
v -0.1 0.6 -0.3
v 0.2 0.4 -0.5
v 0.2 0.4 -0.6
v 0.2 0.5 -0.5
v 0.2 0.5 -0.6
v 0.3 0.3 -0.5
v 0.3 0.3 -0.6
v 0.3 0.4 -0.5
v 0.3 0.4 -0.6
v 0.5 0.4 0.2
v 0.5 0.4 -0.2
v 0.5 0.4 -0.3
v 0.5 0.4 -0.5
v 0.5 0.5 0.2
v 0.5 0.5 0.1
v 0.5 0.5 -0.3
v 0.5 0.5 -0.5
v 0.5 0.6 0.1
v 0.5 0.6 -0.2
v 0.5 0.6 -0.3
v 0.6 0.1 0.8
v 0.6 0.1 0.7
v 0.6 0.2 0.8
v 0.6 0.2 0.7
v 0.6 0.3 -0.2
v 0.6 0.3 -0.5
v 0.6 0.3 -0.6
v 0.6 0.4 -0.2
v 0.6 0.4 -0.6
v 0.7 0 0.8
v 0.7 0 0.7
v 0.7 0 0.4
v 0.7 0 0.3
v 0.7 0 -0.1
v 0.7 0 -0.3
v 0.7 0 -0.7
v 0.7 0 -0.8
v 0.7 0.1 0.8
v 0.7 0.1 0.7
v 0.7 0.1 0.4
v 0.7 0.1 0.3
v 0.7 0.1 -0.1
v 0.7 0.1 -0.2
v 0.7 0.1 -0.3
v 0.7 0.1 -0.6
v 0.7 0.1 -0.7
v 0.7 0.1 -0.8
v 0.7 0.2 0.7
v 0.7 0.2 0.6
v 0.7 0.2 -0.5
v 0.7 0.2 -0.6
v 0.7 0.2 -0.7
v 0.7 0.3 0.6
v 0.7 0.3 0.4
v 0.7 0.3 0.2
v 0.7 0.3 0.1
v 0.7 0.3 -0.2
v 0.7 0.3 -0.5
v 0.7 0.3 -0.6
v 0.7 0.4 0.4
v 0.7 0.4 0.3
v 0.7 0.4 0.2
v 0.7 0.4 0.1
v 0.7 0.4 -0.1
v 0.7 0.4 -0.2
v 0.8 0 0.7
v 0.8 0 0.4
v 0.8 0 0.3
v 0.8 0 -0.1
v 0.8 0 -0.3
v 0.8 0 -0.6
v 0.8 0 -0.7
v 0.8 0.1 0.7
v 0.8 0.1 0.4
v 0.8 0.1 0.3
v 0.8 0.1 -0.1
v 0.8 0.1 -0.3
v 0.8 0.1 -0.6
v 0.8 0.1 -0.7
v -0.6 0 0.8
v -0.6 0.1 0.8
v -0.4 0 0.8
v -0.4 0.1 0.8
v 0 0 0.8
v 0 0.1 0.8
v 0 0.2 0.8
v 0.4 0.1 0.8
v 0.4 0.2 0.8
v 0.5 0.1 0.8
v 0.5 0.2 0.8
v 0.6 0.1 0.8
v 0.6 0.2 0.8
v 0.7 0 0.8
v 0.7 0.1 0.8
v -0.8 0 0.7
v -0.8 0.1 0.7
v -0.8 0.2 0.7
v -0.6 0 0.7
v -0.6 0.1 0.7
v -0.4 0.1 0.7
v -0.4 0.2 0.7
v 0 0.1 0.7
v 0 0.2 0.7
v 0.6 0.1 0.7
v 0.6 0.2 0.7
v 0.7 0 0.7
v 0.7 0.1 0.7
v 0.7 0.2 0.7
v 0.8 0 0.7
v 0.8 0.1 0.7
v -0.7 0.2 0.6
v -0.7 0.3 0.6
v -0.4 0.2 0.6
v -0.4 0.3 0.6
v -0.3 0.2 0.6
v -0.3 0.3 0.6
v 0 0.2 0.6
v 0.4 0.2 0.6
v 0.4 0.3 0.6
v 0.5 0.2 0.6
v 0.5 0.3 0.6
v 0.7 0.2 0.6
v 0.7 0.3 0.6
v -0.6 0.3 0.4
v -0.6 0.4 0.4
v -0.4 0.3 0.4
v -0.4 0.4 0.4
v -0.3 0.3 0.4
v -0.2 0.3 0.4
v -0.2 0.4 0.4
v -0.1 0.3 0.4
v -0.1 0.4 0.4
v 0 0.3 0.4
v 0 0.4 0.4
v 0.4 0.3 0.4
v 0.4 0.4 0.4
v 0.5 0.3 0.4
v 0.5 0.4 0.4
v 0.7 0.3 0.4
v 0.7 0.4 0.4
v 0.7 0 0.3
v 0.7 0.1 0.3
v 0.8 0 0.3
v 0.8 0.1 0.3
v -0.5 0.4 0.2
v -0.5 0.5 0.2
v -0.4 0.4 0.2
v -0.4 0.5 0.2
v -0.3 0.4 0.2
v -0.3 0.5 0.2
v -0.2 0.4 0.2
v -0.2 0.5 0.2
v 0 0.4 0.2
v 0 0.5 0.2
v 0.3 0.4 0.2
v 0.3 0.5 0.2
v 0.4 0.4 0.2
v 0.4 0.5 0.2
v 0.5 0.4 0.2
v 0.5 0.5 0.2
v -0.7 0.3 0.1
v -0.7 0.4 0.1
v -0.6 0.3 0.1
v -0.6 0.4 0.1
v -0.1 0.5 0.1
v -0.1 0.6 0.1
v 0 0.5 0.1
v 0.3 0.5 0.1
v 0.4 0.5 0.1
v 0.4 0.6 0.1
v 0.5 0.5 0.1
v 0.5 0.6 0.1
v -0.4 0.5 0
v -0.4 0.6 0
v -0.1 0.5 0
v -0.1 0.6 0
v 0.7 0 -0.3
v 0.7 0.1 -0.3
v 0.8 0 -0.3
v 0.8 0.1 -0.3
v 0.7 0 0.4
v 0.7 0.1 0.4
v 0.8 0 0.4
v 0.8 0.1 0.4
v -0.1 0.5 -0.1
v -0.1 0.6 -0.1
v 0 0.5 -0.1
v 0.1 0.5 -0.1
v 0.1 0.6 -0.1
v 0.7 0 -0.1
v 0.7 0.1 -0.1
v 0.8 0 -0.1
v 0.8 0.1 -0.1
v -0.7 0.3 -0.2
v -0.7 0.4 -0.2
v -0.5 0.3 -0.2
v -0.5 0.4 -0.2
v -0.4 0.5 -0.2
v -0.4 0.6 -0.2
v -0.3 0.5 -0.2
v -0.3 0.6 -0.2
v 0.6 0.3 -0.2
v 0.6 0.4 -0.2
v 0.7 0.3 -0.2
v 0.7 0.4 -0.2
v -0.3 0.5 -0.3
v -0.3 0.6 -0.3
v -0.2 0.5 -0.3
v -0.1 0.4 -0.3
v -0.1 0.5 -0.3
v -0.1 0.6 -0.3
v 0 0.4 -0.3
v 0 0.5 -0.3
v 0.1 0.5 -0.3
v 0.1 0.6 -0.3
v 0.2 0.5 -0.3
v 0.2 0.6 -0.3
v 0.4 0.5 -0.3
v 0.4 0.6 -0.3
v 0.5 0.5 -0.3
v 0.5 0.6 -0.3
v -0.5 0.4 -0.4
v -0.5 0.5 -0.4
v -0.4 0.4 -0.4
v -0.3 0.4 -0.4
v -0.3 0.5 -0.4
v -0.2 0.4 -0.4
v -0.2 0.5 -0.4
v -0.7 0.2 -0.5
v -0.7 0.3 -0.5
v -0.6 0.2 -0.5
v -0.6 0.3 -0.5
v -0.2 0.4 -0.5
v -0.2 0.5 -0.5
v -0.1 0.4 -0.5
v -0.1 0.5 -0.5
v 0.2 0.4 -0.5
v 0.2 0.5 -0.5
v 0.3 0.3 -0.5
v 0.3 0.4 -0.5
v 0.4 0.3 -0.5
v 0.4 0.4 -0.5
v 0.4 0.5 -0.5
v 0.5 0.4 -0.5
v 0.5 0.5 -0.5
v -0.8 0.1 -0.6
v -0.8 0.2 -0.6
v -0.6 0.1 -0.6
v -0.6 0.2 -0.6
v -0.6 0.3 -0.6
v -0.5 0.3 -0.6
v -0.5 0.4 -0.6
v -0.3 0.2 -0.6
v -0.3 0.3 -0.6
v -0.3 0.4 -0.6
v 0 0.4 -0.6
v 0 0.5 -0.6
v 0.1 0.2 -0.6
v 0.2 0.3 -0.6
v 0.2 0.4 -0.6
v 0.2 0.5 -0.6
v 0.3 0.3 -0.6
v 0.3 0.4 -0.6
v 0.4 0.2 -0.6
v 0.4 0.3 -0.6
v 0.4 0.4 -0.6
v 0.6 0.2 -0.6
v 0.6 0.3 -0.6
v 0.6 0.4 -0.6
v 0.7 0.2 -0.6
v 0.7 0.3 -0.6
v -0.8 0 -0.7
v -0.8 0.1 -0.7
v -0.6 0 -0.7
v -0.6 0.1 -0.7
v -0.6 0.2 -0.7
v -0.3 0.1 -0.7
v -0.3 0.2 -0.7
v 0.1 0.1 -0.7
v 0.1 0.2 -0.7
v 0.4 0.1 -0.7
v 0.4 0.2 -0.7
v 0.5 0.1 -0.7
v 0.7 0 -0.7
v 0.7 0.1 -0.7
v 0.7 0.2 -0.7
v 0.8 0 -0.7
v 0.8 0.1 -0.7
v -0.6 0 -0.8
v -0.6 0.1 -0.8
v -0.3 0 -0.8
v -0.3 0.1 -0.8
v 0.1 0 -0.8
v 0.1 0.1 -0.8
v 0.4 0 -0.8
v 0.4 0.1 -0.8
v 0.5 0 -0.8
v 0.5 0.1 -0.8
v 0.7 0 -0.8
v 0.7 0.1 -0.8
v -0.6 0 0.8
v -0.4 0 0.8
v 0 0 0.8
v 0.7 0 0.8
v -0.8 0 0.7
v -0.6 0 0.7
v 0.7 0 0.7
v 0.8 0 0.7
v 0.7 0 0.4
v 0.8 0 0.4
v -0.4 0 0.3
v 0 0 0.3
v 0.7 0 0.3
v 0.8 0 0.3
v -0.8 0 -0.1
v -0.6 0 -0.1
v 0.7 0 -0.1
v 0.8 0 -0.1
v 0.4 0 -0.2
v 0.5 0 -0.2
v 0.7 0 -0.3
v 0.8 0 -0.3
v -0.8 0 -0.6
v -0.6 0 -0.6
v -0.3 0 -0.6
v 0.1 0 -0.6
v 0.7 0 -0.6
v 0.8 0 -0.6
v -0.8 0 -0.7
v -0.6 0 -0.7
v 0.7 0 -0.7
v 0.8 0 -0.7
v -0.6 0 -0.8
v -0.3 0 -0.8
v 0.1 0 -0.8
v 0.4 0 -0.8
v 0.5 0 -0.8
v 0.7 0 -0.8
v -0.6 0.1 0.8
v -0.4 0.1 0.8
v 0 0.1 0.8
v 0.6 0.1 0.8
v 0.7 0.1 0.8
v -0.6 0.1 0.7
v -0.4 0.1 0.7
v 0 0.1 0.7
v 0.6 0.1 0.7
v 0.7 0.1 0.7
v 0.8 0.1 0.7
v 0.7 0.1 0.4
v 0.8 0.1 0.4
v 0.7 0.1 0.3
v 0.8 0.1 0.3
v 0.7 0.1 -0.1
v 0.8 0.1 -0.1
v 0.7 0.1 -0.3
v 0.8 0.1 -0.3
v -0.8 0.1 -0.6
v -0.6 0.1 -0.6
v 0.7 0.1 -0.6
v 0.8 0.1 -0.6
v -0.8 0.1 -0.7
v -0.6 0.1 -0.7
v -0.3 0.1 -0.7
v 0.1 0.1 -0.7
v 0.4 0.1 -0.7
v 0.5 0.1 -0.7
v 0.7 0.1 -0.7
v 0.8 0.1 -0.7
v -0.6 0.1 -0.8
v -0.3 0.1 -0.8
v 0.1 0.1 -0.8
v 0.4 0.1 -0.8
v 0.5 0.1 -0.8
v 0.7 0.1 -0.8
v 0 0.2 0.8
v 0.4 0.2 0.8
v 0.5 0.2 0.8
v 0.6 0.2 0.8
v -0.8 0.2 0.7
v -0.4 0.2 0.7
v 0 0.2 0.7
v 0.4 0.2 0.7
v 0.5 0.2 0.7
v 0.6 0.2 0.7
v 0.7 0.2 0.7
v -0.7 0.2 0.6
v -0.4 0.2 0.6
v -0.3 0.2 0.6
v 0 0.2 0.6
v 0.4 0.2 0.6
v 0.5 0.2 0.6
v 0.7 0.2 0.6
v -0.8 0.2 0.1
v -0.7 0.2 0.1
v -0.8 0.2 -0.1
v -0.7 0.2 -0.1
v -0.7 0.2 -0.5
v -0.6 0.2 -0.5
v -0.8 0.2 -0.6
v -0.6 0.2 -0.6
v -0.3 0.2 -0.6
v 0.1 0.2 -0.6
v 0.4 0.2 -0.6
v 0.6 0.2 -0.6
v 0.7 0.2 -0.6
v -0.6 0.2 -0.7
v -0.3 0.2 -0.7
v 0.1 0.2 -0.7
v 0.4 0.2 -0.7
v 0.7 0.2 -0.7
v -0.7 0.3 0.6
v -0.4 0.3 0.6
v -0.3 0.3 0.6
v 0.4 0.3 0.6
v 0.5 0.3 0.6
v 0.7 0.3 0.6
v -0.6 0.3 0.4
v -0.4 0.3 0.4
v -0.3 0.3 0.4
v -0.2 0.3 0.4
v -0.1 0.3 0.4
v 0 0.3 0.4
v 0.4 0.3 0.4
v 0.5 0.3 0.4
v 0.7 0.3 0.4
v -0.7 0.3 0.1
v -0.6 0.3 0.1
v -0.7 0.3 -0.2
v -0.5 0.3 -0.2
v 0.6 0.3 -0.2
v 0.7 0.3 -0.2
v -0.5 0.3 -0.4
v -0.7 0.3 -0.5
v -0.6 0.3 -0.5
v -0.5 0.3 -0.5
v 0.3 0.3 -0.5
v 0.4 0.3 -0.5
v 0.6 0.3 -0.5
v 0.7 0.3 -0.5
v -0.6 0.3 -0.6
v -0.5 0.3 -0.6
v 0.3 0.3 -0.6
v 0.4 0.3 -0.6
v 0.6 0.3 -0.6
v 0.7 0.3 -0.6
v -0.6 0.4 0.4
v -0.4 0.4 0.4
v -0.2 0.4 0.4
v -0.1 0.4 0.4
v 0 0.4 0.4
v 0.4 0.4 0.4
v 0.5 0.4 0.4
v 0.7 0.4 0.4
v -0.2 0.4 0.3
v -0.1 0.4 0.3
v 0 0.4 0.3
v 0.3 0.4 0.3
v 0.6 0.4 0.3
v 0.7 0.4 0.3
v -0.5 0.4 0.2
v -0.4 0.4 0.2
v -0.3 0.4 0.2
v -0.2 0.4 0.2
v 0 0.4 0.2
v 0.3 0.4 0.2
v 0.4 0.4 0.2
v 0.5 0.4 0.2
v 0.6 0.4 0.2
v 0.7 0.4 0.2
v -0.7 0.4 0.1
v -0.6 0.4 0.1
v -0.5 0.4 0.1
v 0.6 0.4 0.1
v 0.7 0.4 0.1
v -0.5 0.4 -0.1
v 0.6 0.4 -0.1
v 0.7 0.4 -0.1
v -0.7 0.4 -0.2
v -0.5 0.4 -0.2
v 0.5 0.4 -0.2
v 0.6 0.4 -0.2
v 0.7 0.4 -0.2
v -0.1 0.4 -0.3
v 0 0.4 -0.3
v 0.5 0.4 -0.3
v -0.5 0.4 -0.4
v -0.4 0.4 -0.4
v -0.3 0.4 -0.4
v -0.2 0.4 -0.4
v -0.5 0.4 -0.5
v -0.4 0.4 -0.5
v -0.2 0.4 -0.5
v -0.1 0.4 -0.5
v 0.2 0.4 -0.5
v 0.3 0.4 -0.5
v 0.4 0.4 -0.5
v 0.5 0.4 -0.5
v -0.5 0.4 -0.6
v -0.3 0.4 -0.6
v 0 0.4 -0.6
v 0.2 0.4 -0.6
v 0.3 0.4 -0.6
v 0.4 0.4 -0.6
v 0.6 0.4 -0.6
v -0.5 0.5 0.2
v -0.4 0.5 0.2
v -0.3 0.5 0.2
v -0.2 0.5 0.2
v 0 0.5 0.2
v 0.3 0.5 0.2
v 0.4 0.5 0.2
v 0.5 0.5 0.2
v -0.5 0.5 0.1
v -0.4 0.5 0.1
v -0.3 0.5 0.1
v -0.2 0.5 0.1
v -0.1 0.5 0.1
v 0 0.5 0.1
v 0.3 0.5 0.1
v 0.4 0.5 0.1
v 0.5 0.5 0.1
v -0.4 0.5 0
v -0.1 0.5 0
v -0.5 0.5 -0.1
v -0.4 0.5 -0.1
v -0.1 0.5 -0.1
v 0 0.5 -0.1
v 0.1 0.5 -0.1
v -0.5 0.5 -0.2
v -0.4 0.5 -0.2
v -0.3 0.5 -0.2
v -0.1 0.5 -0.2
v 0 0.5 -0.2
v 0.1 0.5 -0.2
v -0.3 0.5 -0.3
v -0.2 0.5 -0.3
v -0.1 0.5 -0.3
v 0 0.5 -0.3
v 0.1 0.5 -0.3
v 0.2 0.5 -0.3
v 0.4 0.5 -0.3
v 0.5 0.5 -0.3
v -0.5 0.5 -0.4
v -0.3 0.5 -0.4
v -0.2 0.5 -0.4
v -0.2 0.5 -0.5
v -0.1 0.5 -0.5
v 0.2 0.5 -0.5
v 0.4 0.5 -0.5
v 0.5 0.5 -0.5
v 0 0.5 -0.6
v 0.2 0.5 -0.6
v -0.1 0.6 0.1
v 0.4 0.6 0.1
v 0.5 0.6 0.1
v -0.4 0.6 0
v -0.1 0.6 0
v -0.1 0.6 -0.1
v 0.1 0.6 -0.1
v -0.4 0.6 -0.2
v -0.3 0.6 -0.2
v -0.1 0.6 -0.2
v 0.1 0.6 -0.2
v 0.2 0.6 -0.2
v 0.4 0.6 -0.2
v 0.5 0.6 -0.2
v -0.3 0.6 -0.3
v -0.1 0.6 -0.3
v 0.1 0.6 -0.3
v 0.2 0.6 -0.3
v 0.4 0.6 -0.3
v 0.5 0.6 -0.3

# faces
f 5/3/1 2/3/1 1/3/1
f 6/3/1 2/3/1 5/3/1
f 7/3/1 4/3/1 3/3/1
f 7/2/1 3/2/1 2/2/1
f 8/3/1 4/3/1 7/3/1
f 9/4/1 6/4/1 5/4/1
f 10/3/1 2/3/1 6/3/1
f 10/4/1 6/4/1 9/4/1
f 11/2/1 7/2/1 2/2/1
f 11/3/1 2/3/1 10/3/1
f 12/2/1 7/2/1 11/2/1
f 17/4/1 14/4/1 13/4/1
f 18/3/1 16/3/1 15/3/1
f 18/4/1 14/4/1 17/4/1
f 18/3/1 15/3/1 14/3/1
f 19/3/1 16/3/1 18/3/1
f 20/3/1 16/3/1 19/3/1
f 21/3/1 19/3/1 18/3/1
f 22/3/1 19/3/1 21/3/1
f 27/3/1 24/3/1 23/3/1
f 28/3/1 24/3/1 27/3/1
f 30/3/1 26/3/1 25/3/1
f 31/3/1 26/3/1 30/3/1
f 33/3/1 30/3/1 29/3/1
f 34/3/1 30/3/1 33/3/1
f 37/3/1 33/3/1 32/3/1
f 38/3/1 33/3/1 37/3/1
f 39/4/1 36/4/1 35/4/1
f 40/4/1 36/4/1 39/4/1
f 48/3/1 42/3/1 41/3/1
f 49/4/1 43/4/1 42/4/1
f 49/3/1 42/3/1 48/3/1
f 50/3/1 44/3/1 43/3/1
f 50/4/1 43/4/1 49/4/1
f 51/3/1 44/3/1 50/3/1
f 52/4/1 46/4/1 45/4/1
f 53/3/1 47/3/1 46/3/1
f 53/4/1 46/4/1 52/4/1
f 54/4/1 48/4/1 47/4/1
f 54/3/1 47/3/1 53/3/1
f 55/3/1 49/3/1 48/3/1
f 55/4/1 48/4/1 54/4/1
f 56/3/1 49/3/1 55/3/1
f 60/3/1 58/3/1 57/3/1
f 60/3/1 59/3/1 58/3/1
f 61/3/1 59/3/1 60/3/1
f 64/2/1 63/2/1 62/2/1
f 65/2/1 63/2/1 64/2/1
f 68/2/1 67/2/1 66/2/1
f 69/2/1 67/2/1 68/2/1
f 72/4/1 71/4/1 70/4/1
f 73/4/1 71/4/1 72/4/1
f 76/3/1 75/3/1 74/3/1
f 77/3/1 75/3/1 76/3/1
f 80/2/1 79/2/1 78/2/1
f 81/2/1 79/2/1 80/2/1
f 85/4/1 83/4/1 82/4/1
f 86/2/1 84/2/1 83/2/1
f 86/4/1 83/4/1 85/4/1
f 87/2/1 84/2/1 86/2/1
f 90/2/1 89/2/1 88/2/1
f 91/2/1 89/2/1 90/2/1
f 92/2/2 93/2/2 96/2/2
f 96/2/2 93/2/2 97/2/2
f 94/3/2 95/3/2 98/3/2
f 95/2/2 96/2/2 99/2/2
f 98/3/2 95/3/2 99/3/2
f 99/2/2 96/2/2 100/2/2
f 101/2/2 102/2/2 103/2/2
f 103/2/2 102/2/2 104/2/2
f 105/3/2 106/3/2 107/3/2
f 107/3/2 106/3/2 108/3/2
f 109/2/2 110/2/2 113/2/2
f 113/2/2 110/2/2 114/2/2
f 111/2/2 112/2/2 115/2/2
f 110/4/2 111/4/2 115/4/2
f 115/2/2 112/2/2 116/2/2
f 114/2/2 110/2/2 117/2/2
f 110/4/2 115/4/2 118/4/2
f 117/2/2 110/2/2 118/2/2
f 118/4/2 115/4/2 119/4/2
f 120/3/2 121/3/2 122/3/2
f 122/3/2 121/3/2 123/3/2
f 124/2/2 125/2/2 127/2/2
f 125/2/2 126/2/2 127/2/2
f 127/2/2 126/2/2 128/2/2
f 129/3/2 130/3/2 137/3/2
f 137/3/2 130/3/2 138/3/2
f 131/3/2 132/3/2 139/3/2
f 139/3/2 132/3/2 140/3/2
f 133/3/2 134/3/2 141/3/2
f 141/3/2 134/3/2 142/3/2
f 142/3/2 134/3/2 143/3/2
f 135/3/2 136/3/2 145/3/2
f 145/3/2 136/3/2 146/3/2
f 139/3/2 140/3/2 147/3/2
f 138/3/2 139/3/2 147/3/2
f 147/3/2 140/3/2 148/3/2
f 143/2/2 144/2/2 149/2/2
f 144/2/2 145/2/2 149/2/2
f 142/2/2 143/2/2 149/2/2
f 149/2/2 145/2/2 150/2/2
f 150/2/2 145/2/2 151/2/2
f 148/3/2 140/3/2 152/3/2
f 152/3/2 140/3/2 153/3/2
f 140/2/2 141/2/2 154/2/2
f 154/2/2 141/2/2 155/2/2
f 141/3/2 142/3/2 156/3/2
f 142/2/2 149/2/2 156/2/2
f 149/4/2 150/4/2 157/4/2
f 156/2/2 149/2/2 157/2/2
f 157/4/2 150/4/2 158/4/2
f 153/3/2 140/3/2 159/3/2
f 140/2/2 154/2/2 160/2/2
f 159/3/2 140/3/2 160/3/2
f 154/4/2 155/4/2 161/4/2
f 160/2/2 154/2/2 161/2/2
f 155/2/2 141/2/2 162/2/2
f 161/4/2 155/4/2 162/4/2
f 141/3/2 156/3/2 163/3/2
f 162/2/2 141/2/2 163/2/2
f 163/3/2 156/3/2 164/3/2
f 165/3/2 166/3/2 172/3/2
f 172/3/2 166/3/2 173/3/2
f 167/3/2 168/3/2 174/3/2
f 174/3/2 168/3/2 175/3/2
f 169/2/2 170/2/2 176/2/2
f 170/3/2 171/3/2 177/3/2
f 176/2/2 170/2/2 177/2/2
f 177/3/2 171/3/2 178/3/2
f 181/3/3 180/3/3 179/3/3
f 182/3/3 180/3/3 181/3/3
f 183/2/3 182/2/3 181/2/3
f 184/2/3 182/2/3 183/2/3
f 186/3/3 184/3/3 183/3/3
f 186/3/3 185/3/3 184/3/3
f 187/3/3 185/3/3 186/3/3
f 188/3/3 186/3/3 183/3/3
f 188/4/3 187/4/3 186/4/3
f 189/4/3 187/4/3 188/4/3
f 190/3/3 188/3/3 183/3/3
f 190/3/3 189/3/3 188/3/3
f 191/3/3 189/3/3 190/3/3
f 192/3/3 190/3/3 183/3/3
f 193/3/3 190/3/3 192/3/3
f 197/3/3 195/3/3 194/3/3
f 198/4/3 196/4/3 195/4/3
f 198/3/3 195/3/3 197/3/3
f 199/4/3 196/4/3 198/4/3
f 200/4/3 196/4/3 199/4/3
f 201/2/3 200/2/3 199/2/3
f 202/2/3 200/2/3 201/2/3
f 206/3/3 204/3/3 203/3/3
f 207/3/3 204/3/3 206/3/3
f 208/3/3 206/3/3 205/3/3
f 209/3/3 206/3/3 208/3/3
f 212/4/3 211/4/3 210/4/3
f 213/4/3 211/4/3 212/4/3
f 214/2/3 213/2/3 212/2/3
f 215/2/3 213/2/3 214/2/3
f 216/4/3 215/4/3 214/4/3
f 217/4/3 215/4/3 216/4/3
f 218/4/3 215/4/3 217/4/3
f 219/2/3 218/2/3 217/2/3
f 220/2/3 218/2/3 219/2/3
f 221/3/3 220/3/3 219/3/3
f 222/3/3 220/3/3 221/3/3
f 225/4/3 224/4/3 223/4/3
f 226/4/3 224/4/3 225/4/3
f 227/2/3 226/2/3 225/2/3
f 228/2/3 226/2/3 227/2/3
f 229/2/3 226/2/3 228/2/3
f 230/4/3 229/4/3 228/4/3
f 231/4/3 229/4/3 230/4/3
f 232/2/3 231/2/3 230/2/3
f 233/2/3 231/2/3 232/2/3
f 234/3/3 233/3/3 232/3/3
f 235/3/3 233/3/3 234/3/3
f 236/2/3 235/2/3 234/2/3
f 237/2/3 235/2/3 236/2/3
f 238/3/3 237/3/3 236/3/3
f 239/3/3 237/3/3 238/3/3
f 242/3/3 241/3/3 240/3/3
f 243/3/3 241/3/3 242/3/3
f 246/4/3 245/4/3 244/4/3
f 247/4/3 245/4/3 246/4/3
f 248/2/3 247/2/3 246/2/3
f 249/2/3 247/2/3 248/2/3
f 250/4/3 249/4/3 248/4/3
f 251/4/3 249/4/3 250/4/3
f 252/2/3 251/2/3 250/2/3
f 253/2/3 251/2/3 252/2/3
f 254/4/3 253/4/3 252/4/3
f 255/4/3 253/4/3 254/4/3
f 256/3/3 255/3/3 254/3/3
f 257/3/3 255/3/3 256/3/3
f 258/2/3 257/2/3 256/2/3
f 259/2/3 257/2/3 258/2/3
f 262/3/3 261/3/3 260/3/3
f 263/3/3 261/3/3 262/3/3
f 266/4/3 265/4/3 264/4/3
f 267/4/3 265/4/3 266/4/3
f 268/4/3 265/4/3 267/4/3
f 269/4/3 265/4/3 268/4/3
f 270/2/3 269/2/3 268/2/3
f 271/2/3 269/2/3 270/2/3
f 274/3/3 273/3/3 272/3/3
f 275/3/3 273/3/3 274/3/3
f 278/2/3 277/2/3 276/2/3
f 279/2/3 277/2/3 278/2/3
f 280/3/4 281/3/4 282/3/4
f 282/3/4 281/3/4 283/3/4
f 284/4/4 285/4/4 286/4/4
f 286/4/4 285/4/4 287/4/4
f 287/4/4 285/4/4 288/4/4
f 289/3/4 290/3/4 291/3/4
f 291/3/4 290/3/4 292/3/4
f 293/3/4 294/3/4 295/3/4
f 295/3/4 294/3/4 296/3/4
f 297/3/4 298/3/4 299/3/4
f 299/3/4 298/3/4 300/3/4
f 301/3/4 302/3/4 303/3/4
f 303/3/4 302/3/4 304/3/4
f 305/2/4 306/2/4 307/2/4
f 307/2/4 306/2/4 309/2/4
f 309/2/4 306/2/4 310/2/4
f 308/2/4 309/2/4 311/2/4
f 311/2/4 309/2/4 312/2/4
f 313/2/4 314/2/4 315/2/4
f 315/2/4 314/2/4 316/2/4
f 315/3/4 316/3/4 317/3/4
f 317/3/4 316/3/4 318/3/4
f 317/4/4 318/4/4 319/4/4
f 319/4/4 318/4/4 320/4/4
f 321/3/4 322/3/4 323/3/4
f 323/3/4 322/3/4 324/3/4
f 324/3/4 322/3/4 325/3/4
f 324/4/4 325/4/4 326/4/4
f 326/4/4 325/4/4 327/4/4
f 328/3/4 329/3/4 330/3/4
f 330/3/4 329/3/4 331/3/4
f 332/2/4 333/2/4 334/2/4
f 334/2/4 333/2/4 335/2/4
f 336/3/4 337/3/4 339/3/4
f 338/3/4 339/3/4 340/3/4
f 339/3/4 337/3/4 341/3/4
f 340/3/4 339/3/4 341/3/4
f 341/3/4 337/3/4 342/3/4
f 341/2/4 342/2/4 343/2/4
f 343/2/4 342/2/4 344/2/4
f 345/2/4 346/2/4 347/2/4
f 347/2/4 346/2/4 348/2/4
f 348/3/4 349/3/4 350/3/4
f 348/3/4 350/3/4 352/3/4
f 350/3/4 351/3/4 352/3/4
f 352/3/4 351/3/4 353/3/4
f 353/3/4 351/3/4 354/3/4
f 353/2/4 354/2/4 355/2/4
f 352/3/4 353/3/4 357/3/4
f 355/2/4 356/2/4 358/2/4
f 357/3/4 353/3/4 358/3/4
f 353/2/4 355/2/4 358/2/4
f 358/2/4 356/2/4 359/2/4
f 359/2/4 356/2/4 360/2/4
f 357/3/4 358/3/4 361/3/4
f 358/3/4 359/3/4 361/3/4
f 361/3/4 359/3/4 362/3/4
f 357/3/4 361/3/4 363/3/4
f 363/3/4 361/3/4 364/3/4
f 363/2/4 364/2/4 366/2/4
f 364/2/4 365/2/4 366/2/4
f 366/2/4 365/2/4 367/2/4
f 367/2/4 365/2/4 368/2/4
f 366/4/4 367/4/4 369/4/4
f 369/4/4 367/4/4 370/4/4
f 371/3/4 372/3/4 373/3/4
f 373/3/4 372/3/4 374/3/4
f 374/3/4 375/3/4 376/3/4
f 376/3/4 375/3/4 377/3/4
f 376/4/4 377/4/4 378/4/4
f 378/4/4 377/4/4 379/4/4
f 378/3/4 379/3/4 380/3/4
f 380/3/4 379/3/4 381/3/4
f 380/2/4 381/2/4 382/2/4
f 382/2/4 381/2/4 384/2/4
f 384/2/4 381/2/4 385/2/4
f 383/3/4 384/3/4 386/3/4
f 386/3/4 384/3/4 387/3/4
f 388/3/4 389/3/4 390/3/4
f 390/3/4 389/3/4 391/3/4
f 390/4/4 391/4/4 392/4/4
f 392/4/4 391/4/4 393/4/4
f 392/3/4 393/3/4 394/3/4
f 394/3/4 393/3/4 395/3/4
f 394/2/4 395/2/4 396/2/4
f 396/2/4 395/2/4 397/2/4
f 396/3/4 397/3/4 398/3/4
f 398/3/4 397/3/4 399/3/4
f 405/3/5 401/3/5 400/3/5
f 406/3/5 403/3/5 402/3/5
f 408/3/5 406/3/5 402/3/5
f 408/3/5 407/3/5 406/3/5
f 409/3/5 407/3/5 408/3/5
f 410/3/5 405/3/5 404/3/5
f 410/2/5 402/2/5 401/2/5
f 410/3/5 401/3/5 405/3/5
f 411/3/5 408/3/5 402/3/5
f 411/2/5 402/2/5 410/2/5
f 412/3/5 408/3/5 411/3/5
f 414/3/5 410/3/5 404/3/5
f 414/3/5 413/3/5 412/3/5
f 414/3/5 412/3/5 411/3/5
f 414/3/5 411/3/5 410/3/5
f 415/3/5 413/3/5 414/3/5
f 416/3/5 413/3/5 415/3/5
f 417/3/5 413/3/5 416/3/5
f 418/3/5 416/3/5 415/3/5
f 419/3/5 416/3/5 418/3/5
f 420/3/5 416/3/5 419/3/5
f 422/2/5 415/2/5 414/2/5
f 423/3/5 418/3/5 415/3/5
f 423/2/5 415/2/5 422/2/5
f 424/3/5 418/3/5 423/3/5
f 425/3/5 418/3/5 424/3/5
f 426/2/5 421/2/5 420/2/5
f 426/3/5 420/3/5 419/3/5
f 427/2/5 421/2/5 426/2/5
f 428/3/5 423/3/5 422/3/5
f 428/3/5 424/3/5 423/3/5
f 429/3/5 424/3/5 428/3/5
f 430/3/5 427/3/5 426/3/5
f 430/3/5 426/3/5 419/3/5
f 431/3/5 427/3/5 430/3/5
f 432/3/5 424/3/5 429/3/5
f 433/4/5 425/4/5 424/4/5
f 433/3/5 424/3/5 432/3/5
f 434/3/5 418/3/5 425/3/5
f 434/4/5 425/4/5 433/4/5
f 435/2/5 419/2/5 418/2/5
f 435/3/5 418/3/5 434/3/5
f 436/3/5 430/3/5 419/3/5
f 436/2/5 419/2/5 435/2/5
f 437/3/5 430/3/5 436/3/5
f 438/3/6 439/3/6 443/3/6
f 439/2/6 440/2/6 444/2/6
f 443/3/6 439/3/6 444/3/6
f 444/2/6 440/2/6 445/2/6
f 441/3/6 442/3/6 446/3/6
f 446/3/6 442/3/6 447/3/6
f 447/3/6 448/3/6 449/3/6
f 449/3/6 448/3/6 450/3/6
f 451/3/6 452/3/6 453/3/6
f 453/3/6 452/3/6 454/3/6
f 455/2/6 456/2/6 459/2/6
f 459/2/6 456/2/6 460/2/6
f 457/3/6 458/3/6 461/3/6
f 461/3/6 458/3/6 462/3/6
f 459/3/6 460/3/6 467/3/6
f 467/3/6 460/3/6 468/3/6
f 462/3/6 463/3/6 469/3/6
f 463/4/6 464/4/6 470/4/6
f 469/3/6 463/3/6 470/3/6
f 464/3/6 465/3/6 471/3/6
f 470/4/6 464/4/6 471/4/6
f 465/2/6 466/2/6 472/2/6
f 471/3/6 465/3/6 472/3/6
f 466/3/6 467/3/6 473/3/6
f 472/2/6 466/2/6 473/2/6
f 473/3/6 467/3/6 474/3/6
f 475/3/6 476/3/6 481/3/6
f 476/4/6 477/4/6 482/4/6
f 481/3/6 476/3/6 482/3/6
f 477/3/6 478/3/6 483/3/6
f 482/4/6 477/4/6 483/4/6
f 483/3/6 478/3/6 484/3/6
f 479/4/6 480/4/6 486/4/6
f 480/2/6 481/2/6 487/2/6
f 486/4/6 480/4/6 487/4/6
f 487/2/6 481/2/6 488/2/6
f 484/3/6 485/3/6 489/3/6
f 488/2/6 481/2/6 489/2/6
f 481/3/6 482/3/6 489/3/6
f 482/3/6 483/3/6 489/3/6
f 483/3/6 484/3/6 489/3/6
f 489/3/6 485/3/6 490/3/6
f 490/3/6 485/3/6 491/3/6
f 491/3/6 485/3/6 492/3/6
f 479/4/6 486/4/6 493/4/6
f 493/4/6 486/4/6 494/4/6
f 493/3/6 494/3/6 495/3/6
f 495/3/6 494/3/6 496/3/6
f 495/2/6 496/2/6 497/2/6
f 495/2/6 497/2/6 499/2/6
f 497/2/6 498/2/6 499/2/6
f 499/2/6 498/2/6 500/2/6
f 500/3/6 501/3/6 506/3/6
f 501/4/6 502/4/6 507/4/6
f 506/3/6 501/3/6 507/3/6
f 502/3/6 503/3/6 508/3/6
f 507/4/6 502/4/6 508/4/6
f 504/2/6 505/2/6 509/2/6
f 508/3/6 503/3/6 509/3/6
f 503/2/6 504/2/6 509/2/6
f 509/2/6 505/2/6 510/2/6
f 511/4/6 512/4/6 517/4/6
f 512/2/6 513/2/6 518/2/6
f 517/4/6 512/4/6 518/4/6
f 513/4/6 514/4/6 519/4/6
f 518/2/6 513/2/6 519/2/6
f 519/4/6 514/4/6 520/4/6
f 520/4/6 514/4/6 521/4/6
f 521/4/6 514/4/6 522/4/6
f 514/2/6 515/2/6 523/2/6
f 522/4/6 514/4/6 523/4/6
f 515/3/6 516/3/6 524/3/6
f 523/2/6 515/2/6 524/2/6
f 524/3/6 516/3/6 525/3/6
f 511/4/6 517/4/6 526/4/6
f 526/4/6 517/4/6 527/4/6
f 528/3/6 529/3/6 532/3/6
f 528/3/6 532/3/6 533/3/6
f 533/3/6 532/3/6 534/3/6
f 534/3/6 532/3/6 535/3/6
f 530/2/6 531/2/6 538/2/6
f 538/2/6 531/2/6 539/2/6
f 534/3/6 535/3/6 540/3/6
f 540/3/6 535/3/6 541/3/6
f 536/3/6 537/3/6 542/3/6
f 542/3/6 537/3/6 543/3/6
f 538/4/6 539/4/6 544/4/6
f 544/4/6 539/4/6 545/4/6
f 547/2/6 548/2/6 554/2/6
f 548/4/6 549/4/6 554/4/6
f 549/2/6 550/2/6 555/2/6
f 554/4/6 549/4/6 555/4/6
f 550/3/6 551/3/6 556/3/6
f 555/2/6 550/2/6 556/2/6
f 556/3/6 551/3/6 557/3/6
f 552/3/6 553/3/6 558/3/6
f 558/3/6 553/3/6 559/3/6
f 546/4/6 547/4/6 560/4/6
f 547/2/6 554/2/6 561/2/6
f 560/4/6 547/4/6 561/4/6
f 554/2/6 555/2/6 561/2/6
f 555/2/6 556/2/6 561/2/6
f 561/2/6 556/2/6 562/2/6
f 562/2/6 556/2/6 563/2/6
f 556/4/6 557/4/6 564/4/6
f 563/2/6 556/2/6 564/2/6
f 557/3/6 551/3/6 565/3/6
f 564/4/6 557/4/6 565/4/6
f 551/2/6 552/2/6 566/2/6
f 565/3/6 551/3/6 566/3/6
f 552/3/6 558/3/6 567/3/6
f 566/2/6 552/2/6 567/2/6
f 558/2/6 559/2/6 568/2/6
f 567/3/6 558/3/6 568/3/6
f 568/2/6 559/2/6 569/2/6
f 546/4/6 560/4/6 571/4/6
f 571/4/6 560/4/6 572/4/6
f 568/4/6 569/4/6 573/4/6
f 567/3/6 568/3/6 573/3/6
f 573/4/6 569/4/6 574/4/6
f 571/3/6 572/3/6 575/3/6
f 570/3/6 571/3/6 575/3/6
f 573/2/6 574/2/6 576/2/6
f 567/3/6 573/3/6 576/3/6
f 576/2/6 574/2/6 577/2/6
f 570/3/6 575/3/6 578/3/6
f 578/3/6 575/3/6 579/3/6
f 567/3/6 576/3/6 580/3/6
f 576/3/6 577/3/6 580/3/6
f 580/3/6 577/3/6 581/3/6
f 581/3/6 577/3/6 582/3/6
f 580/2/6 581/2/6 585/2/6
f 586/4/6 587/4/6 590/4/6
f 587/3/6 588/3/6 591/3/6
f 590/4/6 587/4/6 591/4/6
f 588/2/6 589/2/6 592/2/6
f 583/2/6 584/2/6 593/2/6
f 585/2/6 581/2/6 597/2/6
f 590/3/6 591/3/6 598/3/6
f 588/2/6 592/2/6 599/2/6
f 598/3/6 591/3/6 599/3/6
f 591/3/6 588/3/6 599/3/6
f 592/2/6 593/2/6 599/2/6
f 593/2/6 584/2/6 600/2/6
f 599/2/6 593/2/6 600/2/6
f 594/3/6 595/3/6 601/3/6
f 601/3/6 595/3/6 602/3/6
f 596/2/6 597/2/6 603/2/6
f 597/2/6 581/2/6 604/2/6
f 603/2/6 597/2/6 604/2/6
f 605/4/6 606/4/6 613/4/6
f 606/2/6 607/2/6 614/2/6
f 613/4/6 606/4/6 614/4/6
f 607/4/6 608/4/6 615/4/6
f 614/2/6 607/2/6 615/2/6
f 608/2/6 609/2/6 616/2/6
f 615/4/6 608/4/6 616/4/6
f 616/2/6 609/2/6 617/2/6
f 609/4/6 610/4/6 618/4/6
f 617/2/6 609/2/6 618/2/6
f 610/3/6 611/3/6 619/3/6
f 618/4/6 610/4/6 619/4/6
f 611/2/6 612/2/6 620/2/6
f 619/3/6 611/3/6 620/3/6
f 620/2/6 612/2/6 621/2/6
f 613/3/6 614/3/6 622/3/6
f 615/3/6 616/3/6 622/3/6
f 616/3/6 617/3/6 622/3/6
f 614/3/6 615/3/6 622/3/6
f 622/3/6 617/3/6 623/3/6
f 613/3/6 622/3/6 624/3/6
f 624/3/6 622/3/6 625/3/6
f 624/4/6 625/4/6 629/4/6
f 629/4/6 625/4/6 630/4/6
f 626/3/6 627/3/6 632/3/6
f 627/1/6 628/1/6 633/1/6
f 632/3/6 627/3/6 633/3/6
f 633/1/6 628/1/6 634/1/6
f 630/3/6 631/3/6 635/3/6
f 629/3/6 630/3/6 635/3/6
f 633/2/6 634/2/6 637/2/6
f 632/2/6 633/2/6 637/2/6
f 637/2/6 634/2/6 638/2/6
f 638/2/6 634/2/6 639/2/6
f 629/3/6 635/3/6 643/3/6
f 635/4/6 636/4/6 644/4/6
f 643/3/6 635/3/6 644/3/6
f 636/2/6 637/2/6 645/2/6
f 644/4/6 636/4/6 645/4/6
f 645/2/6 637/2/6 646/2/6
f 646/2/6 637/2/6 647/2/6
f 638/2/6 639/2/6 648/2/6
f 639/2/6 640/2/6 648/2/6
f 640/3/6 641/3/6 648/3/6
f 641/2/6 642/2/6 649/2/6
f 648/3/6 641/3/6 649/3/6
f 649/2/6 642/2/6 650/2/6
f 638/2/6 648/2/6 651/2/6
f 651/2/6 648/2/6 652/2/6
f 653/4/6 654/4/6 657/4/6
f 657/4/6 654/4/6 658/4/6
f 656/3/6 657/3/6 658/3/6
f 658/4/6 654/4/6 659/4/6
f 656/3/6 658/3/6 660/3/6
f 660/3/6 658/3/6 661/3/6
f 661/3/6 658/3/6 662/3/6
f 659/4/6 654/4/6 663/4/6
f 663/4/6 654/4/6 664/4/6
f 654/2/6 655/2/6 665/2/6
f 664/4/6 654/4/6 665/4/6
f 665/2/6 655/2/6 666/2/6
f 661/2/6 662/2/6 667/2/6
f 667/2/6 662/2/6 668/2/6
f 663/2/6 664/2/6 669/2/6
f 664/3/6 665/3/6 670/3/6
f 669/2/6 664/2/6 670/2/6
f 665/4/6 666/4/6 671/4/6
f 670/3/6 665/3/6 671/3/6
f 671/4/6 666/4/6 672/4/6
