# Made in Blockbench 5.2.1
mtllib item_wood.mtl

o cylinder
v 0.06472086912079611 -0.15625 3.469446951953614e-17
v 0.06472086912079611 -0.1562499999999999 0.5
v 0.15625 -0.06472086912079611 1.437091981433183e-17
v 0.15625 -0.064720869120796 0.5
v 0.15625 0.0647208691207961 -1.4370919814331827e-17
v 0.15625 0.0647208691207962 0.5
v 0.06472086912079611 0.15625 -3.469446951953614e-17
v 0.06472086912079611 0.1562500000000001 0.49999999999999994
v -0.06472086912079611 0.15625 -3.469446951953614e-17
v -0.06472086912079611 0.1562500000000001 0.49999999999999994
v -0.15625 0.06472086912079619 -1.437091981433185e-17
v -0.15625 0.0647208691207963 0.5
v -0.15625 -0.06472086912079615 1.437091981433184e-17
v -0.15625 -0.06472086912079604 0.5
v -0.06472086912079611 -0.15624999999999994 3.469446951953613e-17
v -0.06472086912079611 -0.15624999999999983 0.5
v 0.04854065184059708 0.11718750000000011 0.5
v -0.04854065184059708 0.11718750000000011 0.5
v -0.1171875 0.048540651840597256 0.5
v -0.1171875 -0.048540651840597 0.5
v -0.04854065184059708 -0.11718749999999985 0.5
v 0.04854065184059708 -0.11718749999999989 0.5
v 0.1171875 -0.04854065184059697 0.5
v 0.1171875 0.04854065184059718 0.5
v -0.04854065184059708 0.1171875 -2.6020852139652106e-17
v 0.04854065184059708 0.1171875 -2.6020852139652106e-17
v 0.04854065184059708 -0.1171875 2.6020852139652106e-17
v -0.04854065184059708 -0.11718749999999996 2.6020852139652097e-17
v 0.1171875 -0.04854065184059708 1.0778189860748873e-17
v 0.1171875 0.04854065184059707 -1.077818986074887e-17
v -0.1171875 -0.04854065184059711 1.0778189860748879e-17
v -0.1171875 0.048540651840597145 -1.0778189860748887e-17
v 0.0482979485813941 0.1166015625 0.06249999999999997
v 0.1166015625 0.048297948581394086 0.062499999999999986
v 0 0 0.0625
v -0.0482979485813941 0.1166015625 0.06249999999999997
v -0.1166015625 0.04829794858139416 0.062499999999999986
v -0.1166015625 -0.04829794858139413 0.06250000000000001
v -0.0482979485813941 -0.11660156249999996 0.06250000000000003
v 0.0482979485813941 -0.1166015625 0.06250000000000003
v 0.1166015625 -0.0482979485813941 0.06250000000000001
v -0.0482979485813941 0.11660156250000012 0.4375
v -0.1166015625 0.04829794858139427 0.4375
v 0 1.1102230246251565e-16 0.4375
v 0.0482979485813941 0.11660156250000012 0.4375
v 0.1166015625 0.0482979485813942 0.4375
v 0.1166015625 -0.04829794858139399 0.4375
v 0.0482979485813941 -0.1166015624999999 0.4375
v -0.0482979485813941 -0.11660156249999985 0.4375
v -0.1166015625 -0.04829794858139402 0.4375
vt 0.58564375 0.9652625
vt 0.55149375 0.9994125
vt 0.52734375 0.9411125
vt 0.375 0.75
vt 0.4375 0.75
vt 0.4375 1
vt 0.375 1
vt 0.55149375 0.72715
vt 0.58564375 0.7613
vt 0.52734375 0.78545
vt 0.58564375 0.9169625
vt 0.58564375 0.9652625
vt 0.52734375 0.9411125
vt 0.1875 0.75
vt 0.25 0.75
vt 0.25 1
vt 0.1875 1
vt 0.58564375 0.7613
vt 0.58564375 0.8096
vt 0.52734375 0.78545
vt 0.55149375 0.8828125
vt 0.58564375 0.9169625
vt 0.52734375 0.9411125
vt 0 0.375
vt 0.0625 0.375
vt 0.0625 0.625
vt 0 0.625
vt 0.58564375 0.8096
vt 0.55149375 0.84375
vt 0.52734375 0.78545
vt 0.50319375 0.8828125
vt 0.55149375 0.8828125
vt 0.52734375 0.9411125
vt 0.28125 0.75
vt 0.34375 0.75
vt 0.34375 1
vt 0.28125 1
vt 0.55149375 0.84375
vt 0.50319375 0.84375
vt 0.52734375 0.78545
vt 0.46904375 0.9169625
vt 0.50319375 0.8828125
vt 0.52734375 0.9411125
vt 0.09375 0.375
vt 0.15625 0.375
vt 0.15625 0.625
vt 0.09375 0.625
vt 0.50319375 0.84375
vt 0.46904375 0.8096
vt 0.52734375 0.78545
vt 0.46904375 0.9652625
vt 0.46904375 0.9169625
vt 0.52734375 0.9411125
vt 0.1875 0.46875
vt 0.25 0.46875
vt 0.25 0.71875
vt 0.1875 0.71875
vt 0.46904375 0.8096
vt 0.46904375 0.7613
vt 0.52734375 0.78545
vt 0.50319375 0.9994125
vt 0.46904375 0.9652625
vt 0.52734375 0.9411125
vt 0.375 0.46875
vt 0.4375 0.46875
vt 0.4375 0.71875
vt 0.375 0.71875
vt 0.46904375 0.7613
vt 0.50319375 0.72715
vt 0.52734375 0.78545
vt 0.55149375 0.9994125
vt 0.50319375 0.9994125
vt 0.52734375 0.9411125
vt 0.28125 0.46875
vt 0.34375 0.46875
vt 0.34375 0.71875
vt 0.28125 0.71875
vt 0.50319375 0.72715
vt 0.55149375 0.72715
vt 0.52734375 0.78545
vt 0.053853125 0.98046875
vt 0.102396875 0.98046875
vt 0.110484375 1
vt 0.045765625 1
vt 0.01953125 0.9461468749999999
vt 0.053853125 0.98046875
vt 0.045765625 1
vt 0 0.954234375
vt 0.01953125 0.8976031250000001
vt 0.01953125 0.9461468749999999
vt 0 0.954234375
vt 0 0.889515625
vt 0.053853125 0.86328125
vt 0.01953125 0.8976031250000001
vt 0 0.889515625
vt 0.045765625 0.84375
vt 0.102396875 0.86328125
vt 0.053853125 0.86328125
vt 0.045765625 0.84375
vt 0.110484375 0.84375
vt 0.13671875 0.8976031250000001
vt 0.102396875 0.86328125
vt 0.110484375 0.84375
vt 0.15625 0.889515625
vt 0.13671875 0.9461468749999999
vt 0.13671875 0.8976031250000001
vt 0.15625 0.889515625
vt 0.15625 0.954234375
vt 0.102396875 0.98046875
vt 0.13671875 0.9461468749999999
vt 0.15625 0.954234375
vt 0.110484375 1
vt 0.102396875 0.67578125
vt 0.053853125 0.67578125
vt 0.045765625 0.65625
vt 0.110484375 0.65625
vt 0.053853125 0.79296875
vt 0.102396875 0.79296875
vt 0.110484375 0.8125
vt 0.045765625 0.8125
vt 0.102396875 0.79296875
vt 0.13671875 0.7586468749999999
vt 0.15625 0.766734375
vt 0.110484375 0.8125
vt 0.13671875 0.7586468749999999
vt 0.13671875 0.7101031250000001
vt 0.15625 0.702015625
vt 0.15625 0.766734375
vt 0.13671875 0.7101031250000001
vt 0.102396875 0.67578125
vt 0.110484375 0.65625
vt 0.15625 0.702015625
vt 0.01953125 0.7101031250000001
vt 0.01953125 0.7586468749999999
vt 0 0.766734375
vt 0 0.702015625
vt 0.053853125 0.67578125
vt 0.01953125 0.7101031250000001
vt 0 0.702015625
vt 0.045765625 0.65625
vt 0.01953125 0.7586468749999999
vt 0.053853125 0.79296875
vt 0.045765625 0.8125
vt 0 0.766734375
vt 0.5171718750000001 0.4375
vt 0.468871875 0.4375
vt 0.46875 0.40625
vt 0.51729375 0.40625
vt 0.52024375 0.625
vt 0.47194375 0.625
vt 0.471821875 0.59375
vt 0.5203656249999999 0.59375
vt 0.679565625 0.9375
vt 0.631265625 0.9375
vt 0.63114375 0.90625
vt 0.6796875 0.90625
vt 0.23899375 0.4375
vt 0.19069375 0.4375
vt 0.190571875 0.40625
vt 0.239115625 0.40625
vt 0.6109218750000001 0.5625
vt 0.562621875 0.5625
vt 0.5625 0.53125
vt 0.61104375 0.53125
vt 0.52024375 0.5625
vt 0.47194375 0.5625
vt 0.471821875 0.53125
vt 0.5203656249999999 0.53125
vt 0.617065625 0.625
vt 0.568765625 0.625
vt 0.56864375 0.59375
vt 0.6171875 0.59375
vt 0.33274375 0.4375
vt 0.28444375 0.4375
vt 0.284321875 0.40625
vt 0.332865625 0.40625
vt 0.568765625 0.46875
vt 0.617065625 0.46875
vt 0.6171875 0.5
vt 0.56864375 0.5
vt 0.47194375 0.65625
vt 0.52024375 0.65625
vt 0.5203656249999999 0.6875
vt 0.471821875 0.6875
vt 0.562621875 0.40625
vt 0.6109218750000001 0.40625
vt 0.61104375 0.4375
vt 0.5625 0.4375
vt 0.56569375 0.65625
vt 0.61399375 0.65625
vt 0.6141156249999999 0.6875
vt 0.5655718750000001 0.6875
vt 0.631265625 0.96875
vt 0.679565625 0.96875
vt 0.6796875 1
vt 0.63114375 1
vt 0.47194375 0.46875
vt 0.52024375 0.46875
vt 0.5203656249999999 0.5
vt 0.471821875 0.5
vt 0.625121875 0.84375
vt 0.6734218750000001 0.84375
vt 0.67354375 0.875
vt 0.625 0.875
vt 0.37819375 0.40625
vt 0.42649375 0.40625
vt 0.426615625 0.4375
vt 0.378071875 0.4375
vn 0 -2.220446049250313e-16 -1
vn 0.7071067811865476 -0.7071067811865476 1.5700924586837752e-16
vn 0 2.220446049250313e-16 1
vn 0 -2.220446049250313e-16 -1
vn 1 0 0
vn 0 2.220446049250313e-16 1
vn 0 -2.220446049250313e-16 -1
vn 0.7071067811865476 0.7071067811865475 -1.570092458683775e-16
vn 0 2.220446049250313e-16 1
vn 0 -2.220446049250313e-16 -1
vn 0 1 -2.220446049250313e-16
vn 0 2.220446049250313e-16 1
vn 0 -2.220446049250313e-16 -1
vn -0.7071067811865472 0.7071067811865479 -1.570092458683776e-16
vn 0 2.220446049250313e-16 1
vn 0 -2.220446049250313e-16 -1
vn -1 0 0
vn 0 2.220446049250313e-16 1
vn 0 -2.220446049250313e-16 -1
vn -0.7071067811865472 -0.7071067811865479 1.570092458683776e-16
vn 0 2.220446049250313e-16 1
vn 0 -2.220446049250313e-16 -1
vn -4.28850477329429e-16 -1 2.220446049250313e-16
vn 0 2.220446049250313e-16 1
vn 0 2.220446049250313e-16 1
vn 0 2.220446049250313e-16 1
vn 0 2.220446049250313e-16 1
vn 0 2.220446049250313e-16 1
vn 0 2.220446049250313e-16 1
vn 0 2.220446049250313e-16 1
vn 0 2.220446049250313e-16 1
vn 0 2.220446049250313e-16 1
vn 0 -2.220446049250313e-16 -1
vn 0 -2.220446049250313e-16 -1
vn 0 -2.220446049250313e-16 -1
vn 0 -2.220446049250313e-16 -1
vn 0 -2.220446049250313e-16 -1
vn 0 -2.220446049250313e-16 -1
vn 0 -2.220446049250313e-16 -1
vn 0 -2.220446049250313e-16 -1
vn -0.7070757092062644 -0.7070757092062642 -0.009374588039850425
vn 0 -0.9999560575840736 -0.009374588039850602
vn 0.7070757092062641 -0.7070757092062646 -0.00937458803985072
vn 0.9999560575840736 -2.0815766976435505e-18 -0.009374588039850602
vn 0.7070757092062641 0.7070757092062646 -0.009374588039850317
vn 4.309865654305366e-16 0.9999560575840736 -0.0093745880398506
vn -0.7070757092062643 0.7070757092062643 -0.009374588039850598
vn -0.9999560575840736 -2.0815766976435505e-18 -0.009374588039850602
vn 0.7070757092062641 -0.7070757092062646 0.009374588039850461
vn 0 -0.9999560575840736 0.009374588039850602
vn -0.7070757092062644 -0.7070757092062642 0.00937458803985074
vn -0.9999560575840736 2.0815766976435505e-18 0.009374588039850602
vn -0.7070757092062643 0.7070757092062643 0.009374588039850714
vn 4.309865654305366e-16 0.9999560575840736 0.009374588039850603
vn 0.7070757092062641 0.7070757092062646 0.00937458803985072
vn 0.9999560575840736 2.0815766976435505e-18 0.009374588039850602
usemtl m_780004c1-7107-8edc-cae0-e7e74d0a6413
f 41/1/1 40/2/1 35/3/1
f 1/4/2 3/5/2 4/6/2 2/7/2
f 48/8/3 47/9/3 44/10/3
f 34/11/4 41/12/4 35/13/4
f 3/14/5 5/15/5 6/16/5 4/17/5
f 47/18/6 46/19/6 44/20/6
f 33/21/7 34/22/7 35/23/7
f 5/24/8 7/25/8 8/26/8 6/27/8
f 46/28/9 45/29/9 44/30/9
f 36/31/10 33/32/10 35/33/10
f 7/34/11 9/35/11 10/36/11 8/37/11
f 45/38/12 42/39/12 44/40/12
f 37/41/13 36/42/13 35/43/13
f 9/44/14 11/45/14 12/46/14 10/47/14
f 42/48/15 43/49/15 44/50/15
f 38/51/16 37/52/16 35/53/16
f 11/54/17 13/55/17 14/56/17 12/57/17
f 43/58/18 50/59/18 44/60/18
f 39/61/19 38/62/19 35/63/19
f 13/64/20 15/65/20 16/66/20 14/67/20
f 50/68/21 49/69/21 44/70/21
f 40/71/22 39/72/22 35/73/22
f 15/74/23 1/75/23 2/76/23 16/77/23
f 49/78/24 48/79/24 44/80/24
f 18/81/25 17/82/25 8/83/25 10/84/25
f 19/85/26 18/86/26 10/87/26 12/88/26
f 20/89/27 19/90/27 12/91/27 14/92/27
f 21/93/28 20/94/28 14/95/28 16/96/28
f 22/97/29 21/98/29 16/99/29 2/100/29
f 23/101/30 22/102/30 2/103/30 4/104/30
f 24/105/31 23/106/31 4/107/31 6/108/31
f 17/109/32 24/110/32 6/111/32 8/112/32
f 26/113/33 25/114/33 9/115/33 7/116/33
f 28/117/34 27/118/34 1/119/34 15/120/34
f 27/121/35 29/122/35 3/123/35 1/124/35
f 29/125/36 30/126/36 5/127/36 3/128/36
f 30/129/37 26/130/37 7/131/37 5/132/37
f 32/133/38 31/134/38 13/135/38 11/136/38
f 25/137/39 32/138/39 11/139/39 9/140/39
f 31/141/40 28/142/40 15/143/40 13/144/40
f 34/145/41 33/146/41 26/147/41 30/148/41
f 33/149/42 36/150/42 25/151/42 26/152/42
f 36/153/43 37/154/43 32/155/43 25/156/43
f 37/157/44 38/158/44 31/159/44 32/160/44
f 38/161/45 39/162/45 28/163/45 31/164/45
f 39/165/46 40/166/46 27/167/46 28/168/46
f 40/169/47 41/170/47 29/171/47 27/172/47
f 41/173/48 34/174/48 30/175/48 29/176/48
f 43/177/49 42/178/49 18/179/49 19/180/49
f 42/181/50 45/182/50 17/183/50 18/184/50
f 45/185/51 46/186/51 24/187/51 17/188/51
f 46/189/52 47/190/52 23/191/52 24/192/52
f 47/193/53 48/194/53 22/195/53 23/196/53
f 48/197/54 49/198/54 21/199/54 22/200/54
f 49/201/55 50/202/55 20/203/55 21/204/55
f 50/205/56 43/206/56 19/207/56 20/208/56